<?xml version="1.0" encoding="UTF-8" standalone="no"?>
<!-- Created with Inkscape (http://www.inkscape.org/) -->

<svg
   xmlns:dc="http://purl.org/dc/elements/1.1/"
   xmlns:cc="http://creativecommons.org/ns#"
   xmlns:rdf="http://www.w3.org/1999/02/22-rdf-syntax-ns#"
   xmlns:svg="http://www.w3.org/2000/svg"
   xmlns="http://www.w3.org/2000/svg"
   xmlns:sodipodi="http://sodipodi.sourceforge.net/DTD/sodipodi-0.dtd"
   xmlns:inkscape="http://www.inkscape.org/namespaces/inkscape"
   id="svg4144"
   height="65.057533mm"
   width="334.90173mm"
   version="1.1"
   viewBox="0 0 334.90122 65.057024"
   inkscape:version="0.91 r13725"
   sodipodi:docname="saitejasss.svg">
  <defs
     id="defs5285" />
  <sodipodi:namedview
     pagecolor="#ffffff"
     bordercolor="#666666"
     borderopacity="1"
     objecttolerance="10"
     gridtolerance="10"
     guidetolerance="10"
     inkscape:pageopacity="0"
     inkscape:pageshadow="2"
     inkscape:window-width="1600"
     inkscape:window-height="838"
     id="namedview5283"
     showgrid="false"
     fit-margin-top="0"
     fit-margin-left="0"
     fit-margin-right="0"
     fit-margin-bottom="0"
     inkscape:zoom="0.32994018"
     inkscape:cx="899.74627"
     inkscape:cy="314.79117"
     inkscape:window-x="-8"
     inkscape:window-y="-8"
     inkscape:window-maximized="1"
     inkscape:current-layer="svg4144" />
  <metadata
     id="metadata4150">
    <rdf:RDF>
      <cc:Work
         rdf:about="">
        <dc:format>image/svg+xml</dc:format>
        <dc:type
           rdf:resource="http://purl.org/dc/dcmitype/StillImage" />
        <dc:title></dc:title>
      </cc:Work>
    </rdf:RDF>
  </metadata>
  <g
     id="layer1"
     transform="translate(29.109532,-21.357783)">
    <g
       id="flowRoot4693"
       transform="scale(0.28222,0.28222)">
      <path
         id="path4702"
         d="m 89.654,254.49 -1.05,-0.15 -1.2,-0.3 -1.8,0 -1.8,-0.45 -0.3,0 -1.2,-0.6 -1.8,-0.3 -4.2,-1.35 -0.75,-0.3 -0.45,-0.15 -0.75,-0.3 -1.8,-0.6 -5.25,-2.4 -0.9,-0.75 -2.7,-1.35 -1.5,-1.2 -0.45,-0.3 -3.75,-3 -2.85,-3.15 -3.9,-4.35 -0.3,-0.75 -0.6,-0.75 -2.25,-3.6 0,-0.6 1.35,-0.6 0.75,-0.3 0.75,-0.6 3.75,-2.1 0.3,-0.15 7.65,-4.5 0.45,-0.15 1.2,-0.6 0.9,-0.6 0.3,-0.15 0.45,-0.3 2.1,-1.05 0.6,0 0,1.05 0.75,0.15 0.9,1.5 2.4,2.55 1.95,2.1 1.35,1.5 1.2,0.9 3.15,2.4 3.3,1.8 0.15,0.15 1.05,0.45 0.45,0.15 0.75,0.3 0.6,0.15 0.3,0.15 3.15,0.75 1.5,0.15 1.65,0.45 8.85,0 1.8,-0.45 1.2,-0.15 0.45,-0.15 1.35,-0.3 2.7,-0.9 0.6,-0.15 0.45,-0.3 2.25,-1.35 3,-2.4 1.95,-2.55 0.9,-1.8 0.9,-2.4 0.15,-0.9 0.15,-0.6 0,-4.8 -0.15,-0.6 -0.3,-1.65 -0.6,-1.65 -0.3,-1.05 -1.65,-2.55 -2.55,-2.25 -4.05,-2.7 -7.35,-3.9 -6.9,-3.15 -0.45,-0.15 -0.6,-0.3 -1.8,-0.9 -0.6,-0.3 -1.5,-0.6 -0.45,-0.45 -0.9,-0.45 -1.2,-0.15 -2.25,-1.05 -1.5,-0.45 -0.9,-0.75 -0.9,-0.3 -2.25,-1.35 -0.45,-0.6 -1.35,-0.3 -2.7,-1.5 -1.2,-1.2 -0.9,-0.3 -1.35,-0.75 -1.5,-1.5 -0.75,-0.3 -0.45,-0.9 -1.05,-0.3 -4.5,-4.35 -0.45,-0.9 -0.15,-0.6 -0.9,-0.75 -1.8,-2.55 -0.9,-1.8 0,-0.9 0.75,-0.45 0.9,-0.15 -0.3,-0.6 -2.25,0 -0.45,-0.45 -1.2,-3.15 -0.15,-0.75 -0.3,-0.6 0,-1.05 0.45,-0.3 0,-0.75 -0.45,-0.45 -0.6,-0.3 -0.6,-3.75 0,-1.35 0.6,-0.6 0,-0.45 -0.6,-0.3 -0.3,-0.75 0,-3.45 0.3,-1.2 0,-1.05 0.15,-0.75 0,-1.05 0.15,-0.75 0.15,-1.35 0.6,-2.25 0.15,-1.35 0.75,-1.65 0.75,-2.4 0.9,-1.2 0.6,-1.5 2.7,-4.35 2.25,-2.25 1.2,-0.45 0.15,-0.15 0,-0.45 0.45,-0.45 0.45,-0.9 2.25,-1.95 2.4,-1.5 0.9,-0.3 0.6,-0.45 0.75,-0.15 1.5,-1.05 0.6,0 0,0.45 -0.15,0.6 0.15,0.15 0.45,0 0,0.45 0.3,0 0,-1.2 0.45,-1.35 1.5,-0.75 2.25,-0.75 0.3,-0.15 1.05,-0.15 0.75,-0.45 0.9,-0.15 0.45,-0.15 1.2,-0.15 1.35,-0.45 2.55,0 0.45,0.15 0.9,-0.3 1.95,0.3 0.3,-0.45 0.15,-0.3 3.45,0 0.15,0.3 1.65,0 0.3,-0.3 1.35,0 0.3,0.3 1.2,0.15 1.95,0 0.6,0.3 0.75,0.6 0.9,-0.45 0.9,0.15 1.05,0.15 0.9,0.3 0.9,0.15 0.75,0.3 1.05,0.15 0.45,0.15 0.9,0.15 0.75,0.3 2.25,0.75 0.9,0.45 2.4,1.05 2.55,1.5 4.5,3.45 3.9,3.9 2.85,3.9 0.45,0.75 0.45,0.45 0.9,1.5 0,0.6 -3.75,2.4 -0.6,0.45 -14.1,9.15 -0.75,0 -2.4,-3.6 -2.7,-2.7 -2.85,-2.4 -0.75,-0.3 -0.6,-0.3 -0.75,-0.3 -1.2,-0.6 -0.6,-0.15 -0.6,-0.3 -1.2,-0.15 -0.9,-0.45 -2.4,-0.3 -1.2,-0.15 -0.3,0 -5.4,0.45 -1.65,0.6 -1.05,0.15 -0.6,0.3 -1.5,0.45 -0.45,0.45 -0.45,0.3 -0.6,0.75 -1.8,1.35 -1.5,2.55 -1.2,1.05 0,1.05 -0.9,3 0,5.25 0.3,1.35 0.15,1.2 1.65,3.15 1.05,1.5 1.8,2.1 5.25,3.15 4.5,2.55 4.5,2.1 0.45,0.15 15.9,7.05 0.9,0.75 1.65,0.45 1.5,0.9 3.75,1.95 1.5,1.2 1.2,0.6 6.15,4.8 3.3,3.3 2.85,3.45 1.05,1.95 0.45,0.45 0.3,1.2 0.3,0.45 1.5,2.7 1.05,3.15 0.6,2.4 0.15,0.9 0.3,1.35 0.15,0.6 0,3.15 0.3,0.6 0,0.6 -0.6,0.75 0.75,0.75 0,4.35 -0.3,1.8 0,1.5 -0.45,1.95 0,0.9 -0.75,0.9 0.3,0.75 -0.3,0.9 -0.3,1.2 -0.45,1.35 -0.45,1.35 -0.9,1.8 -0.6,0.6 -0.3,0.9 -2.55,4.05 -1.05,1.05 -0.45,0.9 -0.75,0.75 -0.75,0 0.45,-1.05 -0.6,-0.3 -1.05,0 0,1.5 0.9,0.45 -0.45,0.75 -3.15,2.85 -3.6,2.1 -4.2,2.25 -1.65,0.15 -0.45,0.75 -0.75,0.15 -0.3,0.15 -4.05,1.35 -0.6,0.15 -0.75,0.3 -1.2,0.15 -1.35,0.6 -2.4,0.3 -0.75,0.15 -2.4,0.3 -1.2,0.3 -3.75,0 -1.05,-0.45 -1.05,0.6 -3.75,0 -5.55,-0.3 -0.75,-0.15 z m 8.7,-0.45 0.3,-0.6 0.9,-0.75 -1.2,0 -0.3,0.75 0,0.6 0.3,0 z m 1.35,-3.3 0.3,-0.3 0,-0.6 -0.3,0 -0.3,0.3 0,0.3 0.3,0.3 z m 0.6,-1.05 0.6,0 0.3,-0.3 0,-0.6 -0.6,0 -0.3,0.3 0,0.6 z m 22.65,-2.1 0.45,-0.45 0,-0.75 -0.3,-0.3 -0.6,0.45 0,1.05 0.45,0 z m -2.4,-1.65 0.45,-0.3 0,-0.45 -0.6,0 -0.3,0.45 0.45,0.3 z m 7.65,-0.75 0.45,0 0,-0.45 -0.45,0 0,0.45 z m -6.3,-0.6 0.75,0 0.3,-0.3 -0.45,-0.3 -0.3,0 -0.3,0.3 0,0.3 z m 8.85,-2.55 0.45,0 0.45,-0.3 -0.45,-0.3 -0.45,0 -0.3,0.3 0.3,0.3 z m -12.15,-1.65 0.15,0 0,-0.45 -0.15,0 -0.15,0.15 0.15,0.3 z m 2.55,0 1.05,-0.45 0.75,-0.3 -0.45,-0.45 -1.8,0.3 0,0.45 0.45,0.45 z m -22.35,-0.9 0.15,-0.15 -0.15,0 0,0.15 z m 19.35,-0.15 0.45,-0.6 -0.15,-0.45 -0.9,-0.15 -0.45,0.6 1.05,0.6 z m -46.95,-1.35 0.3,0 0.15,-0.15 -0.15,-0.15 -0.3,0 0,0.3 z m 36,0 0.15,0 0,-0.6 -0.45,0 0,0.3 0.3,0.3 z m 10.95,-0.9 0.3,0 0,-0.15 -0.3,0 0,0.15 z m 21.75,-7.2 -0.45,-0.9 -0.3,0.3 0.3,0.45 0.45,0.15 z m -65.85,-1.95 0.15,0 0,-0.15 -0.15,0 0,0.15 z m 56.85,0 0.3,-0.3 -0.3,-0.3 -0.15,0.3 0.15,0.3 z m -59.7,-1.05 0.15,0 0.15,-0.15 -0.15,-0.15 -0.15,0 0,0.3 z m -5.85,-2.55 0,-0.3 -0.3,-0.3 -0.3,0 0.3,0.3 0.3,0.3 z m 74.25,-0.9 0.45,0 0.3,-0.3 0,-0.15 -0.45,0 -0.3,0.45 z m -75.15,-0.45 0,-0.6 -0.3,-0.3 -0.15,0.3 0.3,0.6 0.15,0 z m 68.85,-5.1 0.15,0 0,-0.3 -0.15,0 0,0.3 z m -6.15,-0.15 0.15,-0.15 0,-0.15 -0.3,0 0,0.15 0.15,0.15 z m 10.05,-3.3 0,-0.6 -0.75,0 0,0.6 0.75,0 z m -13.8,-6.45 0.3,0 0,-0.3 -0.3,0 0,0.3 z m 0.9,-2.25 0.45,0 0.45,-0.3 -0.45,-0.3 -0.3,0 -0.3,0.3 0.15,0.3 z m -33.15,-14.1 0.3,0 0.45,-0.45 0,-0.6 -0.9,-0.45 -0.9,0.15 0,0.45 1.05,0.9 z m 5.25,-1.5 0.3,0 0,-0.45 -0.3,0 0,0.45 z m 1.5,0 0.3,0 0,-0.15 -0.45,-0.6 0,0.45 0.15,0.3 z m 5.1,-0.75 0.15,0 0.15,-0.15 -0.15,0 -0.15,0.15 z m -5.85,-0.45 0.15,0 -0.15,-0.15 0,0.15 z m -6.15,-0.75 0,-0.75 -0.9,0 0,0.75 0.9,0 z m 1.65,-0.45 0.45,0 0,-0.45 -0.45,0 0,0.45 z m 2.1,-0.75 0.15,-0.3 -0.15,-0.3 -0.3,0.3 0.3,0.3 z m -1.65,-0.9 0.9,0 0.3,-0.3 -0.45,-0.3 -0.9,0 -0.15,0.15 0.3,0.45 z m -5.4,-0.75 0.3,0 0,-0.15 -0.15,-0.15 -0.15,0.15 0,0.15 z m -4.95,-0.15 0.45,-0.3 0,-0.3 -0.3,0 -0.45,0.3 0.3,0.3 z m 3,-0.15 0.6,0 0.45,-0.75 0,-0.3 -0.3,0 -0.75,0.75 0,0.3 z m -6.15,-2.7 0.6,0 0.6,-0.6 -0.6,-0.9 -0.75,0.3 -0.3,0.6 0.45,0.6 z m 5.7,0 0.6,-0.6 1.2,0.3 0,-0.45 -1.05,-1.05 -0.75,0 0.45,0.45 0,0.3 -0.3,0.15 -0.75,0.3 0.6,0.6 z m -10.2,-0.45 0.3,0 0.15,-0.6 -0.3,-0.6 -0.6,0 -0.3,0.3 0.3,0.6 0.45,0.3 z m 40.05,-0.15 0.75,0 0,-0.45 -0.3,-0.3 -0.75,0 0,0.45 0.3,0.3 z m -26.25,-0.45 0.3,-0.3 0,-0.3 -0.45,0 -0.3,0.15 0.45,0.45 z m -7.5,-0.45 0,-0.45 -0.75,0 0,0.45 0.75,0 z m 2.55,0 0,-1.2 -0.6,0 0.3,-0.9 0.3,0 0.15,0.6 0.45,0 0,-0.75 -0.3,-0.45 -0.3,-0.6 -0.3,0 0,0.6 -0.3,0.3 -0.6,0.75 0.45,0.45 0.3,1.2 0.45,0 z m -5.7,-0.6 0,0.15 0,-0.15 z m 30.75,-0.45 0.6,0 0,-0.45 -0.6,-0.45 -0.45,0.45 0,0.15 0.45,0.3 z m -30,-0.15 0.6,0 -0.15,-0.15 -0.3,0 -0.15,0.15 z m 19.8,0 0.6,0 0,-0.75 -0.6,0 -0.3,0.3 0.3,0.45 z m 11.85,-0.3 0.9,-0.75 0,-0.3 -0.45,0 -0.45,0.45 0,0.6 z m -41.25,-0.75 0.9,-0.15 0,-0.75 -1.2,0 0,0.75 0.3,0.15 z m 11.7,-0.9 0.6,-0.3 0,-0.6 -0.9,0 -0.3,0.3 0.6,0.6 z m -12.9,-0.45 0.45,0 0.15,-0.15 -0.15,-0.3 -0.3,-0.15 -0.45,0.45 0.3,0.15 z m 3.45,0 0,-0.3 -0.3,-0.3 -0.3,0.3 0.6,0.3 z m 0.6,-0.9 0.3,0 0,-1.05 -0.9,0 0,0.75 0.6,0.3 z m 8.4,-1.35 0.75,0 0.15,-0.15 -0.15,-0.3 -1.05,0 -0.15,0.15 0.45,0.3 z m -9.3,-0.3 0.75,0 0.45,-0.15 1.5,0 0,-0.3 -0.45,-0.3 -0.45,-0.3 0.9,-1.05 0,-0.45 -0.3,-0.3 -0.3,0.15 -0.15,0.45 -0.45,0.3 0,0.75 -0.45,0.45 -1.05,0.3 0,0.45 z m 7.95,0 0.6,0 0.15,-0.45 -0.15,-0.45 -0.45,0 -0.45,0.3 0,0.3 0.3,0.3 z m -1.2,-1.5 0.45,0 0,-0.6 -0.6,0.3 0.15,0.3 z m 2.85,0 0.3,-0.15 0,-0.3 -0.6,0 0,0.3 0.3,0.15 z m -9.75,-0.6 1.05,0 0,-0.3 -1.05,0 0,0.3 z m -2.55,-0.75 0.15,0 0,-0.15 -0.15,0.15 z m 7.05,0 0.45,-0.45 -0.3,-0.15 -0.9,0 0,0.3 0.75,0.3 z m -6.75,-0.9 0.3,-0.3 1.2,-0.15 0.9,-0.75 1.35,0 0,-1.2 -0.3,-0.6 -0.75,0.3 -0.6,0 -0.3,-0.3 -0.15,-1.05 0.9,-0.3 0,-0.45 -0.6,-0.3 -0.75,0.6 -0.3,0.45 -0.75,0 -0.9,0.3 0.45,0.45 0.75,0.15 1.05,1.05 -1.2,0.15 -0.6,0.45 -0.45,-0.15 -0.45,0 0,0.6 0.75,0.45 0.3,0.45 0.15,0.15 z m 8.85,0 0.15,-0.15 -0.15,0 0,0.15 z m 1.95,0 0.6,0 1.8,-0.75 0.9,0 0,-0.3 -0.6,-0.6 -0.75,0 -1.8,1.05 -0.9,-0.45 -0.6,0 0,0.6 0.9,0.15 0.45,0.3 z m -3.6,-0.15 0.45,0 1.05,-0.75 0.3,-0.45 -0.6,-0.3 -1.2,0.9 -0.15,0.45 0.15,0.15 z m -2.1,-1.5 0.75,0 0.45,-0.3 1.05,0 0.45,-0.9 -0.45,-0.15 -0.9,0 -0.45,0.6 -1.35,0.15 0,0.3 0.45,0.3 z m 9,-2.4 0.45,0 -0.3,-0.3 -0.15,0.3 z m -12.15,-2.1 0.75,0 0.75,-0.3 0,-0.6 -0.6,-0.3 0.3,-0.45 0,-0.9 -0.3,-0.15 -0.75,0.3 -0.3,0.6 -0.3,0.3 0,0.45 0.45,1.05 z m 5.4,-1.05 0.3,0 0.15,-0.6 2.25,0 0.45,-0.3 -1.05,-0.45 0,-1.05 -0.75,0 -0.6,-0.9 0,-1.8 -0.45,0 0,1.35 -0.45,0.9 -0.75,0.3 -1.05,-0.45 -0.75,0 0,0.45 0.3,0.45 0,0.3 -0.6,0.45 -0.3,0.6 0.3,0.3 0.9,-0.3 0.75,-0.6 0.6,-0.15 0.6,0.45 0.15,1.05 z m -16.5,-1.05 0.45,-0.3 -0.15,-0.15 -0.45,0 0,0.3 0.15,0.15 z m 23.4,-0.3 0.9,-0.6 0.9,-0.3 -0.45,-0.45 -0.75,0 -0.3,0.3 -0.75,0 0,0.45 0.45,0.6 z m -17.7,-0.15 0.6,-0.6 0.6,0 0,-0.3 -0.45,-0.3 -0.45,-0.3 -0.45,0 -0.75,0.9 0.15,0.3 0.75,0.3 z m -1.65,-2.25 0.3,0 0,-0.45 -0.75,-0.3 0,0.3 0.45,0.45 z m 6,-0.75 0.3,0 0.3,-0.3 0,-1.2 -0.75,0 0,0.6 0.15,0.3 0,0.6 z m -0.9,-1.05 -0.15,0 0.15,0 z m 6.15,-0.15 0.45,0 0.15,-0.45 0.75,-0.75 0,-1.2 -0.15,-0.3 -0.6,0.3 0,1.2 -0.6,0.75 0,0.45 z m -15.45,-0.15 0.45,-0.45 0,-0.45 -0.45,0 -0.45,0.45 0,0.45 0.45,0 z m 11.1,-0.6 0.45,0 1.5,-0.75 0,-0.6 -0.3,-0.15 -0.45,0.3 -0.45,0.15 -0.75,0.75 0,0.3 z m -5.4,-0.6 0.45,-0.15 0.3,-0.9 -1.05,-0.45 -0.6,0 -0.3,0.3 0.45,0.75 0.3,0.45 0.45,0 z m -8.25,-0.9 0.3,0 0.3,-0.3 -0.6,-0.6 -0.3,0.45 0.3,0.45 z m 3.75,-1.05 0.15,-0.6 -0.15,-0.15 -0.6,0.3 0,0.45 0.6,0 z m 10.35,-0.3 0.3,0 0,-0.15 -0.15,-0.15 -0.15,0.15 0,0.15 z m -4.5,-0.6 0.15,-0.15 0,-0.3 -0.15,-0.15 -0.15,0.15 0,0.3 0.15,0.15 z m -2.55,-0.75 0.3,-0.3 -0.45,0 -0.15,0.15 0.3,0.15 z m 3,-0.15 0.75,-0.3 0,-0.45 -0.6,-1.05 0.3,-0.75 -0.45,-0.3 -0.75,0.3 0.15,0.6 -0.3,0.45 0.6,1.35 0.3,0.15 z m 1.95,0 0.75,0 0.45,-0.9 0.6,-0.6 0.45,-0.3 0.6,0.3 -0.6,1.05 0.9,0 0.15,-0.75 0.3,-0.3 0.6,0 0.45,-0.3 0,-3.45 1.2,-1.2 0.3,-0.45 -0.45,-0.45 -1.2,0.75 -0.6,-0.15 -0.15,-0.45 -0.45,-0.15 -0.15,0.15 0.3,0.6 0,0.6 -0.75,0.15 -0.45,0.15 -0.45,-0.45 -1.05,0 -0.15,0.3 -0.75,0.9 -0.15,0.3 -1.35,0.15 -1.65,-0.9 -0.15,0.3 0.3,0.75 1.8,0 0.9,1.5 0.45,0 0.9,-1.2 1.2,0.45 0.45,0.45 -0.6,0.9 -0.75,0.45 -0.75,0 -0.75,-0.45 -0.15,0.15 0,0.3 0.45,0.75 0,1.05 z m -12,-0.45 0.6,0 0.3,-0.3 0.45,-0.3 0.15,-0.9 0.3,-0.6 1.05,-0.3 0.15,-0.75 1.35,-1.05 0.6,-0.3 0,-0.15 -0.9,-0.15 -0.6,0.6 -0.6,-0.45 -0.45,0 -0.45,0.75 -0.75,0.9 -0.15,1.2 -1.05,1.2 0,0.6 z m 6.45,-4.2 0.45,-0.15 0,-0.75 -0.3,-0.3 -0.9,0 0,0.45 0.75,0.75 z m 9.15,-1.05 0,0.3 -0.15,0 0,-0.3 0.15,0 z m -12.45,0.15 0.6,0 0,-0.45 -0.6,0 -0.15,0.3 0.15,0.15 z m 6.15,-0.45 0.6,-0.9 0.75,-0.3 0,-0.3 -0.75,0 -0.45,0.15 -0.9,0 -0.3,0.3 0,0.45 1.05,0.6 z m -6.9,-0.75 0,-0.6 -1.35,0 0,0.45 1.35,0.15 z m 10.8,-1.05 0,-0.6 0.15,-0.45 -0.3,-0.3 -0.75,-0.15 -0.15,-1.05 -0.75,0 0.3,0.9 0.45,0.6 0.3,1.05 0.75,0 z m 2.7,-1.05 0.45,-0.45 0,-0.6 -1.05,-1.2 -1.2,0.15 0.45,0.45 0,1.35 1.35,0.3 z m -10.05,-0.3 0.75,0 0,-0.45 -0.75,0 0,0.45 z m 15.3,-0.3 -0.3,0 0.3,0 z m -16.8,-1.05 0.15,0 -0.15,-0.15 0,0.15 z m 9.75,-3.6 0,-0.6 -0.45,0 0,0.6 0.45,0 z m 2.7,-0.3 0.9,-0.45 0.6,-0.15 0,-1.65 0.3,-0.3 0.9,-0.15 0.6,-0.6 0,-2.25 0.45,-1.35 1.2,-0.75 0.6,-0.45 -0.3,-0.3 -1.5,0 -0.3,-0.3 -0.15,-0.9 -0.75,-0.15 -0.3,0.3 0.9,1.05 0,0.6 -0.75,0.75 -0.3,0.6 -0.6,0.3 0,1.2 -0.75,1.2 0.15,0.9 -0.3,0.3 -0.6,-0.15 -0.45,0 0,2.55 0.45,0.15 z m -14.25,-0.15 0.3,-0.15 0,-0.3 -0.45,-0.45 -0.3,0.45 0.15,0.3 0.3,0.15 z m 19.2,-0.15 0.9,0 0.9,-0.9 0,-0.75 -1.5,1.35 -0.9,0 0.6,0.3 z m 2.25,-2.85 0.45,0 0.9,-0.45 0,-0.75 -0.3,-0.15 -1.05,0.3 0,1.05 z m 25.35,-1.2 0.3,0 0.3,-0.15 -0.3,-0.15 -0.3,0.15 0,0.15 z m -28.05,-0.15 0.6,0 0,-0.6 -0.9,0 0,0.3 0.3,0.3 z m 24.9,-0.15 0.9,-0.9 0,-0.45 -0.6,-0.3 -0.75,0.75 -0.6,0.3 0,0.6 1.05,0 z m -2.55,-0.45 0.9,-0.3 0,-0.45 -0.45,-0.3 -0.45,0.3 -0.3,0.45 0.3,0.3 z m -16.65,-0.45 1.2,-1.35 0,-0.6 -0.9,-0.45 -1.65,0.75 -0.45,1.05 0.3,0.3 0.9,-0.45 0.6,0.75 z m 9.15,-0.15 0.6,0 0,-0.45 -0.15,-0.15 -0.45,0.3 0,0.3 z m -1.35,-0.3 0.15,0 0,-0.15 -0.15,-0.15 0,0.3 z m 4.2,-0.3 0.45,0 -0.15,-0.15 -0.3,0.15 z m 3.6,0 0.15,0 -0.15,-0.15 0,0.15 z m -2.1,-0.45 0.75,0 0,-0.6 -0.6,-0.45 -0.45,0.3 0,0.45 0.3,0.3 z m -28.5,-1.05 0.3,0 0,-0.9 -0.45,0 -0.3,0.45 0.45,0.45 z m 19.35,-0.45 0.3,0 0.15,-0.3 -0.15,-0.15 -0.3,0 0,0.45 z m -0.75,-0.9 0.45,0 -0.3,-0.15 -0.15,0.15 z m 21.9,0 0.45,0 0,-0.3 -0.45,0 0,0.3 z m -1.35,-0.15 -0.15,-1.05 -0.6,0 -0.6,0.6 0,0.45 1.35,0 z m -10.2,-0.45 0.3,0 0,-0.75 -0.6,0 0,0.45 0.3,0.3 z m -20.85,-0.15 0.45,0 0,-0.45 -0.3,-0.3 -0.45,0.3 0.3,0.45 z m 6.9,-0.15 0.15,-0.15 -0.15,-0.15 -0.15,0 0,0.15 0.15,0.15 z m 7.2,-0.3 -0.3,0 0.3,0 z m 0.3,-0.75 0.45,-0.45 -0.45,-0.75 -1.5,0.6 -0.3,0.3 1.35,0 0.45,0.3 z m -11.4,-0.3 0,-0.3 -0.45,-0.45 -0.3,-0.15 -0.6,-0.45 -0.6,0 0,0.6 0.6,0.6 0.75,0 0.6,0.15 z m 26.7,0 0,-0.6 -0.3,-0.3 -0.6,0 0,0.9 0.9,0 z m 2.85,-0.15 0.15,0 0,-0.3 -0.15,-0.15 -0.15,0.15 0.15,0.3 z m -28.05,0 0.45,-0.3 -0.45,-0.75 -0.45,0 0,0.6 0.45,0.45 z m 17.55,-1.5 0.45,0 0,-0.3 -0.45,0 0,0.3 z m 4.05,0 1.2,-0.45 0.3,-0.6 0.75,-0.15 0,-0.3 -0.75,0 -0.45,0.3 -0.6,0.15 -0.6,0.6 0.15,0.45 z m -34.95,-0.15 1.05,-0.15 0.9,-0.9 0,-1.05 -0.75,-0.45 -0.6,0 -0.75,1.5 -0.3,0.75 0.45,0.3 z m 19.35,-0.15 0.6,0 0.3,-0.3 -0.3,-0.3 -0.3,0 -0.3,0.3 0,0.3 z m 9.6,-0.3 0.45,0 -0.45,-0.6 -0.45,0 -0.45,-0.9 -0.45,0.45 0.3,0.6 1.05,0.45 z m -30.45,-0.15 0.3,0 0.15,-0.15 -0.3,0 -0.15,0.15 z m 4.5,0 0.6,0 0.3,-0.3 0,-0.15 -0.9,0 0,0.45 z m 11.85,0 0,-0.3 -0.15,-0.3 0,-0.75 0.45,-0.9 0,-0.3 -0.45,0 -0.45,0.6 -0.15,0.9 -0.45,0.45 0,0.45 1.2,0.15 z m 14.7,0 0.6,0 0,-0.3 -0.3,-0.3 -0.3,0.45 0,0.15 z m 4.65,-0.45 0,-0.3 -0.75,0 0,0.3 0.75,0 z m 5.55,0 0.45,0 0,-0.45 -0.45,0 0,0.45 z m -1.95,-0.3 0.6,0 0.45,-0.45 0,-0.3 -0.6,0 -0.45,0.45 0,0.3 z m -15.3,-0.75 0.3,0 0,-0.45 -0.3,-0.3 -0.3,0 0,0.45 0.3,0.3 z m 2.85,-0.15 0.6,0 0,-0.45 -0.6,0 0,0.45 z m 25.65,-0.15 0.6,-0.45 0.15,-0.75 -0.15,-0.45 -0.6,0.3 -0.3,0.6 0.3,0.75 z m -47.85,-0.3 0.75,-0.3 0,-1.2 -0.45,0.3 -0.3,0.15 -0.6,0.45 0.6,0.6 z m 44.1,-0.15 0.6,0 0,-0.6 -0.45,0 -0.45,0.3 0.3,0.3 z m -36.9,-0.15 0.15,-0.15 0,-0.6 -0.45,0 0,0.6 0.3,0.15 z m 17.4,0 0.3,-0.3 -0.6,0 0,0.15 0.3,0.15 z m -8.1,-0.15 1.35,0 0.6,-0.45 0,-0.6 -1.35,0 -0.45,-0.6 -0.6,0.3 0,0.9 0.45,0.45 z m 11.1,-0.3 0.45,0 0.15,-0.15 -0.3,-0.6 -0.6,0.3 0.3,0.45 z m 5.7,0 0,-0.45 -0.6,-0.6 -0.15,0 0,1.05 0.75,0 z m 12.15,-0.45 0.3,0 1.05,-0.75 0,-0.15 -0.45,0 -0.9,0.6 0,0.3 z m -33,-1.05 0.9,-0.3 0,-0.6 -0.45,0 -0.75,0.6 0.3,0.3 z m 19.95,-1.05 0.45,0 0,-0.45 -0.45,0 0,0.45 z m -13.95,-0.45 1.65,0 0.15,-0.15 -0.15,-0.6 -1.8,0 -0.3,0.3 0,0.3 0.45,0.15 z m -10.5,-0.3 0.6,-0.3 0,-0.6 -0.6,0 0,0.9 z m 25.2,-0.45 0.3,0 0,-0.6 -0.3,0 0,0.6 z m -3.6,-0.45 0.6,0 -0.45,-0.6 -0.45,0 -0.3,0.3 0.6,0.3 z m -21.45,-0.6 -0.15,0 0.15,0 z m 6.6,-0.15 0.45,0 0,-0.45 -0.45,0 0,0.45 z m 24.45,0 0.15,0 0,-0.9 -0.3,-0.15 -0.3,0.3 0,0.3 0.45,0.45 z m -11.7,-0.6 0.6,0 0,-0.6 -0.3,-0.3 -0.6,0 0,0.6 0.3,0.3 z m 1.2,-1.05 0.75,0 0,-0.3 -0.6,-0.3 -0.3,0.3 0.15,0.3 z m -5.7,-0.15 0.3,-0.3 -1.05,-1.05 -0.3,0.15 0,0.75 1.05,0.45 z m 1.65,-0.3 0.3,-0.15 0,-0.45 -0.75,0 0,0.45 0.45,0.15 z m -4.05,-0.6 0.15,0 0.15,-0.3 -0.15,-0.15 -0.15,0.15 0,0.3 z"
         inkscape:connector-curvature="0" />
      <path
         id="path4704"
         d="m 168.23,261.24 0,-1.05 1.65,-3.45 0.6,-1.95 2.4,-4.65 0.6,-1.65 20.7,-47.1 1.2,-0.6 0,-2.25 5.4,-12.3 1.05,-2.25 7.35,-16.65 1.5,-0.75 0,-2.85 3,-6.3 1.65,-0.75 0,-4.05 5.85,-11.55 0.6,-0.6 0,-1.65 2.85,-6 2.25,-2.85 0,-0.6 -1.8,1.05 4.95,-10.35 0.9,0 1.05,2.25 0,3.6 1.2,0 3.15,5.4 0.9,3.9 1.2,1.2 16.05,34.8 -1.5,3 2.25,-1.2 40.8,88.8 -21,0 -1.65,0.6 -7.2,-0.6 -1.65,-5.4 1.2,-2.25 -0.45,-0.6 -2.4,0 -1.2,-3.45 -1.35,-3.45 1.2,0 0.75,-1.65 2.25,0 3,-2.4 2.4,0 1.2,-1.2 0,-0.6 -1.8,0 -4.65,2.25 -1.8,0 -1.2,-1.05 0,-0.9 2.7,1.35 -1.5,-2.25 0,-1.05 -0.6,0 -4.05,3.9 -3.6,0 -1.65,-1.65 0,1.65 -11.7,0 -0.6,-0.45 -2.25,0 -1.2,-1.2 -1.65,0.6 -3,0.6 -0.75,0.9 -0.9,-2.1 -0.6,0 -1.2,2.1 -2.1,-1.95 -1.8,1.05 -1.2,0 -0.6,0.45 -19.95,0 -2.7,4.2 0,-1.05 -0.6,0 -0.6,0.45 1.05,2.25 -6.45,13.5 -14.25,0 -4.35,-0.6 -7.35,0.6 -0.6,-0.6 0.6,-0.6 z m 3.45,-1.05 0,0.45 0,-0.45 z m 97.2,0 0,0.45 0,-0.45 z m 21.75,0 0.6,0 0.6,-0.6 -1.2,0 0,0.6 z m -100.35,-1.2 0.45,0 0,-0.6 -0.45,0 0,0.6 z m 83.1,-1.2 0,0.6 0,-0.6 z m 3.3,0.6 0.6,-0.6 -0.6,0 0,0.6 z m -100.8,-2.4 -0.6,0 0.6,0 z m 96.9,-0.6 0.6,0 -0.6,-0.6 0,0.6 z m -89.4,-2.25 -0.6,0 0.6,0 z m 7.35,0 1.2,0 0,-1.2 -0.6,-0.6 -0.6,0.6 0,1.2 z m 95.4,0 -0.6,0 0.6,0 z m -11.55,-0.6 -0.6,-1.2 -0.6,0 0,1.2 1.2,0 z m -9.45,-1.35 0.6,-1.5 -0.45,0 -0.9,0.75 0.9,-3.15 -0.75,0 -1.95,2.7 2.55,1.2 z m -72.6,-1.5 0,-1.8 -1.2,0 0,1.8 1.2,0 z m 75.6,-1.8 0.75,0 0,-0.6 -0.75,0 0,0.6 z m -70.8,-1.2 0,-1.05 -1.35,0 0,1.05 1.35,0 z m -15.15,-0.9 0,-2.1 -2.25,0 0,1.35 2.25,0.75 z m 18,-2.1 1.65,0 1.2,-1.65 -1.2,0 -1.65,1.65 z m 60.45,0 -0.6,0 0.6,-0.6 0,0.6 z m -53.25,-0.75 5.55,-1.35 0,-1.35 -1.65,0 -1.2,1.2 -1.8,0.6 -0.9,0.9 z m 41.55,-1.5 -0.6,0 0.6,0 z m 16.35,0 1.65,0 0,-1.2 -1.65,0 0,1.2 z m -37.8,-1.2 1.8,0 -0.6,-0.6 -1.2,0 0,0.6 z m 28.35,0 0.6,0 -0.6,-0.6 0,0.6 z m -67.8,-1.05 -0.6,0 0.6,0 z m 15.6,0.15 0,-1.95 -1.05,-1.05 -0.75,2.25 1.8,0.75 z m 7.05,-0.15 1.65,0 0,-1.8 -0.75,0 -0.9,1.8 z m 60.45,0.15 0,-1.35 -1.8,0 -0.45,0.6 2.25,0.75 z m -66.3,-0.75 1.05,0 0,-1.2 -1.05,0 0,1.2 z m 2.85,-0.6 2.4,0 0,-1.8 1.8,-1.05 0,-1.2 -1.2,0 -1.65,-0.9 -1.35,1.5 0.6,0.6 0.75,2.25 -1.35,0.6 z m 53.55,0 1.05,-1.2 1.2,0 0,-1.05 -3.3,1.2 1.05,1.05 z m 5.1,0 1.2,0 0,-0.6 -0.6,0 -0.6,0.6 z m -49.95,-0.6 0.6,0 -0.6,-0.6 0,0.6 z m 15.15,0 0.45,0 0,-0.6 -0.45,0.6 z m -26.7,-1.2 0.45,-0.45 0,-1.2 -2.25,-0.6 0,-0.6 2.7,-1.35 -1.95,-2.1 4.5,-1.65 1.05,-3.15 1.95,-0.9 0.6,-1.2 -1.8,0 -1.35,0.6 -2.85,0 -0.6,-0.6 -0.45,1.2 -1.2,0.6 0.6,0.45 3.15,0 -0.9,1.8 0,0.45 -1.2,0 -2.85,-1.65 -0.6,1.2 -1.65,0.45 -1.35,-1.2 3,-1.05 0,-0.45 -1.65,-1.2 -2.55,0 0.75,1.65 -0.6,0.6 -2.4,0 0,2.25 0.6,0.45 1.65,-0.6 0.75,0.6 4.05,0 0,3 -1.95,0 0.9,1.8 0.45,1.8 1.8,0.6 1.2,0.45 z m 17.55,0 1.05,0 0,-0.45 -0.6,-0.6 1.2,-0.6 -1.65,-2.4 0.45,-0.6 2.4,0 0,-1.2 -3.45,0 -1.35,1.2 0,2.1 1.95,2.55 z m 3.45,0 0.45,-0.45 -1.05,0 0.6,0.45 z m 10.35,-0.45 0,0.45 0,-0.45 z m 25.05,-0.6 2.25,-1.2 -0.6,-0.6 -1.2,0.6 -1.05,0 0,0.6 0.6,0.6 z m -31.35,-0.6 0.9,-2.1 -1.5,0.9 -1.8,-1.8 -1.95,0 0.9,2.1 3.45,0.9 z m -16.35,-0.6 2.85,-1.8 -1.05,-1.2 -1.2,0 0,1.8 -0.6,0 -0.75,-2.4 -4.05,0 0,0.6 2.55,1.2 2.25,1.8 z m 53.4,-1.8 0.6,0 0,-0.6 -0.6,0 0,0.6 z m -37.05,-0.6 1.65,0 0,-1.2 -1.65,0 0,1.2 z m 40.65,-0.6 2.25,-0.6 0.75,-2.1 -2.4,-1.8 0,1.65 1.5,0.6 -2.1,2.25 z m -6.45,-1.8 2.25,0 0,-0.6 -1.05,0 -1.2,0.6 z m -53.4,-0.6 0.6,0 0.75,-2.1 -1.35,0 0,2.1 z m 2.25,-0.45 0.6,0 0.6,-0.6 -0.6,0 -0.6,0.6 z m -10.5,-0.6 0.6,0 -0.6,0 z m -10.5,-1.05 2.85,0 0,-3.45 3,0 0,-1.65 -1.8,0.75 0,-0.75 0.9,-0.9 -0.9,-2.25 -2.25,1.8 0,3.9 -1.8,2.55 z m -1.2,-0.6 0.9,-1.65 -1.95,0 0,0.6 1.05,1.05 z m 32.7,0 1.2,-0.6 -1.2,-1.05 0,1.65 z m 3.45,-0.6 1.2,0 0,-1.05 -1.2,0 0,1.05 z m 38.1,0.3 0.75,-0.75 -0.75,-0.9 -0.9,0.9 0.9,0.75 z m -33.45,-1.35 0,-0.6 -0.6,-0.6 0,0.6 0.6,0.6 z m -42.9,-0.6 1.5,-1.65 -1.5,-0.6 0,2.25 z m 27.75,0 1.2,-1.2 0,-1.05 -0.6,-0.6 1.2,-0.75 5.25,0 -0.6,0.75 -0.45,1.05 1.35,-0.75 1.5,0.75 1.05,-0.9 -1.65,-0.9 19.05,0 4.2,-0.6 -6.6,-17.4 0,-1.8 -1.05,-1.05 -4.05,-10.2 0,-2.7 -1.2,-1.8 -1.65,-2.85 1.05,-1.05 -1.8,-1.65 -1.95,-6.45 -5.4,14.4 -1.2,0 -0.6,0.6 1.35,0.75 -7.35,19.5 -1.65,0 0,0.6 0.6,0.75 0,1.2 -2.25,-1.95 0,3 1.35,0.6 -1.65,4.8 -1.95,2.7 0.45,0.6 0.6,0 1.2,0.75 2.25,0.75 0,2.1 z m 25.5,-0.6 0.6,-0.6 0,-0.6 -0.6,0 -0.6,0.6 0.6,0.6 z m -42.9,-0.6 1.2,0 0.6,-0.6 4.5,0 4.2,-2.1 0,-0.9 -2.4,0 -3,1.65 -1.35,-1.35 -1.35,1.65 -2.4,0 0,1.65 z m -8.25,-1.05 0,-0.6 -0.45,0 0.45,0.6 z m 7.65,-1.95 1.2,-2.25 1.8,-0.6 -1.5,-2.1 1.95,0.9 3.45,0 0,1.35 2.4,-0.75 0.75,-0.75 1.65,0.75 0,-0.6 -3.3,-3.3 1.95,-0.75 0,-1.05 -1.05,-0.6 -0.6,-0.6 -1.2,0 0.9,1.5 -1.95,1.95 -0.6,1.2 -1.2,-1.2 -0.6,0 0,1.2 -3.15,0 -0.9,1.65 -1.8,0.6 0.75,0.6 0.45,2.25 0.6,0.6 z m 69.15,0 2.4,0 0,-1.2 -3.3,-0.45 0.9,1.65 z m -66.75,-1.2 0.6,0 0,-0.45 -0.6,0 0,0.45 z m -7.05,-1.05 0.45,-1.2 0,-1.5 3.6,-1.2 0,-0.75 -1.8,0 -0.9,-1.65 2.7,0 1.2,1.05 0.9,0 0.9,-1.65 1.65,-1.95 0,-0.6 -1.05,0 -1.8,1.95 0,-1.95 -0.6,0 -2.4,2.55 -1.2,-1.2 -1.2,0 -1.35,2.1 1.65,0.9 -0.75,1.65 0,3.45 z m 72,-1.2 1.2,-1.2 -1.2,0 0,1.2 z m 4.2,-1.65 0.6,0 0,-0.6 -0.6,0 0,0.6 z m -59.25,-3 0,-1.05 -0.6,0 0,0.6 0.6,0.45 z m 61.05,-0.45 0,0.45 0,-0.45 z m -66.9,-1.2 -0.6,0 0.6,0 z m 3.9,-1.35 1.95,-0.6 0,-1.2 -2.7,0.9 0.75,0.9 z m 44.25,0 0.6,0 0,-0.6 -0.6,0 0,0.6 z m -39.45,-0.6 0.6,-0.45 0,-0.6 -0.6,0.6 0,0.45 z m -18.75,-1.05 0,-0.6 -1.05,-1.2 0,1.8 1.05,0 z m 60.45,0 0,-1.2 -2.25,0 0.6,0.6 1.65,0.6 z m -40.5,-1.2 1.05,-0.6 0,-0.6 -1.05,1.2 z m -11.1,-0.6 0.6,0 -0.6,-0.6 0,0.6 z m 6.45,0 1.8,0 -1.2,-1.65 0,-0.6 -0.6,-0.6 -1.8,1.2 0,1.05 1.2,-0.45 0.6,1.05 z m 44.1,-2.25 2.25,0 0,-1.2 -0.6,0 -1.65,-0.9 0,2.1 z m -54.6,-0.3 3.75,-1.95 -2.55,-1.2 0,1.05 -1.2,0.6 0,1.5 z m 8.1,-0.9 0,0.6 0,-0.6 z m 59.25,0 0,0.6 0,-0.6 z m -69.6,0 0,-0.6 -0.75,0 0.75,0.6 z m 9.75,-1.2 0,0.6 0,-0.6 z m 4.2,0.6 1.05,0 -1.05,-0.6 0,0.6 z m 2.25,0 1.8,0 -0.6,-1.65 0,-0.6 -1.2,0 0,2.25 z m 36.6,-1.05 0.6,0 0,-0.6 -0.6,0 0,0.6 z m -34.35,-1.2 1.2,-1.2 -1.2,0 0,1.2 z m -15,-1.2 0,0.6 0,-0.6 z m 5.7,0.9 1.8,-0.9 -0.6,-0.6 -1.2,0.6 0,0.9 z m 34.8,-0.3 0.6,0 0,-0.6 -0.6,0 0,0.6 z m -38.25,-0.6 0.6,0 0,-0.6 -1.2,0 0.6,0.6 z m 43.65,-1.8 1.05,0 -1.05,-0.6 0,0.6 z m -43.65,-0.6 0.6,0 0,-0.6 -0.6,0 0,0.6 z m 4.65,-1.8 0,1.2 0,-1.2 z m 31.95,0.6 0.6,0 0,-1.05 -1.8,0 1.2,1.05 z m 15.6,-1.65 0.6,0 -0.6,-0.6 0,0.6 z m -53.4,-0.6 0.6,0 2.4,-2.25 -1.8,0 -1.2,2.25 z m 20.85,-0.9 -0.9,-2.55 -0.6,1.2 -1.35,0.45 2.85,0.9 z m 18,-0.9 1.8,0 1.05,-0.9 -2.25,-4.35 0,1.8 0.6,1.2 0,1.2 -1.2,1.05 z m -33,-1.65 0.6,0 -0.6,-0.6 -1.2,0 1.2,0.6 z m -6.3,-0.6 0.45,0 0,-1.2 -0.45,0.6 0,0.6 z m 55.8,-0.6 0.6,0 0,-0.6 -0.6,0.6 z m -34.8,-0.6 1.05,-0.45 0,-0.6 -2.25,0 1.2,1.05 z m 15.45,0 1.2,0 0,-0.45 -1.2,0 0,0.45 z m 9.9,0 -0.45,0 0.45,0 z m 3.45,0 0.6,0 0,-0.45 -0.6,0 0,0.45 z m -14.4,-1.8 0.45,0 0,-0.45 -0.45,0.45 z m -30.3,-1.05 0.6,0 0,-0.6 -0.6,0 0,0.6 z m 15.9,0 0.45,0 0,-0.6 -0.45,0 0,0.6 z m 16.65,0 0,-1.65 -0.6,0 -1.2,1.05 1.8,0.6 z m 2.25,0 -0.6,0 0.6,0 z m -26.55,-1.05 -0.6,0 0.6,0 z m 37.65,0 -0.6,0 0.6,0 z m 2.85,-0.6 0,0.6 0,-0.6 z m -48.75,-0.6 0.6,0 0.6,-0.6 -1.2,0 0,0.6 z m 36,-1.8 0,1.2 0,-1.2 z m 8.25,0.6 -0.6,0 0.6,0 z m 2.25,-1.05 1.2,0 0,-0.6 -1.2,0 0,0.6 z m -2.85,-7.65 0.6,0 -0.6,-0.6 0,0.6 z m -29.7,-3.45 0.75,0 0.6,-1.2 -1.35,0 0,1.2 z m 2.4,-1.8 0.6,0 0,-0.6 -0.6,0.6 z m -8.7,-2.85 0.6,0 1.05,-1.2 -1.65,0 0,1.2 z m 0,-2.4 -0.6,0 0.6,0 z m 3.45,-2.4 1.2,0 0,-2.25 -0.6,0 -0.6,1.2 -0.6,0.45 0.6,0.6 z m 18.6,0 0.6,0 -0.6,-0.6 -0.6,0 0.6,0.6 z m -12.75,-0.6 0.6,0 0,-0.45 -0.6,0.45 z m 16.8,-0.45 0,0.45 0,-0.45 z m -12.15,-1.2 -0.6,0 0.6,0 z m -10.5,-1.2 0,0.6 0,-0.6 z m 15,0.6 0,-0.6 -0.6,0 0.6,0.6 z m 6,0.45 1.5,-1.5 -2.7,-0.75 1.2,2.25 z m -18.15,-1.05 1.35,-1.05 0.6,-1.2 1.05,-1.2 -1.05,0 -2.55,2.4 0.6,1.05 z m 11.55,-1.65 1.2,0 -0.6,-0.6 -0.6,0 0,0.6 z m 3.6,0 1.65,0 0,-0.6 -1.05,0 -0.6,0.6 z m -6.3,-1.8 0.6,0 0,-0.6 -0.6,0.6 z m 13.2,-1.05 0.6,0 -0.6,-0.6 0,0.6 z m -7.8,-1.5 0.9,-1.05 1.65,-1.05 0,-1.2 1.8,-1.2 -1.2,-1.65 -0.6,0 -0.75,2.55 -2.7,2.55 0.9,1.05 z m -7.8,-1.65 0.6,0 -0.6,-0.45 -0.6,0 0.6,0.45 z m 11.55,-0.45 2.25,0 0,-0.6 -1.65,0 -0.6,0.6 z m -0.6,-5.25 0,-0.45 -0.6,0 0.6,0.45 z m -8.55,-1.05 -0.6,0 0.6,0 z m 8.55,-0.45 0.6,0 0,-0.6 -0.6,0.6 z m -2.85,-0.6 1.2,0 0.6,-0.6 -0.6,-0.6 -1.2,1.2 z m -3,-1.8 -0.45,-1.2 -0.6,0 0,1.2 1.05,0 z"
         inkscape:connector-curvature="0" />
      <path
         id="path4706"
         d="m 318.96,230.04 2.85,0.45 0,-0.6 -2.85,-0.9 -0.45,-97.95 1.05,-1.65 -0.9,-1.65 0,-7.5 3.15,-0.3 1.35,0.3 -0.6,1.65 0.75,0 1.8,-1.65 4.05,0 3.6,-0.3 2.25,0.3 1.2,-0.3 2.4,0.3 5.7,0 0,2.1 0.75,0.6 1.05,-0.6 -0.75,-1.65 1.2,0 0,16.5 -0.9,0 0,0.6 0.9,0.6 0,36.15 -1.65,0.9 0,0.6 1.65,-0.45 0,20.1 -0.9,0 -0.75,1.05 1.05,1.8 -1.05,0.45 0.6,1.5 -0.75,0 -0.9,0.75 0.9,0.45 0.9,-0.9 0.45,0 0,1.8 -1.2,0 -0.6,1.95 -1.8,0 0,0.9 2.55,1.35 1.05,-3 0.45,0.75 0,4.35 -0.45,1.35 0.45,1.05 0,3.75 -0.6,1.5 0.6,1.65 -0.45,1.95 -0.75,0.9 0,0.6 1.2,0.75 0,27 -1.05,1.8 0.6,1.65 0,9.3 -1.05,0.6 -2.55,-1.95 0,-1.2 -1.8,0 1.05,0.9 0.75,1.65 -0.75,0.45 -3.45,-0.45 -2.85,0 -0.6,-1.2 -0.6,0 -0.9,1.65 -14.4,0 0,-32.55 z m 20.7,28.95 0.3,0 0,-0.45 -0.3,-0.45 0,0.9 z m -2.4,-0.45 0.45,0 0.6,-0.75 -1.05,0 0,0.75 z m -4.95,-0.45 0.9,0 0,-3 -0.45,-1.2 -0.9,0 0,2.4 -0.45,0.3 0,0.75 0.9,0.75 z m -7.2,-0.75 0,0.45 0,-0.45 z m 0.6,-1.05 0.3,0 0,-0.3 -0.3,0 0,0.3 z m 3.45,-0.75 0.45,0 0,-0.45 -0.6,0 0.15,0.45 z m -4.95,-1.65 0,0.45 0,-0.45 z m 10.05,0.3 1.95,-0.9 0,-1.05 -2.55,0 0,1.2 0.6,0.75 z m 5.1,-0.75 -0.3,0 0.3,0 z m -10.35,-0.3 0.6,-0.3 -0.6,0 0,0.3 z m 1.65,-1.95 0.45,-1.8 0.75,-0.6 0.45,-1.2 -0.6,-0.6 -2.1,1.95 0,2.25 1.05,0 z m 11.1,0 0.45,-0.6 1.05,-1.05 -0.75,-0.6 -0.75,0.9 0,1.35 z m -7.35,-1.35 2.7,-0.45 -0.9,-1.05 -2.55,0 0.3,0.45 0.45,1.05 z m -11.85,-0.9 0.75,0 0,-1.2 -0.45,1.05 -0.3,0.15 z m 6,-1.35 1.5,-0.6 0,-0.45 -1.05,0 -1.2,0.3 0.75,0.75 z m 6.9,-1.95 1.8,0 0,-1.05 -1.8,0 -0.45,0.6 0.45,0.45 z m -14.85,-2.25 0.15,0 -0.15,-0.15 0,0.15 z m 12.3,-0.15 1.05,-0.45 -0.3,-0.45 -1.35,0 0,0.45 0.6,0.45 z m 10.35,-0.45 0,-1.8 -0.3,-0.45 -0.6,2.25 0.9,0 z m -21.75,-0.45 0.3,0 0,-0.45 -0.3,0 0,0.45 z m 17.55,-0.9 0,0.45 0,-0.45 z m -5.1,-0.45 0.6,0 0.9,-0.9 0,-1.05 -0.45,0 -0.45,0.9 -0.6,0.6 0,0.45 z m 8.25,-1.05 0.3,0 -0.3,-0.45 0,0.45 z m -19.35,-1.35 0.45,0 0.6,-0.75 -0.6,-0.3 -0.45,0.3 0,0.75 z m -3.15,-1.05 0.45,0 0,-0.45 -0.45,0.45 z m 4.65,-0.45 0.75,0 0,-0.45 -0.3,-0.45 -0.45,0.45 0,0.45 z m -1.05,-1.8 0.9,-0.9 1.2,-0.45 -0.6,-0.75 -1.5,0.75 0,1.35 z m 9.3,-0.45 0,-0.45 -0.3,0 0.3,0.45 z m 0.6,-1.05 0.45,0 0,-0.9 -0.45,-0.45 0,1.35 z m 3.75,-0.45 1.2,0 0.9,-2.4 0.3,0 0.6,1.95 1.35,-1.35 -1.65,-3.3 -0.3,1.05 -1.05,0.3 -0.15,0.45 -0.9,0.45 0,0.9 -2.25,0 0,0.9 1.95,1.05 z m -5.55,-1.65 0,-0.75 -0.3,0.45 0.3,0.3 z m 3,-0.75 0,-0.75 -1.65,-0.75 0,1.5 1.65,0 z m -8.4,-0.3 -0.3,0 0.3,0 z m -0.9,-1.2 0.9,-0.45 -0.9,0 0,0.45 z m 12.6,-0.3 0.6,-1.35 1.05,-0.45 0.3,-0.45 -0.3,-1.05 0,-2.4 -0.9,-0.6 -0.75,0.6 0.9,2.1 -0.9,0.3 0.45,0.45 0,0.6 -1.65,0.6 0.45,1.05 0.75,0.6 z m -2.25,-3.6 0.6,0 -1.5,-2.1 -0.6,0.45 0.45,0.9 0.6,0.15 0.45,0.6 z m -4.35,-0.75 1.2,0 0.3,-0.9 0.6,-0.45 0,-0.45 -0.6,0 -0.45,0.9 -1.65,-0.6 0,0.6 0.6,0.9 z m 5.85,-0.9 0,-0.45 -1.05,-0.45 -1.05,-1.5 -0.45,0 0,1.05 1.8,1.95 0.75,-0.6 z m -12.15,-0.45 0.3,0 0.45,-0.45 -0.45,-0.45 -0.3,0 0,0.9 z m 15.15,0 0.75,0 1.05,-0.9 0,-0.9 -1.65,-0.6 -0.45,1.35 0.3,1.05 z m -4.05,-3.3 1.35,0 0.45,-1.05 0.6,-0.45 -0.15,-0.9 0.15,-1.2 -1.35,0.75 0,0.9 -1.05,1.35 0,0.6 z m 7.95,-1.05 0.9,-0.45 0.9,0 0,-1.05 -0.9,-1.05 -0.9,0 0,0.75 0.6,0.3 -0.6,0.6 0,0.9 z m -22.65,-0.45 0.45,-0.6 -0.45,-0.45 -0.6,0.45 0.6,0.6 z m 1.65,-0.45 0,-1.35 -0.3,0 0,0.75 0.3,0.6 z m -3.45,-2.1 0.3,0 0,-0.15 -0.3,0 0,0.15 z m 1.2,-0.6 0.6,0 -0.6,-1.95 -1.2,0 0,0.6 1.2,1.35 z m 2.25,-0.45 0,-0.9 -0.6,-1.35 -0.75,0 0,1.2 1.35,1.05 z m 10.95,-11.1 0.75,-1.35 -1.95,-0.9 -0.3,0.45 1.5,1.8 z m 6.9,-0.15 0.6,0 -0.15,-0.45 -0.45,0 0,0.45 z m 2.25,-4.8 0,-0.45 -0.45,0 0.45,0.45 z m -4.35,-1.2 0.75,0 0,-0.45 -1.2,-0.9 0,0.75 0.45,0.6 z m 3.15,0 0.45,0 0,-0.6 -0.45,-0.45 -0.45,0.6 0.45,0.45 z m 1.8,-0.3 0.3,0 0,-0.75 -2.1,-2.4 -0.45,0.75 2.25,2.4 z m -3.9,-0.75 0.6,0 0,-1.05 -0.6,0 0,1.05 z m -7.35,-0.6 0.3,0 0,-0.45 -0.3,-0.15 -0.45,0.15 0.45,0.45 z m -11.1,-0.45 0.3,0 0.3,-0.15 -0.6,0 0,0.15 z m 1.35,-1.05 0,-0.75 -0.75,-0.45 -0.6,0 0,0.45 1.35,0.75 z m 2.25,0 0.75,0 0,-0.75 -1.8,-1.2 0,1.2 1.05,0.75 z m 19.2,-0.75 0.75,-1.65 0.6,-0.45 0,-1.8 -1.05,0 -0.45,1.8 -0.9,0.6 0,0.75 1.05,0.75 z m -15.9,-2.1 0.45,0 0,-0.75 -0.45,-0.45 -0.3,0.75 0.3,0.45 z m 1.95,-0.45 0,-1.35 -0.45,0 0.45,1.35 z m -3.6,-2.1 0.9,-0.6 0.75,0 0,-0.9 -0.9,-1.05 -0.9,0 1.05,1.5 -0.9,0.45 0,0.6 z m 3.6,-1.35 0.45,-0.15 -1.05,-1.95 -0.45,0 0,1.05 1.05,1.05 z m -2.7,-3.45 0,0.3 0,-0.3 z m 1.8,-3.3 -0.15,0.15 0.15,-0.15 z m 11.7,-4.65 0.75,-0.75 -1.95,-0.6 0,0.6 0.6,0.3 0.6,0.45 z m -20.1,-2.4 0.45,-0.15 -0.45,-0.6 -0.15,0 0,0.6 0.15,0.15 z m 21,-9 0.75,0 0,-0.6 -0.75,0 0,0.6 z m -16.95,-3.3 -0.45,0 0.45,0 z m 7.05,-3 0.75,0 0,-1.05 -0.75,0 0,1.05 z m -5.4,-2.55 0.45,-0.45 0,-0.15 -0.45,0 0,0.6 z m -0.75,-1.05 1.2,-0.45 0,-1.5 -1.2,0 0,1.95 z m 6.15,0 0.45,0 0,-0.45 -0.45,0 0,0.45 z m 9.9,0 0.75,0 0,-3.15 -0.6,-0.3 -1.2,1.05 0,1.05 0.6,0.6 0.45,0.75 z m -21,-3.15 0.75,-0.6 -0.3,-0.3 -1.05,0.3 0.6,0.6 z m 16.95,0 0,-0.9 -0.6,0.6 0.6,0.3 z m -3.75,-3.45 -0.75,0 0.75,0 z m -11.1,-0.3 0.9,0 0.45,-1.2 -0.45,0 -0.9,0.9 0,0.3 z m 2.85,-0.75 0,-0.9 -0.6,0 0,0.9 0.6,0 z m 9.75,0 0.75,-0.9 -0.75,-0.3 -0.6,0.45 0.6,0.75 z m 8.1,-0.9 0,-0.9 -0.6,0 0,0.9 0.6,0 z m -18.45,-0.9 0.6,0 0,-0.45 -0.6,0 0,0.45 z m -2.85,-0.45 0.3,0 0,-0.3 -0.3,0 0,0.3 z m 13.65,-1.95 0.6,0 0.45,-0.6 -0.45,-0.45 -1.95,0 0,0.45 1.35,0.6 z m -14.4,-1.65 0,0.3 0,-0.3 z m 4.2,0 0.3,0 0,-0.45 -0.3,0 0,0.45 z m 19.65,-1.05 0.3,-0.45 0,-1.05 -0.3,0 -0.45,0.6 -1.05,0.45 1.5,1.5 0,-1.05 z m -18,-1.35 1.2,0 0,-0.6 -0.45,0 -0.75,0.6 z m 11.25,0 0,-0.15 -0.3,0 0.3,0.15 z m -9,-0.6 0.9,0 0,-0.3 -0.45,0 -0.45,0.3 z m 0.6,-1.35 0.6,-1.5 -1.2,0.75 0.6,0.75 z m -3,-0.6 0.15,0 0,-0.45 -0.15,0 0,0.45 z m 17.55,-1.5 0.75,-0.45 -0.75,-1.2 -0.45,0 0,1.35 0.45,0.3 z m -23.55,-0.75 1.05,0 0.9,-0.9 -0.6,-0.6 -1.35,1.5 z m 9.3,-0.3 1.2,-1.95 -1.2,0 -1.5,0.75 0,0.6 1.5,0.6 z m 15.6,-0.6 0,0.45 0,-0.45 z m -21.9,0 0.6,0 -0.45,-1.95 -0.15,0 0,1.95 z m 16.05,-1.35 0,0.75 0,-0.75 z m -19.05,-0.6 0.3,0 0,-0.6 -0.3,0 0,0.6 z m 2.55,-3.15 1.05,0 0,-1.2 -1.65,0.6 0.6,0.6 z m 16.5,-0.6 0.45,-0.15 -0.75,0 0.3,0.15 z m -3,-1.2 0,0.3 0,-0.3 z m 8.4,-0.75 0.45,0 0,-0.3 -0.45,0 0,0.3 z m -18.75,-0.75 0.3,0 0.15,-0.6 -0.15,-0.15 -0.3,0.15 0,0.6 z m 2.1,-0.6 0,-0.6 -0.45,0.45 0.45,0.15 z m 10.65,-1.05 0.6,0 0.6,-0.6 -1.5,-1.65 -0.3,0 0,1.65 0.6,0.6 z m -11.1,-0.3 0.6,0 0,-0.9 -0.6,0 0,0.9 z m -8.85,-0.3 1.05,-0.3 -1.05,0 0,0.3 z m 6,0 0.3,0 0.45,-0.3 -0.45,-0.3 -0.3,0 0,0.6 z"
         inkscape:connector-curvature="0" />
      <path
         id="path4708"
         d="m 483.35,258.84 -0.9,0 0,-1.2 0.75,-1.05 -1.05,-1.5 0.6,-0.9 0.75,-0.6 0,-0.9 -0.75,0 -0.75,0.45 0.45,-3.6 1.05,-0.3 -0.3,-1.2 -0.75,-0.9 0,-1.8 0.45,-1.05 -0.75,-1.65 0.6,-4.2 -0.3,-0.3 0,-1.2 0.75,0 1.05,-0.75 1.8,0.75 1.5,-0.75 1.05,1.2 1.65,0 -3.3,-3.6 0,-1.35 1.2,-1.35 0,-1.35 -0.75,-0.75 -0.45,-2.1 -0.9,-1.5 1.65,-1.95 1.65,0 1.8,-1.2 0,-2.7 -0.45,0 -0.45,0.75 -1.35,0 0,0.45 0.75,0.75 -1.5,0.75 -0.75,0.75 -1.5,0.75 -1.65,2.55 -1.35,0.6 -0.45,-0.45 0,-4.8 1.5,-0.9 -1.5,-0.75 0,-9.75 0.3,-0.3 0,-0.9 -0.3,-0.3 0,-23.7 0.75,-0.9 -0.75,-1.95 -0.45,-36.15 -28.2,-0.45 -2.1,-2.7 -0.45,0.6 0,2.1 -4.5,0 -1.35,-1.35 -0.75,1.35 -0.75,0 0,-24.6 0.75,-0.75 8.4,0 1.2,1.5 2.1,0.75 0.6,1.35 0.9,-0.75 -0.6,-1.8 -0.75,-1.05 72.6,0 1.2,0.75 0.75,-0.75 16.5,0 0,25.35 -37.5,0.45 -0.9,2.4 -1.2,-0.6 0,0.9 1.8,1.8 0,50.55 -1.05,0.75 0,0.45 1.05,0 -0.45,60.45 -16.65,0 -1.05,-1.2 -0.9,1.2 -6.45,0 -1.5,-0.6 0.6,-3.3 z m 7.8,0.45 0.9,0 -0.6,-2.25 -0.9,0.9 0.6,1.35 z m -4.5,-0.75 0,-1.5 -0.45,-0.45 -0.3,0.45 0,1.5 0.75,0 z m 5.55,-4.35 0,-1.05 -0.3,0 0,0.45 0.3,0.6 z m -3.6,-3.3 1.35,0 0,-1.35 -1.35,0 0,1.35 z m -3.3,-2.1 0.6,-0.3 0,-1.35 -1.65,0 0,0.9 1.05,0.75 z m 7.65,-1.65 0.45,-0.6 0,-0.75 -0.45,-0.45 -0.3,0.45 0,0.75 0.3,0.6 z m 5.1,-0.6 0.9,0 0,-1.2 -0.9,0 0,1.2 z m -8.1,-1.5 0,0.3 0,-0.3 z m 0.3,-2.55 0,-1.05 -0.3,0 0,0.6 0.3,0.45 z m -6.75,-1.95 1.35,0 2.1,-0.9 0,-1.2 -3,0 -0.45,2.1 z m 12,-1.05 0.3,0 0,-0.45 -0.6,0 0.3,0.45 z m -3.45,-1.95 0.75,-0.75 -0.9,-1.5 -0.6,0.9 0.75,1.35 z m 1.8,-3 0.3,-0.45 0,-3.9 -0.3,0 -0.6,0.9 -0.6,2.7 1.2,0.75 z m -11.4,-4.35 1.05,-1.2 1.8,-0.75 1.65,1.5 -1.65,2.7 -0.75,1.35 -2.1,-1.2 0,-2.4 z m 14.55,2.55 0,0.45 0,-0.45 z m 2.55,-0.75 0,-1.35 -2.25,-0.75 0,2.1 2.25,0 z m 1.5,-2.7 -0.45,-0.75 -0.3,0 0,0.75 0.75,0 z m -5.85,-0.75 0.6,0 0.3,-1.35 -0.9,-0.3 -1.05,-1.05 -0.3,0.6 0,0.75 1.35,1.35 z m -6.3,-1.65 0,-1.05 -0.3,0.6 0.3,0.45 z m 4.05,-5.55 0.9,0 0,-1.8 -1.2,0 -0.6,0.6 0.9,1.2 z m 3.6,-1.35 1.05,0 0.45,-1.35 0.9,-0.9 0,-1.35 -1.65,0 -0.3,1.35 -1.2,1.35 0.75,0.9 z m -8.4,-0.45 0.45,0 0,-0.45 -0.45,0 0,0.45 z m -4.2,-0.45 0,-1.35 -0.75,0 0,1.35 0.75,0 z m 13.05,-4.8 -0.45,0 0.45,0 z m -1.05,-3.6 2.1,-4.2 -0.9,-0.9 -1.35,1.5 0.3,0.9 -0.6,1.95 0.45,0.75 z m -8.25,-1.2 0,-0.75 -1.05,-0.45 0,1.2 1.05,0 z m 3,-0.75 0.75,0 0.45,-0.45 -0.45,-0.45 -0.75,0 0,0.9 z m 10.95,-0.75 1.35,-1.5 -3.15,-1.2 0,1.95 1.8,0.75 z m 4.8,-1.8 0.75,0 -0.45,-0.3 -0.75,0 0.45,0.3 z m -14.55,-1.5 1.05,0 -0.45,-1.5 -0.6,0 0,1.5 z m 5.85,-1.95 1.5,-1.05 -1.2,-1.05 -1.5,0 0,1.35 1.2,0.75 z m -6.6,-0.45 0.3,0 0,-0.45 -0.3,0 0,0.45 z m -6.45,-0.3 1.65,-0.75 -0.9,-0.75 -0.75,1.5 z m 3.9,-0.9 0.75,0 0.6,-0.45 -1.65,-2.4 1.95,0 1.05,-0.9 -1.35,-1.2 -1.8,0.45 0,1.35 -0.45,0.9 0.9,2.25 z m 4.35,-0.45 1.2,0 0,-1.65 -1.65,0.6 0.45,1.05 z m 5.55,-1.65 1.05,0 0.3,-0.3 -1.35,0 0,0.3 z m -14.55,-0.75 0.3,0 0.6,-0.75 -0.9,0 0,0.75 z m 3.75,-2.1 0,-1.8 -1.05,0 0,1.8 1.05,0 z m 7.05,-0.75 1.95,-1.65 -0.9,-0.6 -1.05,1.2 0,1.05 z m -6.15,-1.5 0.3,0 -0.3,-0.45 0,0.45 z m 14.85,-1.2 0.45,0 -0.45,-0.3 0,0.3 z m 1.05,-2.1 0.75,0 -0.45,-0.3 -0.3,0 0,0.3 z m -15.9,-1.65 0.3,0 1.05,-1.05 -1.35,0 0,1.05 z m 6.15,-1.05 0.45,0 0,-0.75 -0.45,0 0,0.75 z m 12,-0.3 0.45,0 0,-0.75 -0.45,0 0,0.75 z m -20.85,-0.75 0,-1.8 -1.95,0 0,1.8 1.95,0 z m 4.35,-3.15 1.65,-0.9 0,-0.9 -1.65,0 0,1.8 z m -6.75,-0.9 0.45,0 0.3,-0.6 -0.75,0 0,0.6 z m 15.45,-1.35 0.6,-0.3 -0.6,-0.45 -0.45,0 0,0.45 0.45,0.3 z m -3.75,-2.25 0,0.6 0,-0.6 z m 5.1,0 0.3,0 0,-0.45 -0.3,0 0,0.45 z m 0,-1.2 0,-0.9 -0.45,0 0,0.6 0.45,0.3 z m -3.75,-1.35 0,-1.05 -0.6,-0.6 1.05,-1.35 1.5,-3.3 0,-1.5 -0.45,-0.3 -1.5,1.8 -0.45,1.2 -0.6,1.35 -0.3,1.65 0.6,1.8 0.75,0.3 z m -11.25,-0.3 1.35,0 1.95,-1.35 0,-1.2 -1.95,1.35 -1.35,0 -0.45,0.45 0.45,0.75 z m 5.85,-1.8 1.05,0 0,-0.9 -0.75,-1.2 0,-0.9 1.5,1.35 0.45,-2.1 -0.75,-0.75 -1.35,0 -1.2,2.25 1.05,2.25 z m 9.45,-2.1 -0.3,0 0.3,0 z m -10.35,-2.85 0,-1.05 -0.9,-0.45 0,1.5 0.9,0 z m 4.95,0 -0.45,0 0.45,0 z m 12.45,-1.5 0.75,0 -0.6,-2.1 -1.05,0 0,1.35 0.9,0.75 z m -16.5,-0.45 0.3,0 0.45,-0.3 -0.45,-0.45 -0.3,0.45 0,0.3 z m 6.9,-1.65 0.45,0 -0.45,-0.45 0,0.45 z m -0.3,-2.25 0.75,0 0,-0.6 -0.45,0 -0.3,0.6 z m -2.55,-2.55 0,-1.05 -2.55,-1.05 -0.75,0.75 0,1.35 3.3,0 z m 1.8,-3.9 0,-1.2 -1.8,0 0.6,0.3 1.2,0.9 z m 6.15,-0.45 0.9,0 -0.6,-2.55 -1.65,0 0,1.35 1.35,1.2 z m -2.1,-4.8 0.3,0 0,-0.75 -0.3,0 -0.45,0.45 0.45,0.3 z m -15.15,-6.45 0,-0.75 -0.6,0.3 0.6,0.45 z m 58.65,-1.2 0,-0.9 -2.1,0 0.3,0.6 1.8,0.3 z m -96.6,-0.9 -0.3,0 0.3,0 z m 5.55,-0.15 0.9,-1.2 0,-0.75 -1.05,0 -0.6,1.2 0.75,0.75 z m 10.2,-0.75 2.55,0 0,-1.05 -2.4,-0.9 -0.75,1.5 0.6,0.45 z m 74.85,-1.2 0.3,-0.6 -0.3,0 0,0.6 z m 3.9,-2.55 0.3,0 0,-1.05 -0.3,0.75 0,0.3 z m -74.25,-0.3 0.45,0 0,-1.2 -0.9,0 0.45,1.2 z m 6.6,0 0.75,0 -0.6,-2.7 -1.35,0 0,1.2 1.2,1.5 z m 49.95,-1.2 0.75,0 0,-0.75 -0.75,0 0,0.75 z m -36.15,-1.5 0,0.3 0,-0.3 z m 35.7,0.3 0,-0.3 -0.45,-0.6 0,0.6 0.45,0.3 z m -65.4,-0.3 0.3,0 0,-0.6 -0.3,0 0,0.6 z m 61.5,-0.6 1.35,-0.6 0,-0.9 -2.25,-1.2 -1.2,0 0,2.4 2.1,0.3 z m -47.55,-1.5 0.3,0 0,-1.2 -0.3,0 0,1.2 z m 10.35,-0.45 0.75,0 0,-1.5 -0.45,-1.35 -3,-0.75 -1.05,-0.3 0,0.9 1.35,1.2 1.8,0.6 0.6,1.2 z m 40.2,-2.7 0,-0.9 -1.2,0 1.2,0.9 z m 11.4,0 0.45,0 0,-0.9 -0.45,0.6 0,0.3 z m 6,0 0.75,0 0,-0.9 -0.75,0 0,0.9 z m -25.8,-1.2 0.3,-0.6 0,-0.3 -0.3,0 0,0.9 z m 14.1,0 0.9,0 0,-0.6 -0.9,-0.75 -0.75,0.6 0.75,0.75 z m -80.7,-0.6 0.9,0 -0.9,-2.7 -1.2,0 0,1.35 1.2,1.35 z m 13.35,-2.25 0.45,-0.45 -0.45,0 0,0.45 z m 70.5,0 0.45,-0.45 -0.45,-0.3 -0.3,0 0,0.3 0.3,0.45 z m -7.95,-1.95 0.6,-0.75 -0.6,-0.6 -0.75,0.6 0.75,0.75 z m -77.85,-0.6 0.3,0 0,-0.3 -0.3,-0.45 -0.45,0.45 0.45,0.3 z m 96,-0.3 0.3,0 0,-0.45 -0.3,0.45 z m -41.1,-1.35 0,0.6 0,-0.6 z m -55.95,0 -0.3,0 0.3,0 z m 8.7,-2.1 0.75,0 -0.75,0 z"
         inkscape:connector-curvature="0" />
      <path
         id="path4710"
         d="m 570.17,237.84 0,-116.7 0.45,-0.45 1.05,0.9 1.05,-0.9 35.4,0 1.65,0.9 0.3,-0.9 48.9,0 0,21.15 -6.75,0 2.7,-1.65 1.35,0 0,-0.9 -0.75,0 -0.6,-1.35 -1.35,1.2 -1.8,1.2 -1.8,-2.7 0,2.25 2.4,0 -0.6,1.2 -1.2,0.75 -2.1,0 0.3,-0.45 0,-0.75 -1.95,0 -0.3,1.2 -25.2,0 1.35,-1.35 -0.6,-0.6 -2.25,1.95 -21.9,0.3 0,32.55 53.1,0 0.75,0.9 0,4.65 -0.6,-3 -1.5,3 0,0.75 0.3,0.45 0.6,1.35 0.45,0 0.75,-1.8 0,16.95 -53.85,0.3 -0.3,15 -1.05,1.5 1.05,1.95 0,15.9 -0.45,1.35 0,2.7 -1.35,0.45 0,0.75 1.35,0 0.75,1.05 20.85,0.3 0,0.75 -0.45,0.45 0,0.6 1.2,-0.6 0.75,0 0.6,-1.35 1.35,0.6 1.05,-0.45 29.7,0 0.75,0.75 0.75,-0.75 7.05,0 0,14.25 -1.2,0 0,1.2 0.45,0.75 0,0.9 -1.5,0 0.75,1.5 -2.1,1.05 -0.45,0.3 0.75,0 1.8,1.2 1.5,-1.5 0,1.5 -0.75,0 -1.35,1.2 0,0.75 -2.7,0.6 -0.6,-1.5 -1.65,-0.9 0,1.8 -1.5,0 -0.75,0.6 -22.95,0 -1.8,-0.6 -4.2,0.6 -13.8,0 -0.6,-1.8 -1.5,-3.15 0,-1.65 -0.45,-0.9 0,-1.95 -1.2,-1.05 -0.45,0.75 0.75,1.8 -1.2,0.45 0,1.05 -2.7,1.5 1.05,0 1.5,1.05 0.9,-1.05 1.05,0 0,1.2 -2.25,0.6 0,1.8 -1.95,0 -0.75,1.35 -30,0 -1.05,-0.75 -0.45,-24.3 z m 36.75,23.7 0.45,0.3 -0.75,1.05 -0.6,0 0,-1.35 0.9,0 z m 15.9,0 0.75,-0.75 1.95,-0.6 -1.35,-0.75 -1.95,0.75 0.6,1.35 z m -22.05,-0.45 0.75,-0.6 -1.95,-0.9 0,1.5 1.2,0 z m 32.25,0 0.75,0 0,-0.3 -0.75,0 0,0.3 z m 4.5,-0.3 -0.45,0 0.45,0 z m -3.3,-0.9 0.75,0 0,-0.3 -0.75,-0.75 0,1.05 z m 4.05,-0.3 1.2,0 0.9,-2.25 1.2,0 0,2.25 1.2,-0.6 0.6,-1.95 -1.35,-2.7 0,-0.9 -0.45,-2.1 0,-2.7 1.2,0 1.2,-0.6 0,-1.65 -2.4,0 -0.3,1.8 -1.5,0 -0.45,0.6 0.45,1.35 0,0.75 -0.9,0 0.6,1.2 -3.15,1.8 1.2,0 1.2,0.75 0.75,0 0.3,-0.75 1.05,-0.45 0.45,0.9 0,0.75 -1.5,0 -1.05,1.2 0,1.35 -1.65,-0.6 -0.75,0.9 0,0.6 1.95,1.05 z m -56.1,-0.75 0.3,-0.45 -0.3,0 0,0.45 z m 1.95,-0.9 1.95,0 -0.45,-0.6 -1.2,0 -0.3,0.6 z m 48.15,0 0.3,0 0,-0.6 -0.3,-0.3 -0.45,0.3 0.45,0.6 z m 2.25,-0.6 0.75,-0.3 0,-1.2 -1.5,-0.75 0,1.5 0.75,0.75 z m -9,-0.3 1.05,-0.45 -0.45,-0.3 -0.6,0.3 0,0.45 z m 31.95,-0.45 0.45,0 0,-1.5 1.05,0 0,-0.75 -1.95,-2.25 0,-1.5 1.2,0.3 1.65,0 0,-1.5 0.9,-0.75 0,-1.95 -3.75,0.6 1.2,0.9 0,0.75 -1.5,0 -1.8,-1.05 0,3 -0.75,0.9 0.3,0.75 -0.75,0.6 -0.3,1.2 -1.5,-0.9 -0.6,0.9 1.05,1.5 1.35,0 1.35,-1.35 2.4,2.1 z m -36.15,-0.15 0,-1.05 -2.25,-0.3 -0.75,-0.45 -1.2,0 0,0.45 0.6,0.6 3.6,0.75 z m -18.9,-1.35 0.45,0 -0.45,-0.45 0,0.45 z m 22.35,0 0.75,0 1.05,-0.75 -1.8,0 0,0.75 z m -26.85,-0.75 0,-1.2 -0.75,0 0,1.2 0.75,0 z m 3.15,-0.45 0.6,0 0,-2.1 -0.6,0 -0.75,0.75 0.75,1.35 z m 2.55,0 0.45,0 0,-0.75 -1.2,0 0.75,0.75 z m -13.05,-1.8 0.3,0 0,-0.3 -0.3,0 0,0.3 z m 57.45,-0.3 -0.3,0 0.3,0 z m -11.25,-0.45 0.3,0 0,-0.75 -0.3,-0.75 1.5,0 0,-1.2 -0.75,-0.45 -2.55,-2.55 -0.45,0.45 0,0.75 0.45,0 0,1.2 1.35,0.6 -1.05,0.3 -0.45,0.6 1.95,1.8 z m 16.95,0 0.45,-1.2 -0.6,-0.6 -0.75,0.75 0.9,1.05 z m -10.5,-0.75 0.3,-0.45 0,-0.3 -0.3,0.3 0,0.45 z m -44.1,-0.45 0.75,0 0,-1.5 -2.25,-0.6 0,1.35 1.5,0.75 z m 32.7,0 1.2,0 0.3,-0.75 1.5,-0.75 -0.6,-0.45 -0.9,0 -0.75,0.75 -1.5,-0.6 0,1.05 0.75,0.75 z m -40.95,-1.5 1.8,0 0.75,-1.05 1.65,0 0.3,-3.15 -1.2,0 0,1.95 -1.5,0.45 -1.8,1.8 z m 28.2,0 -0.3,-1.05 -0.45,0 0,1.05 0.75,0 z m 5.25,0 0.9,0 0,-1.05 -0.9,0 0,1.05 z m -12,-0.45 0.3,0 0,-0.6 -0.3,0 0,0.6 z m 36.75,-0.75 0.6,-1.8 1.35,0 0,-1.5 -1.35,0 -0.45,1.2 -1.2,0.3 0,1.2 1.05,0.6 z m -48.3,-0.6 -0.45,0 0.45,0 z m 12.6,0 0.6,0 -0.75,-1.5 -0.9,0 0,0.3 1.05,1.2 z m 3,0 0.9,-0.45 -2.1,-2.1 -0.6,0.75 0.6,1.35 1.2,0.45 z m -12.3,-0.45 0.75,0 0.45,-0.3 -1.2,0 0,0.3 z m 51.75,0 0,-0.75 -0.9,0 0.9,0.75 z m -17.55,-0.6 0.75,-1.35 0.75,-0.75 0,-2.55 -1.5,0.75 -0.45,1.8 -0.75,0.75 0,0.9 1.2,0.45 z m -47.4,-0.45 1.05,0 0,-0.9 -1.05,0 0,0.9 z m 10.8,-0.45 -0.6,0 0.6,0 z m 52.8,0 0,-0.45 -1.65,-1.95 -0.9,1.65 1.8,0.3 0.75,0.45 z m -66.75,-0.45 1.65,-1.05 0,-1.05 -0.75,-0.75 -0.9,0 0,2.85 z m 58.8,-0.15 1.2,-0.6 0.75,0 0,-1.35 -1.2,-1.2 -0.9,0 0.75,1.65 -1.05,0.6 0.45,0.9 z m -26.7,-0.6 0.9,0 0,-1.35 -0.9,0 0,1.35 z m 22.95,0 0.45,0 0.3,-0.3 -0.3,0 -0.45,0.3 z m -19.95,-0.3 0,-1.8 -0.75,0 0,1.8 0.75,0 z m 27.15,-0.6 1.35,0 0,-1.2 -1.35,-1.2 -1.2,0 0,1.2 1.2,1.2 z m -54.9,-0.45 0.75,-0.75 0,-1.2 -0.45,-0.45 -1.5,0.9 -1.05,0.9 2.25,0.6 z m 47.25,0 -0.75,0 0.75,0 z m -60.15,-3.15 0.3,-0.3 0,-0.45 -0.3,0 0,0.75 z m 9.15,-0.6 0,-1.2 -2.4,0 0,0.45 1.2,0 1.2,0.75 z m 2.1,-1.5 1.65,0 0,-0.75 -1.65,0 0,0.75 z m -18,-3.6 0.45,0 1.2,-1.65 -0.9,0 -0.75,0.75 0,0.9 z m 15.15,-19.05 1.35,0 1.2,-1.2 1.5,0 0,-3.3 -1.2,0.6 0,1.95 -1.5,0.45 -1.35,1.2 0,0.3 z m 0,-3.15 0.3,0 0.45,-0.45 -0.45,-0.45 -0.3,0 0,0.9 z m -2.85,-1.35 1.5,-1.35 -1.8,-1.8 0,1.95 -0.75,1.2 1.05,0 z m 6.9,-1.35 1.35,-2.55 -0.75,-0.75 -2.55,1.35 0,1.2 1.95,0.75 z m -3.75,-4.65 0.45,0 0,-0.75 -0.45,0 -0.3,0.3 0.3,0.45 z m -15.75,-4.5 1.05,-1.2 0,-0.45 -0.75,0 -0.9,1.05 0.6,0.6 z m 52.65,-1.95 0,-0.3 -0.45,0 0.45,0.3 z m -18.6,-2.85 -0.6,-1.35 -0.45,0.45 0.45,0 0.6,0.9 z m 20.55,0.3 0,-1.2 -0.45,0 0.45,1.2 z m 13.5,-4.5 0.3,-0.45 0,-0.75 -1.95,-0.6 0,0.6 1.65,1.2 z m 4.5,-0.75 0.3,0 0.75,-0.9 0,-0.3 -1.05,0 0,1.2 z m -39.6,-0.45 0.75,0 0,-0.45 -0.3,0 -0.45,0.45 z m 11.4,-1.5 0.3,0 0.45,-0.45 -0.45,-0.45 -0.3,0 0,0.9 z m -12.6,-0.9 0.9,0 0,-2.1 -2.55,0 0,1.2 1.65,0.9 z m -7.2,-1.5 1.35,-1.35 1.8,0.6 0,-3.6 -0.75,0 0,1.95 -1.8,0.6 -1.2,1.2 0.6,0.6 z m 8.4,-1.8 0.45,0 -0.45,-0.3 0,0.3 z m -9,-1.5 0.45,0 0,-0.6 -0.45,0 0,0.6 z m 10.2,0 0.75,0 0,-0.6 -0.75,0 0,0.6 z m 38.4,-5.25 0,0.45 0,-0.45 z m -3.45,0 0.9,-0.75 -0.6,-0.6 -0.75,0.75 0.45,0.6 z m -71.55,-10.5 0,0.45 0,-0.45 z m -1.35,-4.8 0.3,0 0,-0.75 -0.3,0 -0.45,0.3 0.45,0.45 z m 42,-20.1 0.45,0 0,-0.3 -0.45,0 0,0.3 z m 17.85,-0.15 1.2,-2.4 -1.35,0 -1.8,0.6 0,1.05 1.95,0.75 z m -7.65,-0.6 1.05,0 -0.6,-3 -0.45,0.45 0,2.55 z m 18.75,-0.75 0.45,-0.6 -0.45,-0.45 0,1.05 z m -4.05,-1.05 0.45,0 0,-0.3 -0.45,0 0,0.3 z m -24.6,-0.15 0.9,-0.6 -0.3,-0.45 -0.9,0 -0.3,0.45 0.6,0.6 z m 6.6,1.65 0.45,0 0,-2.25 -0.45,0 0,2.25 z m -3.15,0 1.2,-1.2 0,-0.75 -0.75,-0.45 -0.45,1.2 -0.6,1.2 0.6,0 z m 21.15,0 0.45,-0.45 -0.45,-0.3 0,0.75 z m -3.3,-0.75 0,0.3 0,-0.3 z m -28.35,0 0.3,0 0.45,-0.45 -0.45,-0.45 -0.3,0.45 0,0.45 z m 1.95,-1.2 0.3,0 0.45,-0.45 -0.45,-0.6 -0.3,0 0,1.05 z m 15.6,0 0.6,-1.8 -1.95,0 0,1.35 1.35,0.45 z m 18.15,-1.05 0.45,-0.3 0,-0.45 -0.45,0 -0.3,0.45 0.3,0.3 z m -39.15,-0.3 2.85,0 0,-0.9 -2.85,0 0,0.9 z m -21.6,-0.9 0,0.45 0,-0.45 z m 7.05,0.45 1.05,0 0,-0.75 -0.3,0 -0.75,0.75 z m 50.4,0 0,-0.75 -1.5,0 1.5,0.75 z m -47.1,-1.5 0,0.75 0,-0.75 z m 53.25,0.75 -0.9,0 0.9,0 z m -41.1,-0.45 2.1,-1.5 -0.6,-0.45 -1.2,0 -0.3,0.45 -0.9,0.3 0,0.9 0.9,0.3 z m 44.4,0 0.3,-0.3 0,-0.45 -0.75,0 0,0.45 0.45,0.3 z m -21.9,-1.2 1.2,0 0,-0.75 -0.45,0 -0.75,0.75 z m 2.7,-0.3 1.05,-3.3 -1.5,0.6 0,2.25 0.45,0.45 z m 12.3,-1.35 1.2,0 0,-1.2 -1.5,-1.65 -0.45,0.45 0,1.5 0.75,0.9 z m -22.8,-0.9 0.75,0 0.3,-0.3 -0.3,-0.45 -0.75,0.45 0,0.3 z m 6.75,0 0.6,0 0.45,-0.3 -0.45,-0.45 -0.6,0 0,0.75 z m 22.2,0 1.05,0 0,-1.05 -1.5,-1.95 -0.45,0 0,2.25 0.9,0.75 z m -43.65,-0.3 0.3,-0.45 0,-0.75 -1.5,-0.45 -0.75,0.6 1.95,1.05 z m 18.3,-0.45 1.65,-1.2 0,-0.75 -0.75,-0.75 -0.9,0 0,1.2 -0.3,1.2 0.3,0.3 z m -26.55,-0.75 1.35,0 1.2,-0.75 1.5,-0.45 0,-1.35 0.45,-1.95 -0.45,0 -0.75,0.75 0,1.65 -1.95,0.6 -1.35,1.05 0,0.45 z m -6.9,-0.45 0.75,0 -0.3,-0.3 -0.45,0.3 z m 40.8,-0.75 0.9,-2.1 -1.35,0 -1.5,0.6 0,0.9 1.95,0.6 z m 19.35,-0.15 0.9,-1.2 -0.3,-0.45 -0.9,0 -0.3,1.05 0.6,0.6 z m -60.15,-1.95 0.75,0 0.9,-0.45 -0.45,-0.3 -1.2,0 0,0.75 z m 7.35,0 0.45,-0.45 -0.45,-0.3 -0.45,0 0,0.3 0.45,0.45 z m -4.05,-1.2 0.9,0 1.35,-1.35 -1.35,-1.35 -0.9,2.7 z m -9.75,-0.45 0.45,-0.3 0,-0.45 -0.45,0 0,0.75 z m 36.6,-0.3 0.45,-0.45 0,-0.75 -1.8,-0.6 -0.9,0.75 1.5,0.6 0.75,0.45 z m -34.95,-1.2 0.75,0 0,-0.45 -0.45,-0.6 -0.3,0.6 0,0.45 z m 15.45,0 0.75,0 0,-1.8 -1.2,0 -1.2,1.2 1.65,0.6 z m -20.4,-1.05 1.95,0 1.05,-0.75 -1.8,-0.3 -1.95,0.45 0.75,0.6 z m -1.95,-1.05 0,-0.45 -0.6,0 0.6,0.45 z"
         inkscape:connector-curvature="0" />
      <path
         id="path4712"
         d="m 705.89,259.14 -0.9,-0.45 -1.65,-0.9 -5.85,-3.15 -1.65,-1.5 0,-1.35 -0.6,-0.9 -1.5,0.9 -3.6,-3.75 2.4,-0.9 0,-0.15 -1.5,-0.9 -2.7,0 -0.45,-0.9 -1.5,-1.65 0,-1.05 -0.9,0 0,-1.95 0.75,0 0.75,1.5 0.45,-0.6 2.85,-0.3 -0.6,-1.35 1.65,-1.5 0,-1.35 -0.6,0 -1.05,1.35 -1.5,0 -0.3,0.15 1.35,0.45 0,0.9 -1.35,0 -1.5,-1.05 -1.2,-0.3 -1.05,-2.1 0,-1.35 2.7,-1.35 1.8,0 0.3,-0.9 0.75,-0.6 1.2,-1.2 2.7,0.75 1.2,-2.7 0.9,1.05 0,1.65 0.9,0 1.2,1.95 0,1.35 -0.3,0 -0.45,-1.05 -1.2,0 0,1.05 -0.6,0 -1.35,-0.3 -0.15,0.3 0.75,0.9 1.2,0.45 0,1.95 0.6,0 0.9,-0.75 1.35,1.2 1.35,0 0.6,-0.3 -1.05,-1.2 0.45,-0.3 1.95,0.3 1.05,0.75 1.2,-0.75 0.9,0 0.9,-0.75 0,-0.15 -5.25,0 -1.05,-2.55 1.65,-1.05 0,-1.35 -1.95,0 1.2,-1.35 -3,-1.05 -1.2,-1.5 3.15,-1.65 4.65,-2.85 1.5,0 1.65,2.85 -1.35,0 -2.1,1.35 -1.65,-2.25 -0.9,0.6 2.1,2.1 2.1,1.2 0.45,-0.6 -0.75,-1.05 2.1,-0.45 1.05,0.9 1.05,1.2 2.25,2.85 -1.5,0 -0.75,0.45 0.75,0.75 0,1.05 2.7,-0.6 1.05,0.6 1.95,1.95 1.65,0 1.95,1.05 0.3,0.3 9,-0.3 4.8,-1.95 2.85,-2.85 2.25,-4.65 0.75,-5.25 0.3,-23.55 0.9,-0.45 0.6,-1.05 1.05,-1.2 -0.6,-0.6 -1.2,0 -0.45,1.35 -0.3,0 0,-9 0.75,0 0,-1.65 -1.05,0.6 0.3,-3.6 0.9,0.6 1.2,-1.5 -1.2,-0.45 -0.75,0.45 -0.45,-2.1 0,-15.3 0.3,-3.75 0,-1.8 1.95,-3.6 0,-0.6 -0.45,0 -0.75,0.6 -0.45,0 -0.6,0.3 0,-11.4 0.75,0 -0.75,-1.35 0,-22.35 6.3,-0.6 4.2,0.6 4.05,0 1.35,-0.6 1.05,0.9 2.55,-0.75 5.85,0.45 3,0 0.75,0.6 0,20.25 -1.5,1.35 1.05,1.35 0,20.4 -0.3,0.9 0.75,4.5 -0.75,2.4 -0.75,0.75 0,1.2 -0.9,0.75 0,0.6 0.9,0 0.75,-1.05 0.3,0 0,3.3 -1.5,1.35 0,1.2 1.5,0.75 0,42.3 -1.05,1.2 1.05,0 -1.5,8.85 -1.05,2.1 0,1.05 -1.95,5.1 -1.95,3.3 -1.2,2.25 -3.75,3.75 -1.05,0 -0.75,2.25 -7.65,4.65 -7.2,2.25 -8.7,1.95 -6.75,0 -9,-0.45 -9.6,-2.85 z m 25.35,-2.7 0.3,0 -0.3,-0.45 0,0.45 z m -36.45,-4.5 0.9,0.6 -0.45,0 -0.75,-0.6 0.3,0 z m 3.3,0.6 2.4,0 0,-1.2 -1.05,-1.5 -0.9,0 -0.45,0.45 0.9,1.2 -1.5,0.45 0.6,0.6 z m 33.15,0 0.3,-0.15 0,-0.45 -0.3,0 0,0.6 z m 11.55,-2.25 0.45,-0.45 -0.45,-0.6 -0.45,0.6 0.45,0.45 z m 2.4,-1.05 0.3,0 0,-0.15 -0.3,0 0,0.15 z m -44.7,-0.75 0.75,-0.9 0,-0.6 -1.65,-1.5 0.9,1.65 0,1.35 z m 6.45,0 0.75,-0.45 0,-1.5 -1.35,0 0,1.05 0.6,0.9 z m -17.25,-1.5 0,0.15 -0.45,0 0,-0.15 0.45,0 z m 28.5,0 0.6,0 2.1,-2.25 -1.5,-1.5 -0.3,0 0.3,1.05 0,1.05 -1.2,0.75 0,0.9 z m -24.45,-0.3 1.95,-0.9 -1.95,0 0,0.9 z m -0.3,-2.4 0,-1.5 -2.25,-0.6 -0.6,0.9 0.75,0.75 2.1,0.45 z m 7.35,0 1.05,0 0,-0.75 -0.6,0 -0.75,0.3 0.3,0.45 z m -5.55,-0.45 2.25,0 0,-1.35 -1.8,-1.95 -0.45,-1.35 -0.75,0.75 0.3,1.2 -0.3,0.9 0.3,0.75 0.45,1.05 z m 19.95,-0.6 0,0.3 0,-0.3 z m 8.7,0.3 0.3,0 0,-0.3 -0.3,0 0,0.3 z m -24.6,-0.9 0,-1.2 -1.2,0 0,0.6 1.2,0.6 z m 13.95,0 1.05,-0.6 2.25,0 0,-1.5 -2.25,0 -1.05,1.5 0,0.6 z m -10.35,-0.15 0,-0.9 -1.05,-1.05 -1.05,0 0,1.05 2.1,0.9 z m 16.2,-0.3 0.3,-0.75 -1.05,-0.3 -0.75,0.3 0,0.15 1.5,0.6 z m -10.95,-0.6 1.2,0 0,-2.4 -0.6,-1.5 -1.2,0 0.6,1.65 -0.9,0.9 0,0.9 0.9,0.45 z m 12,-1.35 0,0.9 0,-0.9 z m -16.35,0.3 0.3,0 0,-0.3 -0.3,0.3 z m -18.6,-1.35 0,0.6 -1.05,0 0,-1.2 1.05,0.6 z m 32.25,0.45 0.15,-0.45 -0.15,0 0,0.45 z m 4.05,0 1.35,0 0,-1.2 -1.35,0 0,1.2 z m -16.5,-0.45 0.45,0 0.9,-0.75 -0.45,0 -0.9,0.75 z m 57.6,0.45 1.5,-1.65 -1.5,-1.5 -2.1,1.8 2.1,1.35 z m -75.75,-1.35 0.6,0 0,-1.95 -2.25,-0.9 0,1.65 1.65,1.2 z m 29.25,0 -0.3,-1.05 -0.6,0 0,1.05 0.9,0 z m -4.65,-0.6 1.35,-1.35 -3.15,-0.6 0,1.95 1.8,0 z m 22.95,-1.2 1.95,-0.15 0,-0.75 -1.5,0 -0.75,0.75 0.3,0.15 z m 3.45,-0.45 1.2,-1.05 -0.45,-0.3 -0.9,0 -0.6,0.75 0.75,0.6 z m -31.95,-0.45 0.9,0 0.45,-2.4 0.9,-0.45 0,-1.8 -1.2,0 -1.35,1.95 -0.75,0.3 0,1.2 1.05,1.2 z m 28.95,-1.2 0.45,0 0,-0.45 -0.45,0.45 z m -33.45,-1.2 0,0.75 0,-0.75 z m -2.4,-0.45 0,0.45 -0.45,0 0,-0.3 0.45,-0.15 z m 60.15,0.15 1.35,0 -0.75,-0.9 -0.6,0.9 z m 0.45,-4.5 0,-1.05 -0.75,0 0,1.05 0.75,0 z m -18.45,-7.05 0.45,0 0.6,-1.2 -1.05,0 0,1.2 z m 0.6,-12.6 0.75,-0.6 -0.75,-0.9 -0.6,1.05 0.6,0.45 z m -1.2,-0.75 0,-0.75 -0.15,0 0,0.3 0.15,0.45 z m 25.5,-8.85 0,-1.05 -0.6,-0.9 -1.05,0 0,1.95 1.65,0 z m -12.6,-4.05 0.15,-0.15 -0.15,-1.05 -1.35,0 0.6,1.05 0.75,0.15 z m 6.9,-1.2 0.6,0 0.6,-0.45 -0.6,-0.3 -0.6,0 0,0.75 z m 4.05,-0.45 0.75,0 0,-0.6 -0.75,-0.6 -0.75,0 0,0.6 0.75,0.6 z m -5.25,-4.05 0.45,-0.45 0.3,0.45 0,0.15 -0.3,0 -0.45,-0.15 z m -1.05,-1.05 0,-0.45 0,0.45 z m -13.65,0 0.45,-1.5 -2.4,-0.75 0,1.5 1.95,0.75 z m 3.9,-1.65 0.45,0 0,-0.45 -0.45,0 0,0.45 z m 4.35,-2.4 0.75,0 0,0.75 -0.75,0 0,-0.75 z m 4.2,-0.15 0.3,0 -0.3,0 z m -16.35,-1.2 0,-0.6 0,0.6 z m 1.35,-2.4 0.45,0 0,0.15 -0.75,0 0.3,-0.15 z m 11.55,0 0,-0.45 0,0.45 z m 5.4,-3.75 0.75,0 0,-0.6 -0.75,0.6 z m 3.3,-0.15 0.9,0 -0.9,-1.8 0,-0.6 1.05,0.6 0.9,0 0,-1.8 -2.25,0 0,0.9 -0.3,0.6 0,1.35 0.6,0.75 z m -1.65,-4.05 1.05,0 0,-1.05 -1.35,0 0.3,1.05 z m 4.95,0 0,-0.3 -0.3,0 0.3,0.3 z m -3.6,-1.35 0.3,0 0.45,-0.75 -0.45,-0.6 -0.3,0.45 0,0.9 z m -13.05,-1.35 0.45,0.45 -0.45,0 0,-0.45 z m -6.9,-4.2 0,-0.6 0,0.6 z m 21.3,0 1.5,0 1.2,-0.6 -0.45,-0.75 -1.95,-0.75 -1.05,1.05 0.75,1.05 z m -20.7,-3.45 0.3,0 -0.3,-0.3 0,0.3 z m 16.65,-1.8 0.45,0 0,-0.75 -0.45,0.45 0,0.3 z m -10.35,-6.75 0,-1.35 1.2,0 0,1.95 -0.15,0 -1.05,-0.6 z m -7.65,-1.35 0,-0.3 0,0.3 z m 0,-1.2 0.45,-0.6 0,-0.45 -0.45,0 -0.6,0.45 0.6,0.6 z m 22.5,-5.25 0.45,0.3 0,0.15 -0.45,0 0,-0.45 z m -1.2,-0.3 0,-0.45 0,0.45 z m -18,-2.1 0,-0.9 1.5,0 0,1.8 -0.75,0 -0.75,-0.9 z m 13.2,-0.9 0.45,0 -0.45,0 z m 8.85,0 0.45,0 -0.45,-0.3 0,0.3 z m -22.8,-1.95 0.6,-0.3 -0.6,-0.3 0,0.6 z m 9.75,-0.6 0.45,0 0,-1.2 -1.2,-1.35 -1.95,0 -0.75,-0.45 0,0.45 1.05,0.9 2.1,0.9 0.3,0.75 z m 11.7,-11.85 0.75,0 0,-0.45 -0.75,0 0,0.45 z m -3,-2.25 0.3,-0.45 -0.3,-0.6 -1.8,-0.75 -0.75,0.75 0,1.05 2.55,0 z m 1.5,-4.5 0.45,0 0,0.45 -0.45,-0.45 z"
         inkscape:connector-curvature="0" />
      <path
         id="path4714"
         d="m 791.67,261.24 0,-1.05 1.65,-3.45 0.6,-1.95 2.4,-4.65 0.6,-1.65 20.7,-47.1 1.2,-0.6 0,-2.25 5.4,-12.3 1.05,-2.25 7.35,-16.65 1.5,-0.75 0,-2.85 3,-6.3 1.65,-0.75 0,-4.05 5.85,-11.55 0.6,-0.6 0,-1.65 2.85,-6 2.25,-2.85 0,-0.6 -1.8,1.05 4.95,-10.35 0.9,0 1.05,2.25 0,3.6 1.2,0 3.15,5.4 0.9,3.9 1.2,1.2 16.05,34.8 -1.5,3 2.25,-1.2 40.8,88.8 -21,0 -1.65,0.6 -7.2,-0.6 -1.65,-5.4 1.2,-2.25 -0.45,-0.6 -2.4,0 -1.2,-3.45 -1.35,-3.45 1.2,0 0.75,-1.65 2.25,0 3,-2.4 2.4,0 1.2,-1.2 0,-0.6 -1.8,0 -4.65,2.25 -1.8,0 -1.2,-1.05 0,-0.9 2.7,1.35 -1.5,-2.25 0,-1.05 -0.6,0 -4.05,3.9 -3.6,0 -1.65,-1.65 0,1.65 -11.7,0 -0.6,-0.45 -2.25,0 -1.2,-1.2 -1.65,0.6 -3,0.6 -0.75,0.9 -0.9,-2.1 -0.6,0 -1.2,2.1 -2.1,-1.95 -1.8,1.05 -1.2,0 -0.6,0.45 -19.95,0 -2.7,4.2 0,-1.05 -0.6,0 -0.6,0.45 1.05,2.25 -6.45,13.5 -14.25,0 -4.35,-0.6 -7.35,0.6 -0.6,-0.6 0.6,-0.6 z m 3.45,-1.05 0,0.45 0,-0.45 z m 97.2,0 0,0.45 0,-0.45 z m 21.75,0 0.6,0 0.6,-0.6 -1.2,0 0,0.6 z m -100.35,-1.2 0.45,0 0,-0.6 -0.45,0 0,0.6 z m 83.1,-1.2 0,0.6 0,-0.6 z m 3.3,0.6 0.6,-0.6 -0.6,0 0,0.6 z m -100.8,-2.4 -0.6,0 0.6,0 z m 96.9,-0.6 0.6,0 -0.6,-0.6 0,0.6 z m -89.4,-2.25 -0.6,0 0.6,0 z m 7.35,0 1.2,0 0,-1.2 -0.6,-0.6 -0.6,0.6 0,1.2 z m 95.4,0 -0.6,0 0.6,0 z m -11.55,-0.6 -0.6,-1.2 -0.6,0 0,1.2 1.2,0 z m -9.45,-1.35 0.6,-1.5 -0.45,0 -0.9,0.75 0.9,-3.15 -0.75,0 -1.95,2.7 2.55,1.2 z m -72.6,-1.5 0,-1.8 -1.2,0 0,1.8 1.2,0 z m 75.6,-1.8 0.75,0 0,-0.6 -0.75,0 0,0.6 z m -70.8,-1.2 0,-1.05 -1.35,0 0,1.05 1.35,0 z m -15.15,-0.9 0,-2.1 -2.25,0 0,1.35 2.25,0.75 z m 18,-2.1 1.65,0 1.2,-1.65 -1.2,0 -1.65,1.65 z m 60.45,0 -0.6,0 0.6,-0.6 0,0.6 z m -53.25,-0.75 5.55,-1.35 0,-1.35 -1.65,0 -1.2,1.2 -1.8,0.6 -0.9,0.9 z m 41.55,-1.5 -0.6,0 0.6,0 z m 16.35,0 1.65,0 0,-1.2 -1.65,0 0,1.2 z m -37.8,-1.2 1.8,0 -0.6,-0.6 -1.2,0 0,0.6 z m 28.35,0 0.6,0 -0.6,-0.6 0,0.6 z m -67.8,-1.05 -0.6,0 0.6,0 z m 15.6,0.15 0,-1.95 -1.05,-1.05 -0.75,2.25 1.8,0.75 z m 7.05,-0.15 1.65,0 0,-1.8 -0.75,0 -0.9,1.8 z m 60.45,0.15 0,-1.35 -1.8,0 -0.45,0.6 2.25,0.75 z m -66.3,-0.75 1.05,0 0,-1.2 -1.05,0 0,1.2 z m 2.85,-0.6 2.4,0 0,-1.8 1.8,-1.05 0,-1.2 -1.2,0 -1.65,-0.9 -1.35,1.5 0.6,0.6 0.75,2.25 -1.35,0.6 z m 53.55,0 1.05,-1.2 1.2,0 0,-1.05 -3.3,1.2 1.05,1.05 z m 5.1,0 1.2,0 0,-0.6 -0.6,0 -0.6,0.6 z m -49.95,-0.6 0.6,0 -0.6,-0.6 0,0.6 z m 15.15,0 0.45,0 0,-0.6 -0.45,0.6 z m -26.7,-1.2 0.45,-0.45 0,-1.2 -2.25,-0.6 0,-0.6 2.7,-1.35 -1.95,-2.1 4.5,-1.65 1.05,-3.15 1.95,-0.9 0.6,-1.2 -1.8,0 -1.35,0.6 -2.85,0 -0.6,-0.6 -0.45,1.2 -1.2,0.6 0.6,0.45 3.15,0 -0.9,1.8 0,0.45 -1.2,0 -2.85,-1.65 -0.6,1.2 -1.65,0.45 -1.35,-1.2 3,-1.05 0,-0.45 -1.65,-1.2 -2.55,0 0.75,1.65 -0.6,0.6 -2.4,0 0,2.25 0.6,0.45 1.65,-0.6 0.75,0.6 4.05,0 0,3 -1.95,0 0.9,1.8 0.45,1.8 1.8,0.6 1.2,0.45 z m 17.55,0 1.05,0 0,-0.45 -0.6,-0.6 1.2,-0.6 -1.65,-2.4 0.45,-0.6 2.4,0 0,-1.2 -3.45,0 -1.35,1.2 0,2.1 1.95,2.55 z m 3.45,0 0.45,-0.45 -1.05,0 0.6,0.45 z m 10.35,-0.45 0,0.45 0,-0.45 z m 25.05,-0.6 2.25,-1.2 -0.6,-0.6 -1.2,0.6 -1.05,0 0,0.6 0.6,0.6 z m -31.35,-0.6 0.9,-2.1 -1.5,0.9 -1.8,-1.8 -1.95,0 0.9,2.1 3.45,0.9 z m -16.35,-0.6 2.85,-1.8 -1.05,-1.2 -1.2,0 0,1.8 -0.6,0 -0.75,-2.4 -4.05,0 0,0.6 2.55,1.2 2.25,1.8 z m 53.4,-1.8 0.6,0 0,-0.6 -0.6,0 0,0.6 z m -37.05,-0.6 1.65,0 0,-1.2 -1.65,0 0,1.2 z m 40.65,-0.6 2.25,-0.6 0.75,-2.1 -2.4,-1.8 0,1.65 1.5,0.6 -2.1,2.25 z m -6.45,-1.8 2.25,0 0,-0.6 -1.05,0 -1.2,0.6 z m -53.4,-0.6 0.6,0 0.75,-2.1 -1.35,0 0,2.1 z m 2.25,-0.45 0.6,0 0.6,-0.6 -0.6,0 -0.6,0.6 z m -10.5,-0.6 0.6,0 -0.6,0 z m -10.5,-1.05 2.85,0 0,-3.45 3,0 0,-1.65 -1.8,0.75 0,-0.75 0.9,-0.9 -0.9,-2.25 -2.25,1.8 0,3.9 -1.8,2.55 z m -1.2,-0.6 0.9,-1.65 -1.95,0 0,0.6 1.05,1.05 z m 32.7,0 1.2,-0.6 -1.2,-1.05 0,1.65 z m 3.45,-0.6 1.2,0 0,-1.05 -1.2,0 0,1.05 z m 38.1,0.3 0.75,-0.75 -0.75,-0.9 -0.9,0.9 0.9,0.75 z m -33.45,-1.35 0,-0.6 -0.6,-0.6 0,0.6 0.6,0.6 z m -42.9,-0.6 1.5,-1.65 -1.5,-0.6 0,2.25 z m 27.75,0 1.2,-1.2 0,-1.05 -0.6,-0.6 1.2,-0.75 5.25,0 -0.6,0.75 -0.45,1.05 1.35,-0.75 1.5,0.75 1.05,-0.9 -1.65,-0.9 19.05,0 4.2,-0.6 -6.6,-17.4 0,-1.8 -1.05,-1.05 -4.05,-10.2 0,-2.7 -1.2,-1.8 -1.65,-2.85 1.05,-1.05 -1.8,-1.65 -1.95,-6.45 -5.4,14.4 -1.2,0 -0.6,0.6 1.35,0.75 -7.35,19.5 -1.65,0 0,0.6 0.6,0.75 0,1.2 -2.25,-1.95 0,3 1.35,0.6 -1.65,4.8 -1.95,2.7 0.45,0.6 0.6,0 1.2,0.75 2.25,0.75 0,2.1 z m 25.5,-0.6 0.6,-0.6 0,-0.6 -0.6,0 -0.6,0.6 0.6,0.6 z m -42.9,-0.6 1.2,0 0.6,-0.6 4.5,0 4.2,-2.1 0,-0.9 -2.4,0 -3,1.65 -1.35,-1.35 -1.35,1.65 -2.4,0 0,1.65 z m -8.25,-1.05 0,-0.6 -0.45,0 0.45,0.6 z m 7.65,-1.95 1.2,-2.25 1.8,-0.6 -1.5,-2.1 1.95,0.9 3.45,0 0,1.35 2.4,-0.75 0.75,-0.75 1.65,0.75 0,-0.6 -3.3,-3.3 1.95,-0.75 0,-1.05 -1.05,-0.6 -0.6,-0.6 -1.2,0 0.9,1.5 -1.95,1.95 -0.6,1.2 -1.2,-1.2 -0.6,0 0,1.2 -3.15,0 -0.9,1.65 -1.8,0.6 0.75,0.6 0.45,2.25 0.6,0.6 z m 69.15,0 2.4,0 0,-1.2 -3.3,-0.45 0.9,1.65 z m -66.75,-1.2 0.6,0 0,-0.45 -0.6,0 0,0.45 z m -7.05,-1.05 0.45,-1.2 0,-1.5 3.6,-1.2 0,-0.75 -1.8,0 -0.9,-1.65 2.7,0 1.2,1.05 0.9,0 0.9,-1.65 1.65,-1.95 0,-0.6 -1.05,0 -1.8,1.95 0,-1.95 -0.6,0 -2.4,2.55 -1.2,-1.2 -1.2,0 -1.35,2.1 1.65,0.9 -0.75,1.65 0,3.45 z m 72,-1.2 1.2,-1.2 -1.2,0 0,1.2 z m 4.2,-1.65 0.6,0 0,-0.6 -0.6,0 0,0.6 z m -59.25,-3 0,-1.05 -0.6,0 0,0.6 0.6,0.45 z m 61.05,-0.45 0,0.45 0,-0.45 z m -66.9,-1.2 -0.6,0 0.6,0 z m 3.9,-1.35 1.95,-0.6 0,-1.2 -2.7,0.9 0.75,0.9 z m 44.25,0 0.6,0 0,-0.6 -0.6,0 0,0.6 z m -39.45,-0.6 0.6,-0.45 0,-0.6 -0.6,0.6 0,0.45 z m -18.75,-1.05 0,-0.6 -1.05,-1.2 0,1.8 1.05,0 z m 60.45,0 0,-1.2 -2.25,0 0.6,0.6 1.65,0.6 z m -40.5,-1.2 1.05,-0.6 0,-0.6 -1.05,1.2 z m -11.1,-0.6 0.6,0 -0.6,-0.6 0,0.6 z m 6.45,0 1.8,0 -1.2,-1.65 0,-0.6 -0.6,-0.6 -1.8,1.2 0,1.05 1.2,-0.45 0.6,1.05 z m 44.1,-2.25 2.25,0 0,-1.2 -0.6,0 -1.65,-0.9 0,2.1 z m -54.6,-0.3 3.75,-1.95 -2.55,-1.2 0,1.05 -1.2,0.6 0,1.5 z m 8.1,-0.9 0,0.6 0,-0.6 z m 59.25,0 0,0.6 0,-0.6 z m -69.6,0 0,-0.6 -0.75,0 0.75,0.6 z m 9.75,-1.2 0,0.6 0,-0.6 z m 4.2,0.6 1.05,0 -1.05,-0.6 0,0.6 z m 2.25,0 1.8,0 -0.6,-1.65 0,-0.6 -1.2,0 0,2.25 z m 36.6,-1.05 0.6,0 0,-0.6 -0.6,0 0,0.6 z m -34.35,-1.2 1.2,-1.2 -1.2,0 0,1.2 z m -15,-1.2 0,0.6 0,-0.6 z m 5.7,0.9 1.8,-0.9 -0.6,-0.6 -1.2,0.6 0,0.9 z m 34.8,-0.3 0.6,0 0,-0.6 -0.6,0 0,0.6 z m -38.25,-0.6 0.6,0 0,-0.6 -1.2,0 0.6,0.6 z m 43.65,-1.8 1.05,0 -1.05,-0.6 0,0.6 z m -43.65,-0.6 0.6,0 0,-0.6 -0.6,0 0,0.6 z m 4.65,-1.8 0,1.2 0,-1.2 z m 31.95,0.6 0.6,0 0,-1.05 -1.8,0 1.2,1.05 z m 15.6,-1.65 0.6,0 -0.6,-0.6 0,0.6 z m -53.4,-0.6 0.6,0 2.4,-2.25 -1.8,0 -1.2,2.25 z m 20.85,-0.9 -0.9,-2.55 -0.6,1.2 -1.35,0.45 2.85,0.9 z m 18,-0.9 1.8,0 1.05,-0.9 -2.25,-4.35 0,1.8 0.6,1.2 0,1.2 -1.2,1.05 z m -33,-1.65 0.6,0 -0.6,-0.6 -1.2,0 1.2,0.6 z m -6.3,-0.6 0.45,0 0,-1.2 -0.45,0.6 0,0.6 z m 55.8,-0.6 0.6,0 0,-0.6 -0.6,0.6 z m -34.8,-0.6 1.05,-0.45 0,-0.6 -2.25,0 1.2,1.05 z m 15.45,0 1.2,0 0,-0.45 -1.2,0 0,0.45 z m 9.9,0 -0.45,0 0.45,0 z m 3.45,0 0.6,0 0,-0.45 -0.6,0 0,0.45 z m -14.4,-1.8 0.45,0 0,-0.45 -0.45,0.45 z m -30.3,-1.05 0.6,0 0,-0.6 -0.6,0 0,0.6 z m 15.9,0 0.45,0 0,-0.6 -0.45,0 0,0.6 z m 16.65,0 0,-1.65 -0.6,0 -1.2,1.05 1.8,0.6 z m 2.25,0 -0.6,0 0.6,0 z m -26.55,-1.05 -0.6,0 0.6,0 z m 37.65,0 -0.6,0 0.6,0 z m 2.85,-0.6 0,0.6 0,-0.6 z m -48.75,-0.6 0.6,0 0.6,-0.6 -1.2,0 0,0.6 z m 36,-1.8 0,1.2 0,-1.2 z m 8.25,0.6 -0.6,0 0.6,0 z m 2.25,-1.05 1.2,0 0,-0.6 -1.2,0 0,0.6 z m -2.85,-7.65 0.6,0 -0.6,-0.6 0,0.6 z m -29.7,-3.45 0.75,0 0.6,-1.2 -1.35,0 0,1.2 z m 2.4,-1.8 0.6,0 0,-0.6 -0.6,0.6 z m -8.7,-2.85 0.6,0 1.05,-1.2 -1.65,0 0,1.2 z m 0,-2.4 -0.6,0 0.6,0 z m 3.45,-2.4 1.2,0 0,-2.25 -0.6,0 -0.6,1.2 -0.6,0.45 0.6,0.6 z m 18.6,0 0.6,0 -0.6,-0.6 -0.6,0 0.6,0.6 z m -12.75,-0.6 0.6,0 0,-0.45 -0.6,0.45 z m 16.8,-0.45 0,0.45 0,-0.45 z m -12.15,-1.2 -0.6,0 0.6,0 z m -10.5,-1.2 0,0.6 0,-0.6 z m 15,0.6 0,-0.6 -0.6,0 0.6,0.6 z m 6,0.45 1.5,-1.5 -2.7,-0.75 1.2,2.25 z m -18.15,-1.05 1.35,-1.05 0.6,-1.2 1.05,-1.2 -1.05,0 -2.55,2.4 0.6,1.05 z m 11.55,-1.65 1.2,0 -0.6,-0.6 -0.6,0 0,0.6 z m 3.6,0 1.65,0 0,-0.6 -1.05,0 -0.6,0.6 z m -6.3,-1.8 0.6,0 0,-0.6 -0.6,0.6 z m 13.2,-1.05 0.6,0 -0.6,-0.6 0,0.6 z m -7.8,-1.5 0.9,-1.05 1.65,-1.05 0,-1.2 1.8,-1.2 -1.2,-1.65 -0.6,0 -0.75,2.55 -2.7,2.55 0.9,1.05 z m -7.8,-1.65 0.6,0 -0.6,-0.45 -0.6,0 0.6,0.45 z m 11.55,-0.45 2.25,0 0,-0.6 -1.65,0 -0.6,0.6 z m -0.6,-5.25 0,-0.45 -0.6,0 0.6,0.45 z m -8.55,-1.05 -0.6,0 0.6,0 z m 8.55,-0.45 0.6,0 0,-0.6 -0.6,0.6 z m -2.85,-0.6 1.2,0 0.6,-0.6 -0.6,-0.6 -1.2,1.2 z m -3,-1.8 -0.45,-1.2 -0.6,0 0,1.2 1.05,0 z"
         inkscape:connector-curvature="0" />
    </g>
  </g>
  <flowRoot
     xml:space="preserve"
     id="flowRoot4136"
     style="font-style:normal;font-weight:normal;font-size:40px;line-height:125%;font-family:sans-serif;letter-spacing:0px;word-spacing:0px;fill:#000000;fill-opacity:1;stroke:none;stroke-width:1px;stroke-linecap:butt;stroke-linejoin:miter;stroke-opacity:1"
     transform="matrix(0.28222179,0,0,0.94157635,-6.7396815,-434.51028)"><flowRegion
       id="flowRegion4138"><rect
         id="rect4140"
         width="674.28571"
         height="808.57141"
         x="54.285713"
         y="100.93363" /></flowRegion><flowPara
       id="flowPara4142"
       style="font-style:normal;font-variant:normal;font-weight:normal;font-stretch:normal;font-size:180px;font-family:'SkyFall Done';-inkscape-font-specification:'SkyFall Done'">saiTEja</flowPara></flowRoot>  <flowRoot
     xml:space="preserve"
     id="flowRoot4716"
     style="font-style:normal;font-weight:normal;font-size:40px;line-height:125%;font-family:sans-serif;letter-spacing:0px;word-spacing:0px;fill:#000000;fill-opacity:1;stroke:none;stroke-width:1px;stroke-linecap:butt;stroke-linejoin:miter;stroke-opacity:1"
     transform="matrix(5.2246181e-4,0.28222168,-1.9506785,8.4137425e-4,783.70188,-49.888073)"><flowRegion
       id="flowRegion4718"><rect
         id="rect4720"
         width="128.57144"
         height="254.28575"
         x="154.28572"
         y="180.93364" /></flowRegion><flowPara
       id="flowPara4722"
       style="font-style:normal;font-variant:normal;font-weight:bold;font-stretch:normal;font-size:180px;font-family:sans-serif;-inkscape-font-specification:'sans-serif Bold'">[</flowPara></flowRoot>  <flowRoot
     xml:space="preserve"
     id="flowRoot4136-2"
     style="font-style:normal;font-weight:normal;font-size:40px;line-height:125%;font-family:sans-serif;letter-spacing:0px;word-spacing:0px;fill:#000000;fill-opacity:1;stroke:none;stroke-width:1px;stroke-linecap:butt;stroke-linejoin:miter;stroke-opacity:1"
     transform="matrix(-0.00188333,-0.28222033,1.9554279,-0.00302554,-449.90214,115.44803)"><flowRegion
       id="flowRegion4138-5"><rect
         id="rect4140-0"
         width="674.28571"
         height="808.57141"
         x="54.285713"
         y="100.93363" /></flowRegion><flowPara
       id="flowPara4142-7"
       style="font-style:normal;font-variant:normal;font-weight:normal;font-stretch:normal;font-size:180px;font-family:'SkyFall Done';-inkscape-font-specification:'SkyFall Done'">saiTEja</flowPara></flowRoot>  <flowRoot
     xml:space="preserve"
     id="flowRoot4716-3"
     style="font-style:normal;font-weight:normal;font-size:40px;line-height:125%;font-family:sans-serif;letter-spacing:0px;word-spacing:0px;fill:#000000;fill-opacity:1;stroke:none;stroke-width:1px;stroke-linecap:butt;stroke-linejoin:miter;stroke-opacity:1"
     transform="matrix(-0.00188333,-0.28222033,1.9554279,-0.00302554,-449.90214,115.44803)"><flowRegion
       id="flowRegion4718-7"><rect
         id="rect4720-4"
         width="128.57144"
         height="254.28575"
         x="154.28572"
         y="180.93364" /></flowRegion><flowPara
       id="flowPara4722-6"
       style="font-style:normal;font-variant:normal;font-weight:bold;font-stretch:normal;font-size:180px;font-family:sans-serif;-inkscape-font-specification:'sans-serif Bold'">[</flowPara></flowRoot></svg>
