<?xml version="1.0" encoding="UTF-8" standalone="no"?>
<!-- Created with Inkscape (http://www.inkscape.org/) -->
<svg id="svg4144" xmlns:rdf="http://www.w3.org/1999/02/22-rdf-syntax-ns#" xmlns="http://www.w3.org/2000/svg" height="42.376mm" width="245.92mm" version="1.1" xmlns:cc="http://creativecommons.org/ns#" xmlns:dc="http://purl.org/dc/elements/1.1/" viewBox="0 0 245.91962 42.375668">
 <metadata id="metadata4150">
  <rdf:RDF>
   <cc:Work rdf:about="">
    <dc:format>image/svg+xml</dc:format>
    <dc:type rdf:resource="http://purl.org/dc/dcmitype/StillImage"/>
    <dc:title/>
   </cc:Work>
  </rdf:RDF>
 </metadata>
 <g id="layer1" transform="translate(-13.576 -31.818)">
  <g id="flowRoot4693" transform="scale(.28222)">
   <path id="path4702" d="m89.654 254.49-1.05-0.15-1.2-0.3h-1.8l-1.8-0.45h-0.3l-1.2-0.6-1.8-0.3-4.2-1.35-0.75-0.3-0.45-0.15-0.75-0.3-1.8-0.6-5.25-2.4-0.9-0.75-2.7-1.35-1.5-1.2-0.45-0.3-3.75-3-2.85-3.15-3.9-4.35-0.3-0.75-0.6-0.75-2.25-3.6v-0.6l1.35-0.6 0.75-0.3 0.75-0.6 3.75-2.1 0.3-0.15 7.65-4.5 0.45-0.15 1.2-0.6 0.9-0.6 0.3-0.15 0.45-0.3 2.1-1.05h0.6v1.05l0.75 0.15 0.9 1.5 2.4 2.55 1.95 2.1 1.35 1.5 1.2 0.9 3.15 2.4 3.3 1.8 0.15 0.15 1.05 0.45 0.45 0.15 0.75 0.3 0.6 0.15 0.3 0.15 3.15 0.75 1.5 0.15 1.65 0.45h8.85l1.8-0.45 1.2-0.15 0.45-0.15 1.35-0.3 2.7-0.9 0.6-0.15 0.45-0.3 2.25-1.35 3-2.4 1.95-2.55 0.9-1.8 0.9-2.4 0.15-0.9 0.15-0.6v-4.8l-0.15-0.6-0.3-1.65-0.6-1.65-0.3-1.05-1.65-2.55-2.55-2.25-4.05-2.7-7.35-3.9-6.9-3.15-0.45-0.15-0.6-0.3-1.8-0.9-0.6-0.3-1.5-0.6-0.45-0.45-0.9-0.45-1.2-0.15-2.25-1.05-1.5-0.45-0.9-0.75-0.9-0.3-2.25-1.35-0.45-0.6-1.35-0.3-2.7-1.5-1.2-1.2-0.9-0.3-1.35-0.75-1.5-1.5-0.75-0.3-0.45-0.9-1.05-0.3-4.5-4.35-0.45-0.9-0.15-0.6-0.9-0.75-1.8-2.55-0.9-1.8v-0.9l0.75-0.45 0.9-0.15-0.3-0.6h-2.25l-0.45-0.45-1.2-3.15-0.15-0.75-0.3-0.6v-1.05l0.45-0.3v-0.75l-0.45-0.45-0.6-0.3-0.6-3.75v-1.35l0.6-0.6v-0.45l-0.6-0.3-0.3-0.75v-3.45l0.3-1.2v-1.05l0.15-0.75v-1.05l0.15-0.75 0.15-1.35 0.6-2.25 0.15-1.35 0.75-1.65 0.75-2.4 0.9-1.2 0.6-1.5 2.7-4.35 2.25-2.25 1.2-0.45 0.15-0.15v-0.45l0.45-0.45 0.45-0.9 2.25-1.95 2.4-1.5 0.9-0.3 0.6-0.45 0.75-0.15 1.5-1.05h0.6v0.45l-0.15 0.6 0.15 0.15h0.45v0.45h0.3v-1.2l0.45-1.35 1.5-0.75 2.25-0.75 0.3-0.15 1.05-0.15 0.75-0.45 0.9-0.15 0.45-0.15 1.2-0.15 1.35-0.45h2.55l0.45 0.15 0.9-0.3 1.95 0.3 0.3-0.45 0.15-0.3h3.45l0.15 0.3h1.65l0.3-0.3h1.35l0.3 0.3 1.2 0.15h1.95l0.6 0.3 0.75 0.6 0.9-0.45 0.9 0.15 1.05 0.15 0.9 0.3 0.9 0.15 0.75 0.3 1.05 0.15 0.45 0.15 0.9 0.15 0.75 0.3 2.25 0.75 0.9 0.45 2.4 1.05 2.55 1.5 4.5 3.45 3.9 3.9 2.85 3.9 0.45 0.75 0.45 0.45 0.9 1.5v0.6l-3.75 2.4-0.6 0.45-14.1 9.15h-0.75l-2.4-3.6-2.7-2.7-2.85-2.4-0.75-0.3-0.6-0.3-0.75-0.3-1.2-0.6-0.6-0.15-0.6-0.3-1.2-0.15-0.9-0.45-2.4-0.3-1.2-0.15h-0.3l-5.4 0.45-1.65 0.6-1.05 0.15-0.6 0.3-1.5 0.45-0.45 0.45-0.45 0.3-0.6 0.75-1.8 1.35-1.5 2.55-1.2 1.05v1.05l-0.9 3v5.25l0.3 1.35 0.15 1.2 1.65 3.15 1.05 1.5 1.8 2.1 5.25 3.15 4.5 2.55 4.5 2.1 0.45 0.15 15.9 7.05 0.9 0.75 1.65 0.45 1.5 0.9 3.75 1.95 1.5 1.2 1.2 0.6 6.15 4.8 3.3 3.3 2.85 3.45 1.05 1.95 0.45 0.45 0.3 1.2 0.3 0.45 1.5 2.7 1.05 3.15 0.6 2.4 0.15 0.9 0.3 1.35 0.15 0.6v3.15l0.3 0.6v0.6l-0.6 0.75 0.75 0.75v4.35l-0.3 1.8v1.5l-0.45 1.95v0.9l-0.75 0.9 0.3 0.75-0.3 0.9-0.3 1.2-0.45 1.35-0.45 1.35-0.9 1.8-0.6 0.6-0.3 0.9-2.55 4.05-1.05 1.05-0.45 0.9-0.75 0.75h-0.75l0.45-1.05-0.6-0.3h-1.05v1.5l0.9 0.45-0.45 0.75-3.15 2.85-3.6 2.1-4.2 2.25-1.65 0.15-0.45 0.75-0.75 0.15-0.3 0.15-4.05 1.35-0.6 0.15-0.75 0.3-1.2 0.15-1.35 0.6-2.4 0.3-0.75 0.15-2.4 0.3-1.2 0.3h-3.75l-1.05-0.45-1.05 0.6h-3.75l-5.55-0.3-0.75-0.15zm8.7-0.45 0.3-0.6 0.9-0.75h-1.2l-0.3 0.75v0.6h0.3zm1.35-3.3 0.3-0.3v-0.6h-0.3l-0.3 0.3v0.3l0.3 0.3zm0.6-1.05h0.6l0.3-0.3v-0.6h-0.6l-0.3 0.3v0.6zm22.65-2.1 0.45-0.45v-0.75l-0.3-0.3-0.6 0.45v1.05h0.45zm-2.4-1.65 0.45-0.3v-0.45h-0.6l-0.3 0.45 0.45 0.3zm7.65-0.75h0.45v-0.45h-0.45v0.45zm-6.3-0.6h0.75l0.3-0.3-0.45-0.3h-0.3l-0.3 0.3v0.3zm8.85-2.55h0.45l0.45-0.3-0.45-0.3h-0.45l-0.3 0.3 0.3 0.3zm-12.15-1.65h0.15v-0.45h-0.15l-0.15 0.15 0.15 0.3zm2.55 0 1.05-0.45 0.75-0.3-0.45-0.45-1.8 0.3v0.45l0.45 0.45zm-22.35-0.9 0.15-0.15h-0.15v0.15zm19.35-0.15 0.45-0.6-0.15-0.45-0.9-0.15-0.45 0.6 1.05 0.6zm-46.95-1.35h0.3l0.15-0.15-0.15-0.15h-0.3v0.3zm36 0h0.15v-0.6h-0.45v0.3l0.3 0.3zm10.95-0.9h0.3v-0.15h-0.3v0.15zm21.75-7.2-0.45-0.9-0.3 0.3 0.3 0.45 0.45 0.15zm-65.85-1.95h0.15v-0.15h-0.15v0.15zm56.85 0 0.3-0.3-0.3-0.3-0.15 0.3 0.15 0.3zm-59.7-1.05h0.15l0.15-0.15-0.15-0.15h-0.15v0.3zm-5.85-2.55v-0.3l-0.3-0.3h-0.3l0.3 0.3 0.3 0.3zm74.25-0.9h0.45l0.3-0.3v-0.15h-0.45l-0.3 0.45zm-75.15-0.45v-0.6l-0.3-0.3-0.15 0.3 0.3 0.6h0.15zm68.85-5.1h0.15v-0.3h-0.15v0.3zm-6.15-0.15 0.15-0.15v-0.15h-0.3v0.15l0.15 0.15zm10.05-3.3v-0.6h-0.75v0.6h0.75zm-13.8-6.45h0.3v-0.3h-0.3v0.3zm0.9-2.25h0.45l0.45-0.3-0.45-0.3h-0.3l-0.3 0.3 0.15 0.3zm-33.15-14.1h0.3l0.45-0.45v-0.6l-0.9-0.45-0.9 0.15v0.45l1.05 0.9zm5.25-1.5h0.3v-0.45h-0.3v0.45zm1.5 0h0.3v-0.15l-0.45-0.6v0.45l0.15 0.3zm5.1-0.75h0.15l0.15-0.15h-0.15l-0.15 0.15zm-5.85-0.45h0.15l-0.15-0.15v0.15zm-6.15-0.75v-0.75h-0.9v0.75h0.9zm1.65-0.45h0.45v-0.45h-0.45v0.45zm2.1-0.75 0.15-0.3-0.15-0.3-0.3 0.3 0.3 0.3zm-1.65-0.9h0.9l0.3-0.3-0.45-0.3h-0.9l-0.15 0.15 0.3 0.45zm-5.4-0.75h0.3v-0.15l-0.15-0.15-0.15 0.15v0.15zm-4.95-0.15 0.45-0.3v-0.3h-0.3l-0.45 0.3 0.3 0.3zm3-0.15h0.6l0.45-0.75v-0.3h-0.3l-0.75 0.75v0.3zm-6.15-2.7h0.6l0.6-0.6-0.6-0.9-0.75 0.3-0.3 0.6 0.45 0.6zm5.7 0 0.6-0.6 1.2 0.3v-0.45l-1.05-1.05h-0.75l0.45 0.45v0.3l-0.3 0.15-0.75 0.3 0.6 0.6zm-10.2-0.45h0.3l0.15-0.6-0.3-0.6h-0.6l-0.3 0.3 0.3 0.6 0.45 0.3zm40.05-0.15h0.75v-0.45l-0.3-0.3h-0.75v0.45l0.3 0.3zm-26.25-0.45 0.3-0.3v-0.3h-0.45l-0.3 0.15 0.45 0.45zm-7.5-0.45v-0.45h-0.75v0.45h0.75zm2.55 0v-1.2h-0.6l0.3-0.9h0.3l0.15 0.6h0.45v-0.75l-0.3-0.45-0.3-0.6h-0.3v0.6l-0.3 0.3-0.6 0.75 0.45 0.45 0.3 1.2h0.45zm-5.7-0.6v0.15-0.15zm30.75-0.45h0.6v-0.45l-0.6-0.45-0.45 0.45v0.15l0.45 0.3zm-30-0.15h0.6l-0.15-0.15h-0.3l-0.15 0.15zm19.8 0h0.6v-0.75h-0.6l-0.3 0.3 0.3 0.45zm11.85-0.3 0.9-0.75v-0.3h-0.45l-0.45 0.45v0.6zm-41.25-0.75 0.9-0.15v-0.75h-1.2v0.75l0.3 0.15zm11.7-0.9 0.6-0.3v-0.6h-0.9l-0.3 0.3 0.6 0.6zm-12.9-0.45h0.45l0.15-0.15-0.15-0.3-0.3-0.15-0.45 0.45 0.3 0.15zm3.45 0v-0.3l-0.3-0.3-0.3 0.3 0.6 0.3zm0.6-0.9h0.3v-1.05h-0.9v0.75l0.6 0.3zm8.4-1.35h0.75l0.15-0.15-0.15-0.3h-1.05l-0.15 0.15 0.45 0.3zm-9.3-0.3h0.75l0.45-0.15h1.5v-0.3l-0.45-0.3-0.45-0.3 0.9-1.05v-0.45l-0.3-0.3-0.3 0.15-0.15 0.45-0.45 0.3v0.75l-0.45 0.45-1.05 0.3v0.45zm7.95 0h0.6l0.15-0.45-0.15-0.45h-0.45l-0.45 0.3v0.3l0.3 0.3zm-1.2-1.5h0.45v-0.6l-0.6 0.3 0.15 0.3zm2.85 0 0.3-0.15v-0.3h-0.6v0.3l0.3 0.15zm-9.75-0.6h1.05v-0.3h-1.05v0.3zm-2.55-0.75h0.15v-0.15l-0.15 0.15zm7.05 0 0.45-0.45-0.3-0.15h-0.9v0.3l0.75 0.3zm-6.75-0.9 0.3-0.3 1.2-0.15 0.9-0.75h1.35v-1.2l-0.3-0.6-0.75 0.3h-0.6l-0.3-0.3-0.15-1.05 0.9-0.3v-0.45l-0.6-0.3-0.75 0.6-0.3 0.45h-0.75l-0.9 0.3 0.45 0.45 0.75 0.15 1.05 1.05-1.2 0.15-0.6 0.45-0.45-0.15h-0.45v0.6l0.75 0.45 0.3 0.45 0.15 0.15zm8.85 0 0.15-0.15h-0.15v0.15zm1.95 0h0.6l1.8-0.75h0.9v-0.3l-0.6-0.6h-0.75l-1.8 1.05-0.9-0.45h-0.6v0.6l0.9 0.15 0.45 0.3zm-3.6-0.15h0.45l1.05-0.75 0.3-0.45-0.6-0.3-1.2 0.9-0.15 0.45 0.15 0.15zm-2.1-1.5h0.75l0.45-0.3h1.05l0.45-0.9-0.45-0.15h-0.9l-0.45 0.6-1.35 0.15v0.3l0.45 0.3zm9-2.4h0.45l-0.3-0.3-0.15 0.3zm-12.15-2.1h0.75l0.75-0.3v-0.6l-0.6-0.3 0.3-0.45v-0.9l-0.3-0.15-0.75 0.3-0.3 0.6-0.3 0.3v0.45l0.45 1.05zm5.4-1.05h0.3l0.15-0.6h2.25l0.45-0.3-1.05-0.45v-1.05h-0.75l-0.6-0.9v-1.8h-0.45v1.35l-0.45 0.9-0.75 0.3-1.05-0.45h-0.75v0.45l0.3 0.45v0.3l-0.6 0.45-0.3 0.6 0.3 0.3 0.9-0.3 0.75-0.6 0.6-0.15 0.6 0.45 0.15 1.05zm-16.5-1.05 0.45-0.3-0.15-0.15h-0.45v0.3l0.15 0.15zm23.4-0.3 0.9-0.6 0.9-0.3-0.45-0.45h-0.75l-0.3 0.3h-0.75v0.45l0.45 0.6zm-17.7-0.15 0.6-0.6h0.6v-0.3l-0.45-0.3-0.45-0.3h-0.45l-0.75 0.9 0.15 0.3 0.75 0.3zm-1.65-2.25h0.3v-0.45l-0.75-0.3v0.3l0.45 0.45zm6-0.75h0.3l0.3-0.3v-1.2h-0.75v0.6l0.15 0.3v0.6zm-0.9-1.05h-0.15 0.15zm6.15-0.15h0.45l0.15-0.45 0.75-0.75v-1.2l-0.15-0.3-0.6 0.3v1.2l-0.6 0.75v0.45zm-15.45-0.15 0.45-0.45v-0.45h-0.45l-0.45 0.45v0.45h0.45zm11.1-0.6h0.45l1.5-0.75v-0.6l-0.3-0.15-0.45 0.3-0.45 0.15-0.75 0.75v0.3zm-5.4-0.6 0.45-0.15 0.3-0.9-1.05-0.45h-0.6l-0.3 0.3 0.45 0.75 0.3 0.45h0.45zm-8.25-0.9h0.3l0.3-0.3-0.6-0.6-0.3 0.45 0.3 0.45zm3.75-1.05 0.15-0.6-0.15-0.15-0.6 0.3v0.45h0.6zm10.35-0.3h0.3v-0.15l-0.15-0.15-0.15 0.15v0.15zm-4.5-0.6 0.15-0.15v-0.3l-0.15-0.15-0.15 0.15v0.3l0.15 0.15zm-2.55-0.75 0.3-0.3h-0.45l-0.15 0.15 0.3 0.15zm3-0.15 0.75-0.3v-0.45l-0.6-1.05 0.3-0.75-0.45-0.3-0.75 0.3 0.15 0.6-0.3 0.45 0.6 1.35 0.3 0.15zm1.95 0h0.75l0.45-0.9 0.6-0.6 0.45-0.3 0.6 0.3-0.6 1.05h0.9l0.15-0.75 0.3-0.3h0.6l0.45-0.3v-3.45l1.2-1.2 0.3-0.45-0.45-0.45-1.2 0.75-0.6-0.15-0.15-0.45-0.45-0.15-0.15 0.15 0.3 0.6v0.6l-0.75 0.15-0.45 0.15-0.45-0.45h-1.05l-0.15 0.3-0.75 0.9-0.15 0.3-1.35 0.15-1.65-0.9-0.15 0.3 0.3 0.75h1.8l0.9 1.5h0.45l0.9-1.2 1.2 0.45 0.45 0.45-0.6 0.9-0.75 0.45h-0.75l-0.75-0.45-0.15 0.15v0.3l0.45 0.75v1.05zm-12-0.45h0.6l0.3-0.3 0.45-0.3 0.15-0.9 0.3-0.6 1.05-0.3 0.15-0.75 1.35-1.05 0.6-0.3v-0.15l-0.9-0.15-0.6 0.6-0.6-0.45h-0.45l-0.45 0.75-0.75 0.9-0.15 1.2-1.05 1.2v0.6zm6.45-4.2 0.45-0.15v-0.75l-0.3-0.3h-0.9v0.45l0.75 0.75zm9.15-1.05v0.3h-0.15v-0.3h0.15zm-12.45 0.15h0.6v-0.45h-0.6l-0.15 0.3 0.15 0.15zm6.15-0.45 0.6-0.9 0.75-0.3v-0.3h-0.75l-0.45 0.15h-0.9l-0.3 0.3v0.45l1.05 0.6zm-6.9-0.75v-0.6h-1.35v0.45l1.35 0.15zm10.8-1.05v-0.6l0.15-0.45-0.3-0.3-0.75-0.15-0.15-1.05h-0.75l0.3 0.9 0.45 0.6 0.3 1.05h0.75zm2.7-1.05 0.45-0.45v-0.6l-1.05-1.2-1.2 0.15 0.45 0.45v1.35l1.35 0.3zm-10.05-0.3h0.75v-0.45h-0.75v0.45zm15.3-0.3h-0.3 0.3zm-16.8-1.05h0.15l-0.15-0.15v0.15zm9.75-3.6v-0.6h-0.45v0.6h0.45zm2.7-0.3 0.9-0.45 0.6-0.15v-1.65l0.3-0.3 0.9-0.15 0.6-0.6v-2.25l0.45-1.35 1.2-0.75 0.6-0.45-0.3-0.3h-1.5l-0.3-0.3-0.15-0.9-0.75-0.15-0.3 0.3 0.9 1.05v0.6l-0.75 0.75-0.3 0.6-0.6 0.3v1.2l-0.75 1.2 0.15 0.9-0.3 0.3-0.6-0.15h-0.45v2.55l0.45 0.15zm-14.25-0.15 0.3-0.15v-0.3l-0.45-0.45-0.3 0.45 0.15 0.3 0.3 0.15zm19.2-0.15h0.9l0.9-0.9v-0.75l-1.5 1.35h-0.9l0.6 0.3zm2.25-2.85h0.45l0.9-0.45v-0.75l-0.3-0.15-1.05 0.3v1.05zm25.35-1.2h0.3l0.3-0.15-0.3-0.15-0.3 0.15v0.15zm-28.05-0.15h0.6v-0.6h-0.9v0.3l0.3 0.3zm24.9-0.15 0.9-0.9v-0.45l-0.6-0.3-0.75 0.75-0.6 0.3v0.6h1.05zm-2.55-0.45 0.9-0.3v-0.45l-0.45-0.3-0.45 0.3-0.3 0.45 0.3 0.3zm-16.65-0.45 1.2-1.35v-0.6l-0.9-0.45-1.65 0.75-0.45 1.05 0.3 0.3 0.9-0.45 0.6 0.75zm9.15-0.15h0.6v-0.45l-0.15-0.15-0.45 0.3v0.3zm-1.35-0.3h0.15v-0.15l-0.15-0.15v0.3zm4.2-0.3h0.45l-0.15-0.15-0.3 0.15zm3.6 0h0.15l-0.15-0.15v0.15zm-2.1-0.45h0.75v-0.6l-0.6-0.45-0.45 0.3v0.45l0.3 0.3zm-28.5-1.05h0.3v-0.9h-0.45l-0.3 0.45 0.45 0.45zm19.35-0.45h0.3l0.15-0.3-0.15-0.15h-0.3v0.45zm-0.75-0.9h0.45l-0.3-0.15-0.15 0.15zm21.9 0h0.45v-0.3h-0.45v0.3zm-1.35-0.15-0.15-1.05h-0.6l-0.6 0.6v0.45h1.35zm-10.2-0.45h0.3v-0.75h-0.6v0.45l0.3 0.3zm-20.85-0.15h0.45v-0.45l-0.3-0.3-0.45 0.3 0.3 0.45zm6.9-0.15 0.15-0.15-0.15-0.15h-0.15v0.15l0.15 0.15zm7.2-0.3h-0.3 0.3zm0.3-0.75 0.45-0.45-0.45-0.75-1.5 0.6-0.3 0.3h1.35l0.45 0.3zm-11.4-0.3v-0.3l-0.45-0.45-0.3-0.15-0.6-0.45h-0.6v0.6l0.6 0.6h0.75l0.6 0.15zm26.7 0v-0.6l-0.3-0.3h-0.6v0.9h0.9zm2.85-0.15h0.15v-0.3l-0.15-0.15-0.15 0.15 0.15 0.3zm-28.05 0 0.45-0.3-0.45-0.75h-0.45v0.6l0.45 0.45zm17.55-1.5h0.45v-0.3h-0.45v0.3zm4.05 0 1.2-0.45 0.3-0.6 0.75-0.15v-0.3h-0.75l-0.45 0.3-0.6 0.15-0.6 0.6 0.15 0.45zm-34.95-0.15 1.05-0.15 0.9-0.9v-1.05l-0.75-0.45h-0.6l-0.75 1.5-0.3 0.75 0.45 0.3zm19.35-0.15h0.6l0.3-0.3-0.3-0.3h-0.3l-0.3 0.3v0.3zm9.6-0.3h0.45l-0.45-0.6h-0.45l-0.45-0.9-0.45 0.45 0.3 0.6 1.05 0.45zm-30.45-0.15h0.3l0.15-0.15h-0.3l-0.15 0.15zm4.5 0h0.6l0.3-0.3v-0.15h-0.9v0.45zm11.85 0v-0.3l-0.15-0.3v-0.75l0.45-0.9v-0.3h-0.45l-0.45 0.6-0.15 0.9-0.45 0.45v0.45l1.2 0.15zm14.7 0h0.6v-0.3l-0.3-0.3-0.3 0.45v0.15zm4.65-0.45v-0.3h-0.75v0.3h0.75zm5.55 0h0.45v-0.45h-0.45v0.45zm-1.95-0.3h0.6l0.45-0.45v-0.3h-0.6l-0.45 0.45v0.3zm-15.3-0.75h0.3v-0.45l-0.3-0.3h-0.3v0.45l0.3 0.3zm2.85-0.15h0.6v-0.45h-0.6v0.45zm25.65-0.15 0.6-0.45 0.15-0.75-0.15-0.45-0.6 0.3-0.3 0.6 0.3 0.75zm-47.85-0.3 0.75-0.3v-1.2l-0.45 0.3-0.3 0.15-0.6 0.45 0.6 0.6zm44.1-0.15h0.6v-0.6h-0.45l-0.45 0.3 0.3 0.3zm-36.9-0.15 0.15-0.15v-0.6h-0.45v0.6l0.3 0.15zm17.4 0 0.3-0.3h-0.6v0.15l0.3 0.15zm-8.1-0.15h1.35l0.6-0.45v-0.6h-1.35l-0.45-0.6-0.6 0.3v0.9l0.45 0.45zm11.1-0.3h0.45l0.15-0.15-0.3-0.6-0.6 0.3 0.3 0.45zm5.7 0v-0.45l-0.6-0.6h-0.15v1.05h0.75zm12.15-0.45h0.3l1.05-0.75v-0.15h-0.45l-0.9 0.6v0.3zm-33-1.05 0.9-0.3v-0.6h-0.45l-0.75 0.6 0.3 0.3zm19.95-1.05h0.45v-0.45h-0.45v0.45zm-13.95-0.45h1.65l0.15-0.15-0.15-0.6h-1.8l-0.3 0.3v0.3l0.45 0.15zm-10.5-0.3 0.6-0.3v-0.6h-0.6v0.9zm25.2-0.45h0.3v-0.6h-0.3v0.6zm-3.6-0.45h0.6l-0.45-0.6h-0.45l-0.3 0.3 0.6 0.3zm-21.45-0.6h-0.15 0.15zm6.6-0.15h0.45v-0.45h-0.45v0.45zm24.45 0h0.15v-0.9l-0.3-0.15-0.3 0.3v0.3l0.45 0.45zm-11.7-0.6h0.6v-0.6l-0.3-0.3h-0.6v0.6l0.3 0.3zm1.2-1.05h0.75v-0.3l-0.6-0.3-0.3 0.3 0.15 0.3zm-5.7-0.15 0.3-0.3-1.05-1.05-0.3 0.15v0.75l1.05 0.45zm1.65-0.3 0.3-0.15v-0.45h-0.75v0.45l0.45 0.15zm-4.05-0.6h0.15l0.15-0.3-0.15-0.15-0.15 0.15v0.3z"/>
   <path id="path4704" d="m168.23 261.24v-1.05l1.65-3.45 0.6-1.95 2.4-4.65 0.6-1.65 20.7-47.1 1.2-0.6v-2.25l5.4-12.3 1.05-2.25 7.35-16.65 1.5-0.75v-2.85l3-6.3 1.65-0.75v-4.05l5.85-11.55 0.6-0.6v-1.65l2.85-6 2.25-2.85v-0.6l-1.8 1.05 4.95-10.35h0.9l1.05 2.25v3.6h1.2l3.15 5.4 0.9 3.9 1.2 1.2 16.05 34.8-1.5 3 2.25-1.2 40.8 88.8h-21l-1.65 0.6-7.2-0.6-1.65-5.4 1.2-2.25-0.45-0.6h-2.4l-1.2-3.45-1.35-3.45h1.2l0.75-1.65h2.25l3-2.4h2.4l1.2-1.2v-0.6h-1.8l-4.65 2.25h-1.8l-1.2-1.05v-0.9l2.7 1.35-1.5-2.25v-1.05h-0.6l-4.05 3.9h-3.6l-1.65-1.65v1.65h-11.7l-0.6-0.45h-2.25l-1.2-1.2-1.65 0.6-3 0.6-0.75 0.9-0.9-2.1h-0.6l-1.2 2.1-2.1-1.95-1.8 1.05h-1.2l-0.6 0.45h-19.95l-2.7 4.2v-1.05h-0.6l-0.6 0.45 1.05 2.25-6.45 13.5h-14.25l-4.35-0.6-7.35 0.6-0.6-0.6 0.6-0.6zm3.45-1.05v0.45-0.45zm97.2 0v0.45-0.45zm21.75 0h0.6l0.6-0.6h-1.2v0.6zm-100.35-1.2h0.45v-0.6h-0.45v0.6zm83.1-1.2v0.6-0.6zm3.3 0.6 0.6-0.6h-0.6v0.6zm-100.8-2.4h-0.6 0.6zm96.9-0.6h0.6l-0.6-0.6v0.6zm-89.4-2.25h-0.6 0.6zm7.35 0h1.2v-1.2l-0.6-0.6-0.6 0.6v1.2zm95.4 0h-0.6 0.6zm-11.55-0.6-0.6-1.2h-0.6v1.2h1.2zm-9.45-1.35 0.6-1.5h-0.45l-0.9 0.75 0.9-3.15h-0.75l-1.95 2.7 2.55 1.2zm-72.6-1.5v-1.8h-1.2v1.8h1.2zm75.6-1.8h0.75v-0.6h-0.75v0.6zm-70.8-1.2v-1.05h-1.35v1.05h1.35zm-15.15-0.9v-2.1h-2.25v1.35l2.25 0.75zm18-2.1h1.65l1.2-1.65h-1.2l-1.65 1.65zm60.45 0h-0.6l0.6-0.6v0.6zm-53.25-0.75 5.55-1.35v-1.35h-1.65l-1.2 1.2-1.8 0.6-0.9 0.9zm41.55-1.5h-0.6 0.6zm16.35 0h1.65v-1.2h-1.65v1.2zm-37.8-1.2h1.8l-0.6-0.6h-1.2v0.6zm28.35 0h0.6l-0.6-0.6v0.6zm-67.8-1.05h-0.6 0.6zm15.6 0.15v-1.95l-1.05-1.05-0.75 2.25 1.8 0.75zm7.05-0.15h1.65v-1.8h-0.75l-0.9 1.8zm60.45 0.15v-1.35h-1.8l-0.45 0.6 2.25 0.75zm-66.3-0.75h1.05v-1.2h-1.05v1.2zm2.85-0.6h2.4v-1.8l1.8-1.05v-1.2h-1.2l-1.65-0.9-1.35 1.5 0.6 0.6 0.75 2.25-1.35 0.6zm53.55 0 1.05-1.2h1.2v-1.05l-3.3 1.2 1.05 1.05zm5.1 0h1.2v-0.6h-0.6l-0.6 0.6zm-49.95-0.6h0.6l-0.6-0.6v0.6zm15.15 0h0.45v-0.6l-0.45 0.6zm-26.7-1.2 0.45-0.45v-1.2l-2.25-0.6v-0.6l2.7-1.35-1.95-2.1 4.5-1.65 1.05-3.15 1.95-0.9 0.6-1.2h-1.8l-1.35 0.6h-2.85l-0.6-0.6-0.45 1.2-1.2 0.6 0.6 0.45h3.15l-0.9 1.8v0.45h-1.2l-2.85-1.65-0.6 1.2-1.65 0.45-1.35-1.2 3-1.05v-0.45l-1.65-1.2h-2.55l0.75 1.65-0.6 0.6h-2.4v2.25l0.6 0.45 1.65-0.6 0.75 0.6h4.05v3h-1.95l0.9 1.8 0.45 1.8 1.8 0.6 1.2 0.45zm17.55 0h1.05v-0.45l-0.6-0.6 1.2-0.6-1.65-2.4 0.45-0.6h2.4v-1.2h-3.45l-1.35 1.2v2.1l1.95 2.55zm3.45 0 0.45-0.45h-1.05l0.6 0.45zm10.35-0.45v0.45-0.45zm25.05-0.6 2.25-1.2-0.6-0.6-1.2 0.6h-1.05v0.6l0.6 0.6zm-31.35-0.6 0.9-2.1-1.5 0.9-1.8-1.8h-1.95l0.9 2.1 3.45 0.9zm-16.35-0.6 2.85-1.8-1.05-1.2h-1.2v1.8h-0.6l-0.75-2.4h-4.05v0.6l2.55 1.2 2.25 1.8zm53.4-1.8h0.6v-0.6h-0.6v0.6zm-37.05-0.6h1.65v-1.2h-1.65v1.2zm40.65-0.6 2.25-0.6 0.75-2.1-2.4-1.8v1.65l1.5 0.6-2.1 2.25zm-6.45-1.8h2.25v-0.6h-1.05l-1.2 0.6zm-53.4-0.6h0.6l0.75-2.1h-1.35v2.1zm2.25-0.45h0.6l0.6-0.6h-0.6l-0.6 0.6zm-10.5-0.6h0.6-0.6zm-10.5-1.05h2.85v-3.45h3v-1.65l-1.8 0.75v-0.75l0.9-0.9-0.9-2.25-2.25 1.8v3.9l-1.8 2.55zm-1.2-0.6 0.9-1.65h-1.95v0.6l1.05 1.05zm32.7 0 1.2-0.6-1.2-1.05v1.65zm3.45-0.6h1.2v-1.05h-1.2v1.05zm38.1 0.3 0.75-0.75-0.75-0.9-0.9 0.9 0.9 0.75zm-33.45-1.35v-0.6l-0.6-0.6v0.6l0.6 0.6zm-42.9-0.6 1.5-1.65-1.5-0.6v2.25zm27.75 0 1.2-1.2v-1.05l-0.6-0.6 1.2-0.75h5.25l-0.6 0.75-0.45 1.05 1.35-0.75 1.5 0.75 1.05-0.9-1.65-0.9h19.05l4.2-0.6-6.6-17.4v-1.8l-1.05-1.05-4.05-10.2v-2.7l-1.2-1.8-1.65-2.85 1.05-1.05-1.8-1.65-1.95-6.45-5.4 14.4h-1.2l-0.6 0.6 1.35 0.75-7.35 19.5h-1.65v0.6l0.6 0.75v1.2l-2.25-1.95v3l1.35 0.6-1.65 4.8-1.95 2.7 0.45 0.6h0.6l1.2 0.75 2.25 0.75v2.1zm25.5-0.6 0.6-0.6v-0.6h-0.6l-0.6 0.6 0.6 0.6zm-42.9-0.6h1.2l0.6-0.6h4.5l4.2-2.1v-0.9h-2.4l-3 1.65-1.35-1.35-1.35 1.65h-2.4v1.65zm-8.25-1.05v-0.6h-0.45l0.45 0.6zm7.65-1.95 1.2-2.25 1.8-0.6-1.5-2.1 1.95 0.9h3.45v1.35l2.4-0.75 0.75-0.75 1.65 0.75v-0.6l-3.3-3.3 1.95-0.75v-1.05l-1.05-0.6-0.6-0.6h-1.2l0.9 1.5-1.95 1.95-0.6 1.2-1.2-1.2h-0.6v1.2h-3.15l-0.9 1.65-1.8 0.6 0.75 0.6 0.45 2.25 0.6 0.6zm69.15 0h2.4v-1.2l-3.3-0.45 0.9 1.65zm-66.75-1.2h0.6v-0.45h-0.6v0.45zm-7.05-1.05 0.45-1.2v-1.5l3.6-1.2v-0.75h-1.8l-0.9-1.65h2.7l1.2 1.05h0.9l0.9-1.65 1.65-1.95v-0.6h-1.05l-1.8 1.95v-1.95h-0.6l-2.4 2.55-1.2-1.2h-1.2l-1.35 2.1 1.65 0.9-0.75 1.65v3.45zm72-1.2 1.2-1.2h-1.2v1.2zm4.2-1.65h0.6v-0.6h-0.6v0.6zm-59.25-3v-1.05h-0.6v0.6l0.6 0.45zm61.05-0.45v0.45-0.45zm-66.9-1.2h-0.6 0.6zm3.9-1.35 1.95-0.6v-1.2l-2.7 0.9 0.75 0.9zm44.25 0h0.6v-0.6h-0.6v0.6zm-39.45-0.6 0.6-0.45v-0.6l-0.6 0.6v0.45zm-18.75-1.05v-0.6l-1.05-1.2v1.8h1.05zm60.45 0v-1.2h-2.25l0.6 0.6 1.65 0.6zm-40.5-1.2 1.05-0.6v-0.6l-1.05 1.2zm-11.1-0.6h0.6l-0.6-0.6v0.6zm6.45 0h1.8l-1.2-1.65v-0.6l-0.6-0.6-1.8 1.2v1.05l1.2-0.45 0.6 1.05zm44.1-2.25h2.25v-1.2h-0.6l-1.65-0.9v2.1zm-54.6-0.3 3.75-1.95-2.55-1.2v1.05l-1.2 0.6v1.5zm8.1-0.9v0.6-0.6zm59.25 0v0.6-0.6zm-69.6 0v-0.6h-0.75l0.75 0.6zm9.75-1.2v0.6-0.6zm4.2 0.6h1.05l-1.05-0.6v0.6zm2.25 0h1.8l-0.6-1.65v-0.6h-1.2v2.25zm36.6-1.05h0.6v-0.6h-0.6v0.6zm-34.35-1.2 1.2-1.2h-1.2v1.2zm-15-1.2v0.6-0.6zm5.7 0.9 1.8-0.9-0.6-0.6-1.2 0.6v0.9zm34.8-0.3h0.6v-0.6h-0.6v0.6zm-38.25-0.6h0.6v-0.6h-1.2l0.6 0.6zm43.65-1.8h1.05l-1.05-0.6v0.6zm-43.65-0.6h0.6v-0.6h-0.6v0.6zm4.65-1.8v1.2-1.2zm31.95 0.6h0.6v-1.05h-1.8l1.2 1.05zm15.6-1.65h0.6l-0.6-0.6v0.6zm-53.4-0.6h0.6l2.4-2.25h-1.8l-1.2 2.25zm20.85-0.9-0.9-2.55-0.6 1.2-1.35 0.45 2.85 0.9zm18-0.9h1.8l1.05-0.9-2.25-4.35v1.8l0.6 1.2v1.2l-1.2 1.05zm-33-1.65h0.6l-0.6-0.6h-1.2l1.2 0.6zm-6.3-0.6h0.45v-1.2l-0.45 0.6v0.6zm55.8-0.6h0.6v-0.6l-0.6 0.6zm-34.8-0.6 1.05-0.45v-0.6h-2.25l1.2 1.05zm15.45 0h1.2v-0.45h-1.2v0.45zm9.9 0h-0.45 0.45zm3.45 0h0.6v-0.45h-0.6v0.45zm-14.4-1.8h0.45v-0.45l-0.45 0.45zm-30.3-1.05h0.6v-0.6h-0.6v0.6zm15.9 0h0.45v-0.6h-0.45v0.6zm16.65 0v-1.65h-0.6l-1.2 1.05 1.8 0.6zm2.25 0h-0.6 0.6zm-26.55-1.05h-0.6 0.6zm37.65 0h-0.6 0.6zm2.85-0.6v0.6-0.6zm-48.75-0.6h0.6l0.6-0.6h-1.2v0.6zm36-1.8v1.2-1.2zm8.25 0.6h-0.6 0.6zm2.25-1.05h1.2v-0.6h-1.2v0.6zm-2.85-7.65h0.6l-0.6-0.6v0.6zm-29.7-3.45h0.75l0.6-1.2h-1.35v1.2zm2.4-1.8h0.6v-0.6l-0.6 0.6zm-8.7-2.85h0.6l1.05-1.2h-1.65v1.2zm0-2.4h-0.6 0.6zm3.45-2.4h1.2v-2.25h-0.6l-0.6 1.2-0.6 0.45 0.6 0.6zm18.6 0h0.6l-0.6-0.6h-0.6l0.6 0.6zm-12.75-0.6h0.6v-0.45l-0.6 0.45zm16.8-0.45v0.45-0.45zm-12.15-1.2h-0.6 0.6zm-10.5-1.2v0.6-0.6zm15 0.6v-0.6h-0.6l0.6 0.6zm6 0.45 1.5-1.5-2.7-0.75 1.2 2.25zm-18.15-1.05 1.35-1.05 0.6-1.2 1.05-1.2h-1.05l-2.55 2.4 0.6 1.05zm11.55-1.65h1.2l-0.6-0.6h-0.6v0.6zm3.6 0h1.65v-0.6h-1.05l-0.6 0.6zm-6.3-1.8h0.6v-0.6l-0.6 0.6zm13.2-1.05h0.6l-0.6-0.6v0.6zm-7.8-1.5 0.9-1.05 1.65-1.05v-1.2l1.8-1.2-1.2-1.65h-0.6l-0.75 2.55-2.7 2.55 0.9 1.05zm-7.8-1.65h0.6l-0.6-0.45h-0.6l0.6 0.45zm11.55-0.45h2.25v-0.6h-1.65l-0.6 0.6zm-0.6-5.25v-0.45h-0.6l0.6 0.45zm-8.55-1.05h-0.6 0.6zm8.55-0.45h0.6v-0.6l-0.6 0.6zm-2.85-0.6h1.2l0.6-0.6-0.6-0.6-1.2 1.2zm-3-1.8-0.45-1.2h-0.6v1.2h1.05z"/>
   <path id="path4706" d="m318.96 230.04 2.85 0.45v-0.6l-2.85-0.9-0.45-97.95 1.05-1.65-0.9-1.65v-7.5l3.15-0.3 1.35 0.3-0.6 1.65h0.75l1.8-1.65h4.05l3.6-0.3 2.25 0.3 1.2-0.3 2.4 0.3h5.7v2.1l0.75 0.6 1.05-0.6-0.75-1.65h1.2v16.5h-0.9v0.6l0.9 0.6v36.15l-1.65 0.9v0.6l1.65-0.45v20.1h-0.9l-0.75 1.05 1.05 1.8-1.05 0.45 0.6 1.5h-0.75l-0.9 0.75 0.9 0.45 0.9-0.9h0.45v1.8h-1.2l-0.6 1.95h-1.8v0.9l2.55 1.35 1.05-3 0.45 0.75v4.35l-0.45 1.35 0.45 1.05v3.75l-0.6 1.5 0.6 1.65-0.45 1.95-0.75 0.9v0.6l1.2 0.75v27l-1.05 1.8 0.6 1.65v9.3l-1.05 0.6-2.55-1.95v-1.2h-1.8l1.05 0.9 0.75 1.65-0.75 0.45-3.45-0.45h-2.85l-0.6-1.2h-0.6l-0.9 1.65h-14.4v-32.55zm20.7 28.95h0.3v-0.45l-0.3-0.45v0.9zm-2.4-0.45h0.45l0.6-0.75h-1.05v0.75zm-4.95-0.45h0.9v-3l-0.45-1.2h-0.9v2.4l-0.45 0.3v0.75l0.9 0.75zm-7.2-0.75v0.45-0.45zm0.6-1.05h0.3v-0.3h-0.3v0.3zm3.45-0.75h0.45v-0.45h-0.6l0.15 0.45zm-4.95-1.65v0.45-0.45zm10.05 0.3 1.95-0.9v-1.05h-2.55v1.2l0.6 0.75zm5.1-0.75h-0.3 0.3zm-10.35-0.3 0.6-0.3h-0.6v0.3zm1.65-1.95 0.45-1.8 0.75-0.6 0.45-1.2-0.6-0.6-2.1 1.95v2.25h1.05zm11.1 0 0.45-0.6 1.05-1.05-0.75-0.6-0.75 0.9v1.35zm-7.35-1.35 2.7-0.45-0.9-1.05h-2.55l0.3 0.45 0.45 1.05zm-11.85-0.9h0.75v-1.2l-0.45 1.05-0.3 0.15zm6-1.35 1.5-0.6v-0.45h-1.05l-1.2 0.3 0.75 0.75zm6.9-1.95h1.8v-1.05h-1.8l-0.45 0.6 0.45 0.45zm-14.85-2.25h0.15l-0.15-0.15v0.15zm12.3-0.15 1.05-0.45-0.3-0.45h-1.35v0.45l0.6 0.45zm10.35-0.45v-1.8l-0.3-0.45-0.6 2.25h0.9zm-21.75-0.45h0.3v-0.45h-0.3v0.45zm17.55-0.9v0.45-0.45zm-5.1-0.45h0.6l0.9-0.9v-1.05h-0.45l-0.45 0.9-0.6 0.6v0.45zm8.25-1.05h0.3l-0.3-0.45v0.45zm-19.35-1.35h0.45l0.6-0.75-0.6-0.3-0.45 0.3v0.75zm-3.15-1.05h0.45v-0.45l-0.45 0.45zm4.65-0.45h0.75v-0.45l-0.3-0.45-0.45 0.45v0.45zm-1.05-1.8 0.9-0.9 1.2-0.45-0.6-0.75-1.5 0.75v1.35zm9.3-0.45v-0.45h-0.3l0.3 0.45zm0.6-1.05h0.45v-0.9l-0.45-0.45v1.35zm3.75-0.45h1.2l0.9-2.4h0.3l0.6 1.95 1.35-1.35-1.65-3.3-0.3 1.05-1.05 0.3-0.15 0.45-0.9 0.45v0.9h-2.25v0.9l1.95 1.05zm-5.55-1.65v-0.75l-0.3 0.45 0.3 0.3zm3-0.75v-0.75l-1.65-0.75v1.5h1.65zm-8.4-0.3h-0.3 0.3zm-0.9-1.2 0.9-0.45h-0.9v0.45zm12.6-0.3 0.6-1.35 1.05-0.45 0.3-0.45-0.3-1.05v-2.4l-0.9-0.6-0.75 0.6 0.9 2.1-0.9 0.3 0.45 0.45v0.6l-1.65 0.6 0.45 1.05 0.75 0.6zm-2.25-3.6h0.6l-1.5-2.1-0.6 0.45 0.45 0.9 0.6 0.15 0.45 0.6zm-4.35-0.75h1.2l0.3-0.9 0.6-0.45v-0.45h-0.6l-0.45 0.9-1.65-0.6v0.6l0.6 0.9zm5.85-0.9v-0.45l-1.05-0.45-1.05-1.5h-0.45v1.05l1.8 1.95 0.75-0.6zm-12.15-0.45h0.3l0.45-0.45-0.45-0.45h-0.3v0.9zm15.15 0h0.75l1.05-0.9v-0.9l-1.65-0.6-0.45 1.35 0.3 1.05zm-4.05-3.3h1.35l0.45-1.05 0.6-0.45-0.15-0.9 0.15-1.2-1.35 0.75v0.9l-1.05 1.35v0.6zm7.95-1.05 0.9-0.45h0.9v-1.05l-0.9-1.05h-0.9v0.75l0.6 0.3-0.6 0.6v0.9zm-22.65-0.45 0.45-0.6-0.45-0.45-0.6 0.45 0.6 0.6zm1.65-0.45v-1.35h-0.3v0.75l0.3 0.6zm-3.45-2.1h0.3v-0.15h-0.3v0.15zm1.2-0.6h0.6l-0.6-1.95h-1.2v0.6l1.2 1.35zm2.25-0.45v-0.9l-0.6-1.35h-0.75v1.2l1.35 1.05zm10.95-11.1 0.75-1.35-1.95-0.9-0.3 0.45 1.5 1.8zm6.9-0.15h0.6l-0.15-0.45h-0.45v0.45zm2.25-4.8v-0.45h-0.45l0.45 0.45zm-4.35-1.2h0.75v-0.45l-1.2-0.9v0.75l0.45 0.6zm3.15 0h0.45v-0.6l-0.45-0.45-0.45 0.6 0.45 0.45zm1.8-0.3h0.3v-0.75l-2.1-2.4-0.45 0.75 2.25 2.4zm-3.9-0.75h0.6v-1.05h-0.6v1.05zm-7.35-0.6h0.3v-0.45l-0.3-0.15-0.45 0.15 0.45 0.45zm-11.1-0.45h0.3l0.3-0.15h-0.6v0.15zm1.35-1.05v-0.75l-0.75-0.45h-0.6v0.45l1.35 0.75zm2.25 0h0.75v-0.75l-1.8-1.2v1.2l1.05 0.75zm19.2-0.75 0.75-1.65 0.6-0.45v-1.8h-1.05l-0.45 1.8-0.9 0.6v0.75l1.05 0.75zm-15.9-2.1h0.45v-0.75l-0.45-0.45-0.3 0.75 0.3 0.45zm1.95-0.45v-1.35h-0.45l0.45 1.35zm-3.6-2.1 0.9-0.6h0.75v-0.9l-0.9-1.05h-0.9l1.05 1.5-0.9 0.45v0.6zm3.6-1.35 0.45-0.15-1.05-1.95h-0.45v1.05l1.05 1.05zm-2.7-3.45v0.3-0.3zm1.8-3.3-0.15 0.15 0.15-0.15zm11.7-4.65 0.75-0.75-1.95-0.6v0.6l0.6 0.3 0.6 0.45zm-20.1-2.4 0.45-0.15-0.45-0.6h-0.15v0.6l0.15 0.15zm21-9h0.75v-0.6h-0.75v0.6zm-16.95-3.3h-0.45 0.45zm7.05-3h0.75v-1.05h-0.75v1.05zm-5.4-2.55 0.45-0.45v-0.15h-0.45v0.6zm-0.75-1.05 1.2-0.45v-1.5h-1.2v1.95zm6.15 0h0.45v-0.45h-0.45v0.45zm9.9 0h0.75v-3.15l-0.6-0.3-1.2 1.05v1.05l0.6 0.6 0.45 0.75zm-21-3.15 0.75-0.6-0.3-0.3-1.05 0.3 0.6 0.6zm16.95 0v-0.9l-0.6 0.6 0.6 0.3zm-3.75-3.45h-0.75 0.75zm-11.1-0.3h0.9l0.45-1.2h-0.45l-0.9 0.9v0.3zm2.85-0.75v-0.9h-0.6v0.9h0.6zm9.75 0 0.75-0.9-0.75-0.3-0.6 0.45 0.6 0.75zm8.1-0.9v-0.9h-0.6v0.9h0.6zm-18.45-0.9h0.6v-0.45h-0.6v0.45zm-2.85-0.45h0.3v-0.3h-0.3v0.3zm13.65-1.95h0.6l0.45-0.6-0.45-0.45h-1.95v0.45l1.35 0.6zm-14.4-1.65v0.3-0.3zm4.2 0h0.3v-0.45h-0.3v0.45zm19.65-1.05 0.3-0.45v-1.05h-0.3l-0.45 0.6-1.05 0.45 1.5 1.5v-1.05zm-18-1.35h1.2v-0.6h-0.45l-0.75 0.6zm11.25 0v-0.15h-0.3l0.3 0.15zm-9-0.6h0.9v-0.3h-0.45l-0.45 0.3zm0.6-1.35 0.6-1.5-1.2 0.75 0.6 0.75zm-3-0.6h0.15v-0.45h-0.15v0.45zm17.55-1.5 0.75-0.45-0.75-1.2h-0.45v1.35l0.45 0.3zm-23.55-0.75h1.05l0.9-0.9-0.6-0.6-1.35 1.5zm9.3-0.3 1.2-1.95h-1.2l-1.5 0.75v0.6l1.5 0.6zm15.6-0.6v0.45-0.45zm-21.9 0h0.6l-0.45-1.95h-0.15v1.95zm16.05-1.35v0.75-0.75zm-19.05-0.6h0.3v-0.6h-0.3v0.6zm2.55-3.15h1.05v-1.2l-1.65 0.6 0.6 0.6zm16.5-0.6 0.45-0.15h-0.75l0.3 0.15zm-3-1.2v0.3-0.3zm8.4-0.75h0.45v-0.3h-0.45v0.3zm-18.75-0.75h0.3l0.15-0.6-0.15-0.15-0.3 0.15v0.6zm2.1-0.6v-0.6l-0.45 0.45 0.45 0.15zm10.65-1.05h0.6l0.6-0.6-1.5-1.65h-0.3v1.65l0.6 0.6zm-11.1-0.3h0.6v-0.9h-0.6v0.9zm-8.85-0.3 1.05-0.3h-1.05v0.3zm6 0h0.3l0.45-0.3-0.45-0.3h-0.3v0.6z"/>
   <path id="path4708" d="m483.35 258.84h-0.9v-1.2l0.75-1.05-1.05-1.5 0.6-0.9 0.75-0.6v-0.9h-0.75l-0.75 0.45 0.45-3.6 1.05-0.3-0.3-1.2-0.75-0.9v-1.8l0.45-1.05-0.75-1.65 0.6-4.2-0.3-0.3v-1.2h0.75l1.05-0.75 1.8 0.75 1.5-0.75 1.05 1.2h1.65l-3.3-3.6v-1.35l1.2-1.35v-1.35l-0.75-0.75-0.45-2.1-0.9-1.5 1.65-1.95h1.65l1.8-1.2v-2.7h-0.45l-0.45 0.75h-1.35v0.45l0.75 0.75-1.5 0.75-0.75 0.75-1.5 0.75-1.65 2.55-1.35 0.6-0.45-0.45v-4.8l1.5-0.9-1.5-0.75v-9.75l0.3-0.3v-0.9l-0.3-0.3v-23.7l0.75-0.9-0.75-1.95-0.45-36.15-28.2-0.45-2.1-2.7-0.45 0.6v2.1h-4.5l-1.35-1.35-0.75 1.35h-0.75v-24.6l0.75-0.75h8.4l1.2 1.5 2.1 0.75 0.6 1.35 0.9-0.75-0.6-1.8-0.75-1.05h72.6l1.2 0.75 0.75-0.75h16.5v25.35l-37.5 0.45-0.9 2.4-1.2-0.6v0.9l1.8 1.8v50.55l-1.05 0.75v0.45h1.05l-0.45 60.45h-16.65l-1.05-1.2-0.9 1.2h-6.45l-1.5-0.6 0.6-3.3zm7.8 0.45h0.9l-0.6-2.25-0.9 0.9 0.6 1.35zm-4.5-0.75v-1.5l-0.45-0.45-0.3 0.45v1.5h0.75zm5.55-4.35v-1.05h-0.3v0.45l0.3 0.6zm-3.6-3.3h1.35v-1.35h-1.35v1.35zm-3.3-2.1 0.6-0.3v-1.35h-1.65v0.9l1.05 0.75zm7.65-1.65 0.45-0.6v-0.75l-0.45-0.45-0.3 0.45v0.75l0.3 0.6zm5.1-0.6h0.9v-1.2h-0.9v1.2zm-8.1-1.5v0.3-0.3zm0.3-2.55v-1.05h-0.3v0.6l0.3 0.45zm-6.75-1.95h1.35l2.1-0.9v-1.2h-3l-0.45 2.1zm12-1.05h0.3v-0.45h-0.6l0.3 0.45zm-3.45-1.95 0.75-0.75-0.9-1.5-0.6 0.9 0.75 1.35zm1.8-3 0.3-0.45v-3.9h-0.3l-0.6 0.9-0.6 2.7 1.2 0.75zm-11.4-4.35 1.05-1.2 1.8-0.75 1.65 1.5-1.65 2.7-0.75 1.35-2.1-1.2v-2.4zm14.55 2.55v0.45-0.45zm2.55-0.75v-1.35l-2.25-0.75v2.1h2.25zm1.5-2.7-0.45-0.75h-0.3v0.75h0.75zm-5.85-0.75h0.6l0.3-1.35-0.9-0.3-1.05-1.05-0.3 0.6v0.75l1.35 1.35zm-6.3-1.65v-1.05l-0.3 0.6 0.3 0.45zm4.05-5.55h0.9v-1.8h-1.2l-0.6 0.6 0.9 1.2zm3.6-1.35h1.05l0.45-1.35 0.9-0.9v-1.35h-1.65l-0.3 1.35-1.2 1.35 0.75 0.9zm-8.4-0.45h0.45v-0.45h-0.45v0.45zm-4.2-0.45v-1.35h-0.75v1.35h0.75zm13.05-4.8h-0.45 0.45zm-1.05-3.6 2.1-4.2-0.9-0.9-1.35 1.5 0.3 0.9-0.6 1.95 0.45 0.75zm-8.25-1.2v-0.75l-1.05-0.45v1.2h1.05zm3-0.75h0.75l0.45-0.45-0.45-0.45h-0.75v0.9zm10.95-0.75 1.35-1.5-3.15-1.2v1.95l1.8 0.75zm4.8-1.8h0.75l-0.45-0.3h-0.75l0.45 0.3zm-14.55-1.5h1.05l-0.45-1.5h-0.6v1.5zm5.85-1.95 1.5-1.05-1.2-1.05h-1.5v1.35l1.2 0.75zm-6.6-0.45h0.3v-0.45h-0.3v0.45zm-6.45-0.3 1.65-0.75-0.9-0.75-0.75 1.5zm3.9-0.9h0.75l0.6-0.45-1.65-2.4h1.95l1.05-0.9-1.35-1.2-1.8 0.45v1.35l-0.45 0.9 0.9 2.25zm4.35-0.45h1.2v-1.65l-1.65 0.6 0.45 1.05zm5.55-1.65h1.05l0.3-0.3h-1.35v0.3zm-14.55-0.75h0.3l0.6-0.75h-0.9v0.75zm3.75-2.1v-1.8h-1.05v1.8h1.05zm7.05-0.75 1.95-1.65-0.9-0.6-1.05 1.2v1.05zm-6.15-1.5h0.3l-0.3-0.45v0.45zm14.85-1.2h0.45l-0.45-0.3v0.3zm1.05-2.1h0.75l-0.45-0.3h-0.3v0.3zm-15.9-1.65h0.3l1.05-1.05h-1.35v1.05zm6.15-1.05h0.45v-0.75h-0.45v0.75zm12-0.3h0.45v-0.75h-0.45v0.75zm-20.85-0.75v-1.8h-1.95v1.8h1.95zm4.35-3.15 1.65-0.9v-0.9h-1.65v1.8zm-6.75-0.9h0.45l0.3-0.6h-0.75v0.6zm15.45-1.35 0.6-0.3-0.6-0.45h-0.45v0.45l0.45 0.3zm-3.75-2.25v0.6-0.6zm5.1 0h0.3v-0.45h-0.3v0.45zm0-1.2v-0.9h-0.45v0.6l0.45 0.3zm-3.75-1.35v-1.05l-0.6-0.6 1.05-1.35 1.5-3.3v-1.5l-0.45-0.3-1.5 1.8-0.45 1.2-0.6 1.35-0.3 1.65 0.6 1.8 0.75 0.3zm-11.25-0.3h1.35l1.95-1.35v-1.2l-1.95 1.35h-1.35l-0.45 0.45 0.45 0.75zm5.85-1.8h1.05v-0.9l-0.75-1.2v-0.9l1.5 1.35 0.45-2.1-0.75-0.75h-1.35l-1.2 2.25 1.05 2.25zm9.45-2.1h-0.3 0.3zm-10.35-2.85v-1.05l-0.9-0.45v1.5h0.9zm4.95 0h-0.45 0.45zm12.45-1.5h0.75l-0.6-2.1h-1.05v1.35l0.9 0.75zm-16.5-0.45h0.3l0.45-0.3-0.45-0.45-0.3 0.45v0.3zm6.9-1.65h0.45l-0.45-0.45v0.45zm-0.3-2.25h0.75v-0.6h-0.45l-0.3 0.6zm-2.55-2.55v-1.05l-2.55-1.05-0.75 0.75v1.35h3.3zm1.8-3.9v-1.2h-1.8l0.6 0.3 1.2 0.9zm6.15-0.45h0.9l-0.6-2.55h-1.65v1.35l1.35 1.2zm-2.1-4.8h0.3v-0.75h-0.3l-0.45 0.45 0.45 0.3zm-15.15-6.45v-0.75l-0.6 0.3 0.6 0.45zm58.65-1.2v-0.9h-2.1l0.3 0.6 1.8 0.3zm-96.6-0.9h-0.3 0.3zm5.55-0.15 0.9-1.2v-0.75h-1.05l-0.6 1.2 0.75 0.75zm10.2-0.75h2.55v-1.05l-2.4-0.9-0.75 1.5 0.6 0.45zm74.85-1.2 0.3-0.6h-0.3v0.6zm3.9-2.55h0.3v-1.05l-0.3 0.75v0.3zm-74.25-0.3h0.45v-1.2h-0.9l0.45 1.2zm6.6 0h0.75l-0.6-2.7h-1.35v1.2l1.2 1.5zm49.95-1.2h0.75v-0.75h-0.75v0.75zm-36.15-1.5v0.3-0.3zm35.7 0.3v-0.3l-0.45-0.6v0.6l0.45 0.3zm-65.4-0.3h0.3v-0.6h-0.3v0.6zm61.5-0.6 1.35-0.6v-0.9l-2.25-1.2h-1.2v2.4l2.1 0.3zm-47.55-1.5h0.3v-1.2h-0.3v1.2zm10.35-0.45h0.75v-1.5l-0.45-1.35-3-0.75-1.05-0.3v0.9l1.35 1.2 1.8 0.6 0.6 1.2zm40.2-2.7v-0.9h-1.2l1.2 0.9zm11.4 0h0.45v-0.9l-0.45 0.6v0.3zm6 0h0.75v-0.9h-0.75v0.9zm-25.8-1.2 0.3-0.6v-0.3h-0.3v0.9zm14.1 0h0.9v-0.6l-0.9-0.75-0.75 0.6 0.75 0.75zm-80.7-0.6h0.9l-0.9-2.7h-1.2v1.35l1.2 1.35zm13.35-2.25 0.45-0.45h-0.45v0.45zm70.5 0 0.45-0.45-0.45-0.3h-0.3v0.3l0.3 0.45zm-7.95-1.95 0.6-0.75-0.6-0.6-0.75 0.6 0.75 0.75zm-77.85-0.6h0.3v-0.3l-0.3-0.45-0.45 0.45 0.45 0.3zm96-0.3h0.3v-0.45l-0.3 0.45zm-41.1-1.35v0.6-0.6zm-55.95 0h-0.3 0.3zm8.7-2.1h0.75-0.75z"/>
   <path id="path4710" d="m570.17 237.84v-116.7l0.45-0.45 1.05 0.9 1.05-0.9h35.4l1.65 0.9 0.3-0.9h48.9v21.15h-6.75l2.7-1.65h1.35v-0.9h-0.75l-0.6-1.35-1.35 1.2-1.8 1.2-1.8-2.7v2.25h2.4l-0.6 1.2-1.2 0.75h-2.1l0.3-0.45v-0.75h-1.95l-0.3 1.2h-25.2l1.35-1.35-0.6-0.6-2.25 1.95-21.9 0.3v32.55h53.1l0.75 0.9v4.65l-0.6-3-1.5 3v0.75l0.3 0.45 0.6 1.35h0.45l0.75-1.8v16.95l-53.85 0.3-0.3 15-1.05 1.5 1.05 1.95v15.9l-0.45 1.35v2.7l-1.35 0.45v0.75h1.35l0.75 1.05 20.85 0.3v0.75l-0.45 0.45v0.6l1.2-0.6h0.75l0.6-1.35 1.35 0.6 1.05-0.45h29.7l0.75 0.75 0.75-0.75h7.05v14.25h-1.2v1.2l0.45 0.75v0.9h-1.5l0.75 1.5-2.1 1.05-0.45 0.3h0.75l1.8 1.2 1.5-1.5v1.5h-0.75l-1.35 1.2v0.75l-2.7 0.6-0.6-1.5-1.65-0.9v1.8h-1.5l-0.75 0.6h-22.95l-1.8-0.6-4.2 0.6h-13.8l-0.6-1.8-1.5-3.15v-1.65l-0.45-0.9v-1.95l-1.2-1.05-0.45 0.75 0.75 1.8-1.2 0.45v1.05l-2.7 1.5h1.05l1.5 1.05 0.9-1.05h1.05v1.2l-2.25 0.6v1.8h-1.95l-0.75 1.35h-30l-1.05-0.75-0.45-24.3zm36.75 23.7 0.45 0.3-0.75 1.05h-0.6v-1.35h0.9zm15.9 0 0.75-0.75 1.95-0.6-1.35-0.75-1.95 0.75 0.6 1.35zm-22.05-0.45 0.75-0.6-1.95-0.9v1.5h1.2zm32.25 0h0.75v-0.3h-0.75v0.3zm4.5-0.3h-0.45 0.45zm-3.3-0.9h0.75v-0.3l-0.75-0.75v1.05zm4.05-0.3h1.2l0.9-2.25h1.2v2.25l1.2-0.6 0.6-1.95-1.35-2.7v-0.9l-0.45-2.1v-2.7h1.2l1.2-0.6v-1.65h-2.4l-0.3 1.8h-1.5l-0.45 0.6 0.45 1.35v0.75h-0.9l0.6 1.2-3.15 1.8h1.2l1.2 0.75h0.75l0.3-0.75 1.05-0.45 0.45 0.9v0.75h-1.5l-1.05 1.2v1.35l-1.65-0.6-0.75 0.9v0.6l1.95 1.05zm-56.1-0.75 0.3-0.45h-0.3v0.45zm1.95-0.9h1.95l-0.45-0.6h-1.2l-0.3 0.6zm48.15 0h0.3v-0.6l-0.3-0.3-0.45 0.3 0.45 0.6zm2.25-0.6 0.75-0.3v-1.2l-1.5-0.75v1.5l0.75 0.75zm-9-0.3 1.05-0.45-0.45-0.3-0.6 0.3v0.45zm31.95-0.45h0.45v-1.5h1.05v-0.75l-1.95-2.25v-1.5l1.2 0.3h1.65v-1.5l0.9-0.75v-1.95l-3.75 0.6 1.2 0.9v0.75h-1.5l-1.8-1.05v3l-0.75 0.9 0.3 0.75-0.75 0.6-0.3 1.2-1.5-0.9-0.6 0.9 1.05 1.5h1.35l1.35-1.35 2.4 2.1zm-36.15-0.15v-1.05l-2.25-0.3-0.75-0.45h-1.2v0.45l0.6 0.6 3.6 0.75zm-18.9-1.35h0.45l-0.45-0.45v0.45zm22.35 0h0.75l1.05-0.75h-1.8v0.75zm-26.85-0.75v-1.2h-0.75v1.2h0.75zm3.15-0.45h0.6v-2.1h-0.6l-0.75 0.75 0.75 1.35zm2.55 0h0.45v-0.75h-1.2l0.75 0.75zm-13.05-1.8h0.3v-0.3h-0.3v0.3zm57.45-0.3h-0.3 0.3zm-11.25-0.45h0.3v-0.75l-0.3-0.75h1.5v-1.2l-0.75-0.45-2.55-2.55-0.45 0.45v0.75h0.45v1.2l1.35 0.6-1.05 0.3-0.45 0.6 1.95 1.8zm16.95 0 0.45-1.2-0.6-0.6-0.75 0.75 0.9 1.05zm-10.5-0.75 0.3-0.45v-0.3l-0.3 0.3v0.45zm-44.1-0.45h0.75v-1.5l-2.25-0.6v1.35l1.5 0.75zm32.7 0h1.2l0.3-0.75 1.5-0.75-0.6-0.45h-0.9l-0.75 0.75-1.5-0.6v1.05l0.75 0.75zm-40.95-1.5h1.8l0.75-1.05h1.65l0.3-3.15h-1.2v1.95l-1.5 0.45-1.8 1.8zm28.2 0-0.3-1.05h-0.45v1.05h0.75zm5.25 0h0.9v-1.05h-0.9v1.05zm-12-0.45h0.3v-0.6h-0.3v0.6zm36.75-0.75 0.6-1.8h1.35v-1.5h-1.35l-0.45 1.2-1.2 0.3v1.2l1.05 0.6zm-48.3-0.6h-0.45 0.45zm12.6 0h0.6l-0.75-1.5h-0.9v0.3l1.05 1.2zm3 0 0.9-0.45-2.1-2.1-0.6 0.75 0.6 1.35 1.2 0.45zm-12.3-0.45h0.75l0.45-0.3h-1.2v0.3zm51.75 0v-0.75h-0.9l0.9 0.75zm-17.55-0.6 0.75-1.35 0.75-0.75v-2.55l-1.5 0.75-0.45 1.8-0.75 0.75v0.9l1.2 0.45zm-47.4-0.45h1.05v-0.9h-1.05v0.9zm10.8-0.45h-0.6 0.6zm52.8 0v-0.45l-1.65-1.95-0.9 1.65 1.8 0.3 0.75 0.45zm-66.75-0.45 1.65-1.05v-1.05l-0.75-0.75h-0.9v2.85zm58.8-0.15 1.2-0.6h0.75v-1.35l-1.2-1.2h-0.9l0.75 1.65-1.05 0.6 0.45 0.9zm-26.7-0.6h0.9v-1.35h-0.9v1.35zm22.95 0h0.45l0.3-0.3h-0.3l-0.45 0.3zm-19.95-0.3v-1.8h-0.75v1.8h0.75zm27.15-0.6h1.35v-1.2l-1.35-1.2h-1.2v1.2l1.2 1.2zm-54.9-0.45 0.75-0.75v-1.2l-0.45-0.45-1.5 0.9-1.05 0.9 2.25 0.6zm47.25 0h-0.75 0.75zm-60.15-3.15 0.3-0.3v-0.45h-0.3v0.75zm9.15-0.6v-1.2h-2.4v0.45h1.2l1.2 0.75zm2.1-1.5h1.65v-0.75h-1.65v0.75zm-18-3.6h0.45l1.2-1.65h-0.9l-0.75 0.75v0.9zm15.15-19.05h1.35l1.2-1.2h1.5v-3.3l-1.2 0.6v1.95l-1.5 0.45-1.35 1.2v0.3zm0-3.15h0.3l0.45-0.45-0.45-0.45h-0.3v0.9zm-2.85-1.35 1.5-1.35-1.8-1.8v1.95l-0.75 1.2h1.05zm6.9-1.35 1.35-2.55-0.75-0.75-2.55 1.35v1.2l1.95 0.75zm-3.75-4.65h0.45v-0.75h-0.45l-0.3 0.3 0.3 0.45zm-15.75-4.5 1.05-1.2v-0.45h-0.75l-0.9 1.05 0.6 0.6zm52.65-1.95v-0.3h-0.45l0.45 0.3zm-18.6-2.85-0.6-1.35-0.45 0.45h0.45l0.6 0.9zm20.55 0.3v-1.2h-0.45l0.45 1.2zm13.5-4.5 0.3-0.45v-0.75l-1.95-0.6v0.6l1.65 1.2zm4.5-0.75h0.3l0.75-0.9v-0.3h-1.05v1.2zm-39.6-0.45h0.75v-0.45h-0.3l-0.45 0.45zm11.4-1.5h0.3l0.45-0.45-0.45-0.45h-0.3v0.9zm-12.6-0.9h0.9v-2.1h-2.55v1.2l1.65 0.9zm-7.2-1.5 1.35-1.35 1.8 0.6v-3.6h-0.75v1.95l-1.8 0.6-1.2 1.2 0.6 0.6zm8.4-1.8h0.45l-0.45-0.3v0.3zm-9-1.5h0.45v-0.6h-0.45v0.6zm10.2 0h0.75v-0.6h-0.75v0.6zm38.4-5.25v0.45-0.45zm-3.45 0 0.9-0.75-0.6-0.6-0.75 0.75 0.45 0.6zm-71.55-10.5v0.45-0.45zm-1.35-4.8h0.3v-0.75h-0.3l-0.45 0.3 0.45 0.45zm42-20.1h0.45v-0.3h-0.45v0.3zm17.85-0.15 1.2-2.4h-1.35l-1.8 0.6v1.05l1.95 0.75zm-7.65-0.6h1.05l-0.6-3-0.45 0.45v2.55zm18.75-0.75 0.45-0.6-0.45-0.45v1.05zm-4.05-1.05h0.45v-0.3h-0.45v0.3zm-24.6-0.15 0.9-0.6-0.3-0.45h-0.9l-0.3 0.45 0.6 0.6zm6.6 1.65h0.45v-2.25h-0.45v2.25zm-3.15 0 1.2-1.2v-0.75l-0.75-0.45-0.45 1.2-0.6 1.2h0.6zm21.15 0 0.45-0.45-0.45-0.3v0.75zm-3.3-0.75v0.3-0.3zm-28.35 0h0.3l0.45-0.45-0.45-0.45-0.3 0.45v0.45zm1.95-1.2h0.3l0.45-0.45-0.45-0.6h-0.3v1.05zm15.6 0 0.6-1.8h-1.95v1.35l1.35 0.45zm18.15-1.05 0.45-0.3v-0.45h-0.45l-0.3 0.45 0.3 0.3zm-39.15-0.3h2.85v-0.9h-2.85v0.9zm-21.6-0.9v0.45-0.45zm7.05 0.45h1.05v-0.75h-0.3l-0.75 0.75zm50.4 0v-0.75h-1.5l1.5 0.75zm-47.1-1.5v0.75-0.75zm53.25 0.75h-0.9 0.9zm-41.1-0.45 2.1-1.5-0.6-0.45h-1.2l-0.3 0.45-0.9 0.3v0.9l0.9 0.3zm44.4 0 0.3-0.3v-0.45h-0.75v0.45l0.45 0.3zm-21.9-1.2h1.2v-0.75h-0.45l-0.75 0.75zm2.7-0.3 1.05-3.3-1.5 0.6v2.25l0.45 0.45zm12.3-1.35h1.2v-1.2l-1.5-1.65-0.45 0.45v1.5l0.75 0.9zm-22.8-0.9h0.75l0.3-0.3-0.3-0.45-0.75 0.45v0.3zm6.75 0h0.6l0.45-0.3-0.45-0.45h-0.6v0.75zm22.2 0h1.05v-1.05l-1.5-1.95h-0.45v2.25l0.9 0.75zm-43.65-0.3 0.3-0.45v-0.75l-1.5-0.45-0.75 0.6 1.95 1.05zm18.3-0.45 1.65-1.2v-0.75l-0.75-0.75h-0.9v1.2l-0.3 1.2 0.3 0.3zm-26.55-0.75h1.35l1.2-0.75 1.5-0.45v-1.35l0.45-1.95h-0.45l-0.75 0.75v1.65l-1.95 0.6-1.35 1.05v0.45zm-6.9-0.45h0.75l-0.3-0.3-0.45 0.3zm40.8-0.75 0.9-2.1h-1.35l-1.5 0.6v0.9l1.95 0.6zm19.35-0.15 0.9-1.2-0.3-0.45h-0.9l-0.3 1.05 0.6 0.6zm-60.15-1.95h0.75l0.9-0.45-0.45-0.3h-1.2v0.75zm7.35 0 0.45-0.45-0.45-0.3h-0.45v0.3l0.45 0.45zm-4.05-1.2h0.9l1.35-1.35-1.35-1.35-0.9 2.7zm-9.75-0.45 0.45-0.3v-0.45h-0.45v0.75zm36.6-0.3 0.45-0.45v-0.75l-1.8-0.6-0.9 0.75 1.5 0.6 0.75 0.45zm-34.95-1.2h0.75v-0.45l-0.45-0.6-0.3 0.6v0.45zm15.45 0h0.75v-1.8h-1.2l-1.2 1.2 1.65 0.6zm-20.4-1.05h1.95l1.05-0.75-1.8-0.3-1.95 0.45 0.75 0.6zm-1.95-1.05v-0.45h-0.6l0.6 0.45z"/>
   <path id="path4712" d="m705.89 259.14-0.9-0.45-1.65-0.9-5.85-3.15-1.65-1.5v-1.35l-0.6-0.9-1.5 0.9-3.6-3.75 2.4-0.9v-0.15l-1.5-0.9h-2.7l-0.45-0.9-1.5-1.65v-1.05h-0.9v-1.95h0.75l0.75 1.5 0.45-0.6 2.85-0.3-0.6-1.35 1.65-1.5v-1.35h-0.6l-1.05 1.35h-1.5l-0.3 0.15 1.35 0.45v0.9h-1.35l-1.5-1.05-1.2-0.3-1.05-2.1v-1.35l2.7-1.35h1.8l0.3-0.9 0.75-0.6 1.2-1.2 2.7 0.75 1.2-2.7 0.9 1.05v1.65h0.9l1.2 1.95v1.35h-0.3l-0.45-1.05h-1.2v1.05h-0.6l-1.35-0.3-0.15 0.3 0.75 0.9 1.2 0.45v1.95h0.6l0.9-0.75 1.35 1.2h1.35l0.6-0.3-1.05-1.2 0.45-0.3 1.95 0.3 1.05 0.75 1.2-0.75h0.9l0.9-0.75v-0.15h-5.25l-1.05-2.55 1.65-1.05v-1.35h-1.95l1.2-1.35-3-1.05-1.2-1.5 3.15-1.65 4.65-2.85h1.5l1.65 2.85h-1.35l-2.1 1.35-1.65-2.25-0.9 0.6 2.1 2.1 2.1 1.2 0.45-0.6-0.75-1.05 2.1-0.45 1.05 0.9 1.05 1.2 2.25 2.85h-1.5l-0.75 0.45 0.75 0.75v1.05l2.7-0.6 1.05 0.6 1.95 1.95h1.65l1.95 1.05 0.3 0.3 9-0.3 4.8-1.95 2.85-2.85 2.25-4.65 0.75-5.25 0.3-23.55 0.9-0.45 0.6-1.05 1.05-1.2-0.6-0.6h-1.2l-0.45 1.35h-0.3v-9h0.75v-1.65l-1.05 0.6 0.3-3.6 0.9 0.6 1.2-1.5-1.2-0.45-0.75 0.45-0.45-2.1v-15.3l0.3-3.75v-1.8l1.95-3.6v-0.6h-0.45l-0.75 0.6h-0.45l-0.6 0.3v-11.4h0.75l-0.75-1.35v-22.35l6.3-0.6 4.2 0.6h4.05l1.35-0.6 1.05 0.9 2.55-0.75 5.85 0.45h3l0.75 0.6v20.25l-1.5 1.35 1.05 1.35v20.4l-0.3 0.9 0.75 4.5-0.75 2.4-0.75 0.75v1.2l-0.9 0.75v0.6h0.9l0.75-1.05h0.3v3.3l-1.5 1.35v1.2l1.5 0.75v42.3l-1.05 1.2h1.05l-1.5 8.85-1.05 2.1v1.05l-1.95 5.1-1.95 3.3-1.2 2.25-3.75 3.75h-1.05l-0.75 2.25-7.65 4.65-7.2 2.25-8.7 1.95h-6.75l-9-0.45-9.6-2.85zm25.35-2.7h0.3l-0.3-0.45v0.45zm-36.45-4.5 0.9 0.6h-0.45l-0.75-0.6h0.3zm3.3 0.6h2.4v-1.2l-1.05-1.5h-0.9l-0.45 0.45 0.9 1.2-1.5 0.45 0.6 0.6zm33.15 0 0.3-0.15v-0.45h-0.3v0.6zm11.55-2.25 0.45-0.45-0.45-0.6-0.45 0.6 0.45 0.45zm2.4-1.05h0.3v-0.15h-0.3v0.15zm-44.7-0.75 0.75-0.9v-0.6l-1.65-1.5 0.9 1.65v1.35zm6.45 0 0.75-0.45v-1.5h-1.35v1.05l0.6 0.9zm-17.25-1.5v0.15h-0.45v-0.15h0.45zm28.5 0h0.6l2.1-2.25-1.5-1.5h-0.3l0.3 1.05v1.05l-1.2 0.75v0.9zm-24.45-0.3 1.95-0.9h-1.95v0.9zm-0.3-2.4v-1.5l-2.25-0.6-0.6 0.9 0.75 0.75 2.1 0.45zm7.35 0h1.05v-0.75h-0.6l-0.75 0.3 0.3 0.45zm-5.55-0.45h2.25v-1.35l-1.8-1.95-0.45-1.35-0.75 0.75 0.3 1.2-0.3 0.9 0.3 0.75 0.45 1.05zm19.95-0.6v0.3-0.3zm8.7 0.3h0.3v-0.3h-0.3v0.3zm-24.6-0.9v-1.2h-1.2v0.6l1.2 0.6zm13.95 0 1.05-0.6h2.25v-1.5h-2.25l-1.05 1.5v0.6zm-10.35-0.15v-0.9l-1.05-1.05h-1.05v1.05l2.1 0.9zm16.2-0.3 0.3-0.75-1.05-0.3-0.75 0.3v0.15l1.5 0.6zm-10.95-0.6h1.2v-2.4l-0.6-1.5h-1.2l0.6 1.65-0.9 0.9v0.9l0.9 0.45zm12-1.35v0.9-0.9zm-16.35 0.3h0.3v-0.3l-0.3 0.3zm-18.6-1.35v0.6h-1.05v-1.2l1.05 0.6zm32.25 0.45 0.15-0.45h-0.15v0.45zm4.05 0h1.35v-1.2h-1.35v1.2zm-16.5-0.45h0.45l0.9-0.75h-0.45l-0.9 0.75zm57.6 0.45 1.5-1.65-1.5-1.5-2.1 1.8 2.1 1.35zm-75.75-1.35h0.6v-1.95l-2.25-0.9v1.65l1.65 1.2zm29.25 0-0.3-1.05h-0.6v1.05h0.9zm-4.65-0.6 1.35-1.35-3.15-0.6v1.95h1.8zm22.95-1.2 1.95-0.15v-0.75h-1.5l-0.75 0.75 0.3 0.15zm3.45-0.45 1.2-1.05-0.45-0.3h-0.9l-0.6 0.75 0.75 0.6zm-31.95-0.45h0.9l0.45-2.4 0.9-0.45v-1.8h-1.2l-1.35 1.95-0.75 0.3v1.2l1.05 1.2zm28.95-1.2h0.45v-0.45l-0.45 0.45zm-33.45-1.2v0.75-0.75zm-2.4-0.45v0.45h-0.45v-0.3l0.45-0.15zm60.15 0.15h1.35l-0.75-0.9-0.6 0.9zm0.45-4.5v-1.05h-0.75v1.05h0.75zm-18.45-7.05h0.45l0.6-1.2h-1.05v1.2zm0.6-12.6 0.75-0.6-0.75-0.9-0.6 1.05 0.6 0.45zm-1.2-0.75v-0.75h-0.15v0.3l0.15 0.45zm25.5-8.85v-1.05l-0.6-0.9h-1.05v1.95h1.65zm-12.6-4.05 0.15-0.15-0.15-1.05h-1.35l0.6 1.05 0.75 0.15zm6.9-1.2h0.6l0.6-0.45-0.6-0.3h-0.6v0.75zm4.05-0.45h0.75v-0.6l-0.75-0.6h-0.75v0.6l0.75 0.6zm-5.25-4.05 0.45-0.45 0.3 0.45v0.15h-0.3l-0.45-0.15zm-1.05-1.05v-0.45 0.45zm-13.65 0 0.45-1.5-2.4-0.75v1.5l1.95 0.75zm3.9-1.65h0.45v-0.45h-0.45v0.45zm4.35-2.4h0.75v0.75h-0.75v-0.75zm4.2-0.15h0.3-0.3zm-16.35-1.2v-0.6 0.6zm1.35-2.4h0.45v0.15h-0.75l0.3-0.15zm11.55 0v-0.45 0.45zm5.4-3.75h0.75v-0.6l-0.75 0.6zm3.3-0.15h0.9l-0.9-1.8v-0.6l1.05 0.6h0.9v-1.8h-2.25v0.9l-0.3 0.6v1.35l0.6 0.75zm-1.65-4.05h1.05v-1.05h-1.35l0.3 1.05zm4.95 0v-0.3h-0.3l0.3 0.3zm-3.6-1.35h0.3l0.45-0.75-0.45-0.6-0.3 0.45v0.9zm-13.05-1.35 0.45 0.45h-0.45v-0.45zm-6.9-4.2v-0.6 0.6zm21.3 0h1.5l1.2-0.6-0.45-0.75-1.95-0.75-1.05 1.05 0.75 1.05zm-20.7-3.45h0.3l-0.3-0.3v0.3zm16.65-1.8h0.45v-0.75l-0.45 0.45v0.3zm-10.35-6.75v-1.35h1.2v1.95h-0.15l-1.05-0.6zm-7.65-1.35v-0.3 0.3zm0-1.2 0.45-0.6v-0.45h-0.45l-0.6 0.45 0.6 0.6zm22.5-5.25 0.45 0.3v0.15h-0.45v-0.45zm-1.2-0.3v-0.45 0.45zm-18-2.1v-0.9h1.5v1.8h-0.75l-0.75-0.9zm13.2-0.9h0.45-0.45zm8.85 0h0.45l-0.45-0.3v0.3zm-22.8-1.95 0.6-0.3-0.6-0.3v0.6zm9.75-0.6h0.45v-1.2l-1.2-1.35h-1.95l-0.75-0.45v0.45l1.05 0.9 2.1 0.9 0.3 0.75zm11.7-11.85h0.75v-0.45h-0.75v0.45zm-3-2.25 0.3-0.45-0.3-0.6-1.8-0.75-0.75 0.75v1.05h2.55zm1.5-4.5h0.45v0.45l-0.45-0.45z"/>
   <path id="path4714" d="m791.67 261.24v-1.05l1.65-3.45 0.6-1.95 2.4-4.65 0.6-1.65 20.7-47.1 1.2-0.6v-2.25l5.4-12.3 1.05-2.25 7.35-16.65 1.5-0.75v-2.85l3-6.3 1.65-0.75v-4.05l5.85-11.55 0.6-0.6v-1.65l2.85-6 2.25-2.85v-0.6l-1.8 1.05 4.95-10.35h0.9l1.05 2.25v3.6h1.2l3.15 5.4 0.9 3.9 1.2 1.2 16.05 34.8-1.5 3 2.25-1.2 40.8 88.8h-21l-1.65 0.6-7.2-0.6-1.65-5.4 1.2-2.25-0.45-0.6h-2.4l-1.2-3.45-1.35-3.45h1.2l0.75-1.65h2.25l3-2.4h2.4l1.2-1.2v-0.6h-1.8l-4.65 2.25h-1.8l-1.2-1.05v-0.9l2.7 1.35-1.5-2.25v-1.05h-0.6l-4.05 3.9h-3.6l-1.65-1.65v1.65h-11.7l-0.6-0.45h-2.25l-1.2-1.2-1.65 0.6-3 0.6-0.75 0.9-0.9-2.1h-0.6l-1.2 2.1-2.1-1.95-1.8 1.05h-1.2l-0.6 0.45h-19.95l-2.7 4.2v-1.05h-0.6l-0.6 0.45 1.05 2.25-6.45 13.5h-14.25l-4.35-0.6-7.35 0.6-0.6-0.6 0.6-0.6zm3.45-1.05v0.45-0.45zm97.2 0v0.45-0.45zm21.75 0h0.6l0.6-0.6h-1.2v0.6zm-100.35-1.2h0.45v-0.6h-0.45v0.6zm83.1-1.2v0.6-0.6zm3.3 0.6 0.6-0.6h-0.6v0.6zm-100.8-2.4h-0.6 0.6zm96.9-0.6h0.6l-0.6-0.6v0.6zm-89.4-2.25h-0.6 0.6zm7.35 0h1.2v-1.2l-0.6-0.6-0.6 0.6v1.2zm95.4 0h-0.6 0.6zm-11.55-0.6-0.6-1.2h-0.6v1.2h1.2zm-9.45-1.35 0.6-1.5h-0.45l-0.9 0.75 0.9-3.15h-0.75l-1.95 2.7 2.55 1.2zm-72.6-1.5v-1.8h-1.2v1.8h1.2zm75.6-1.8h0.75v-0.6h-0.75v0.6zm-70.8-1.2v-1.05h-1.35v1.05h1.35zm-15.15-0.9v-2.1h-2.25v1.35l2.25 0.75zm18-2.1h1.65l1.2-1.65h-1.2l-1.65 1.65zm60.45 0h-0.6l0.6-0.6v0.6zm-53.25-0.75 5.55-1.35v-1.35h-1.65l-1.2 1.2-1.8 0.6-0.9 0.9zm41.55-1.5h-0.6 0.6zm16.35 0h1.65v-1.2h-1.65v1.2zm-37.8-1.2h1.8l-0.6-0.6h-1.2v0.6zm28.35 0h0.6l-0.6-0.6v0.6zm-67.8-1.05h-0.6 0.6zm15.6 0.15v-1.95l-1.05-1.05-0.75 2.25 1.8 0.75zm7.05-0.15h1.65v-1.8h-0.75l-0.9 1.8zm60.45 0.15v-1.35h-1.8l-0.45 0.6 2.25 0.75zm-66.3-0.75h1.05v-1.2h-1.05v1.2zm2.85-0.6h2.4v-1.8l1.8-1.05v-1.2h-1.2l-1.65-0.9-1.35 1.5 0.6 0.6 0.75 2.25-1.35 0.6zm53.55 0 1.05-1.2h1.2v-1.05l-3.3 1.2 1.05 1.05zm5.1 0h1.2v-0.6h-0.6l-0.6 0.6zm-49.95-0.6h0.6l-0.6-0.6v0.6zm15.15 0h0.45v-0.6l-0.45 0.6zm-26.7-1.2 0.45-0.45v-1.2l-2.25-0.6v-0.6l2.7-1.35-1.95-2.1 4.5-1.65 1.05-3.15 1.95-0.9 0.6-1.2h-1.8l-1.35 0.6h-2.85l-0.6-0.6-0.45 1.2-1.2 0.6 0.6 0.45h3.15l-0.9 1.8v0.45h-1.2l-2.85-1.65-0.6 1.2-1.65 0.45-1.35-1.2 3-1.05v-0.45l-1.65-1.2h-2.55l0.75 1.65-0.6 0.6h-2.4v2.25l0.6 0.45 1.65-0.6 0.75 0.6h4.05v3h-1.95l0.9 1.8 0.45 1.8 1.8 0.6 1.2 0.45zm17.55 0h1.05v-0.45l-0.6-0.6 1.2-0.6-1.65-2.4 0.45-0.6h2.4v-1.2h-3.45l-1.35 1.2v2.1l1.95 2.55zm3.45 0 0.45-0.45h-1.05l0.6 0.45zm10.35-0.45v0.45-0.45zm25.05-0.6 2.25-1.2-0.6-0.6-1.2 0.6h-1.05v0.6l0.6 0.6zm-31.35-0.6 0.9-2.1-1.5 0.9-1.8-1.8h-1.95l0.9 2.1 3.45 0.9zm-16.35-0.6 2.85-1.8-1.05-1.2h-1.2v1.8h-0.6l-0.75-2.4h-4.05v0.6l2.55 1.2 2.25 1.8zm53.4-1.8h0.6v-0.6h-0.6v0.6zm-37.05-0.6h1.65v-1.2h-1.65v1.2zm40.65-0.6 2.25-0.6 0.75-2.1-2.4-1.8v1.65l1.5 0.6-2.1 2.25zm-6.45-1.8h2.25v-0.6h-1.05l-1.2 0.6zm-53.4-0.6h0.6l0.75-2.1h-1.35v2.1zm2.25-0.45h0.6l0.6-0.6h-0.6l-0.6 0.6zm-10.5-0.6h0.6-0.6zm-10.5-1.05h2.85v-3.45h3v-1.65l-1.8 0.75v-0.75l0.9-0.9-0.9-2.25-2.25 1.8v3.9l-1.8 2.55zm-1.2-0.6 0.9-1.65h-1.95v0.6l1.05 1.05zm32.7 0 1.2-0.6-1.2-1.05v1.65zm3.45-0.6h1.2v-1.05h-1.2v1.05zm38.1 0.3 0.75-0.75-0.75-0.9-0.9 0.9 0.9 0.75zm-33.45-1.35v-0.6l-0.6-0.6v0.6l0.6 0.6zm-42.9-0.6 1.5-1.65-1.5-0.6v2.25zm27.75 0 1.2-1.2v-1.05l-0.6-0.6 1.2-0.75h5.25l-0.6 0.75-0.45 1.05 1.35-0.75 1.5 0.75 1.05-0.9-1.65-0.9h19.05l4.2-0.6-6.6-17.4v-1.8l-1.05-1.05-4.05-10.2v-2.7l-1.2-1.8-1.65-2.85 1.05-1.05-1.8-1.65-1.95-6.45-5.4 14.4h-1.2l-0.6 0.6 1.35 0.75-7.35 19.5h-1.65v0.6l0.6 0.75v1.2l-2.25-1.95v3l1.35 0.6-1.65 4.8-1.95 2.7 0.45 0.6h0.6l1.2 0.75 2.25 0.75v2.1zm25.5-0.6 0.6-0.6v-0.6h-0.6l-0.6 0.6 0.6 0.6zm-42.9-0.6h1.2l0.6-0.6h4.5l4.2-2.1v-0.9h-2.4l-3 1.65-1.35-1.35-1.35 1.65h-2.4v1.65zm-8.25-1.05v-0.6h-0.45l0.45 0.6zm7.65-1.95 1.2-2.25 1.8-0.6-1.5-2.1 1.95 0.9h3.45v1.35l2.4-0.75 0.75-0.75 1.65 0.75v-0.6l-3.3-3.3 1.95-0.75v-1.05l-1.05-0.6-0.6-0.6h-1.2l0.9 1.5-1.95 1.95-0.6 1.2-1.2-1.2h-0.6v1.2h-3.15l-0.9 1.65-1.8 0.6 0.75 0.6 0.45 2.25 0.6 0.6zm69.15 0h2.4v-1.2l-3.3-0.45 0.9 1.65zm-66.75-1.2h0.6v-0.45h-0.6v0.45zm-7.05-1.05 0.45-1.2v-1.5l3.6-1.2v-0.75h-1.8l-0.9-1.65h2.7l1.2 1.05h0.9l0.9-1.65 1.65-1.95v-0.6h-1.05l-1.8 1.95v-1.95h-0.6l-2.4 2.55-1.2-1.2h-1.2l-1.35 2.1 1.65 0.9-0.75 1.65v3.45zm72-1.2 1.2-1.2h-1.2v1.2zm4.2-1.65h0.6v-0.6h-0.6v0.6zm-59.25-3v-1.05h-0.6v0.6l0.6 0.45zm61.05-0.45v0.45-0.45zm-66.9-1.2h-0.6 0.6zm3.9-1.35 1.95-0.6v-1.2l-2.7 0.9 0.75 0.9zm44.25 0h0.6v-0.6h-0.6v0.6zm-39.45-0.6 0.6-0.45v-0.6l-0.6 0.6v0.45zm-18.75-1.05v-0.6l-1.05-1.2v1.8h1.05zm60.45 0v-1.2h-2.25l0.6 0.6 1.65 0.6zm-40.5-1.2 1.05-0.6v-0.6l-1.05 1.2zm-11.1-0.6h0.6l-0.6-0.6v0.6zm6.45 0h1.8l-1.2-1.65v-0.6l-0.6-0.6-1.8 1.2v1.05l1.2-0.45 0.6 1.05zm44.1-2.25h2.25v-1.2h-0.6l-1.65-0.9v2.1zm-54.6-0.3 3.75-1.95-2.55-1.2v1.05l-1.2 0.6v1.5zm8.1-0.9v0.6-0.6zm59.25 0v0.6-0.6zm-69.6 0v-0.6h-0.75l0.75 0.6zm9.75-1.2v0.6-0.6zm4.2 0.6h1.05l-1.05-0.6v0.6zm2.25 0h1.8l-0.6-1.65v-0.6h-1.2v2.25zm36.6-1.05h0.6v-0.6h-0.6v0.6zm-34.35-1.2 1.2-1.2h-1.2v1.2zm-15-1.2v0.6-0.6zm5.7 0.9 1.8-0.9-0.6-0.6-1.2 0.6v0.9zm34.8-0.3h0.6v-0.6h-0.6v0.6zm-38.25-0.6h0.6v-0.6h-1.2l0.6 0.6zm43.65-1.8h1.05l-1.05-0.6v0.6zm-43.65-0.6h0.6v-0.6h-0.6v0.6zm4.65-1.8v1.2-1.2zm31.95 0.6h0.6v-1.05h-1.8l1.2 1.05zm15.6-1.65h0.6l-0.6-0.6v0.6zm-53.4-0.6h0.6l2.4-2.25h-1.8l-1.2 2.25zm20.85-0.9-0.9-2.55-0.6 1.2-1.35 0.45 2.85 0.9zm18-0.9h1.8l1.05-0.9-2.25-4.35v1.8l0.6 1.2v1.2l-1.2 1.05zm-33-1.65h0.6l-0.6-0.6h-1.2l1.2 0.6zm-6.3-0.6h0.45v-1.2l-0.45 0.6v0.6zm55.8-0.6h0.6v-0.6l-0.6 0.6zm-34.8-0.6 1.05-0.45v-0.6h-2.25l1.2 1.05zm15.45 0h1.2v-0.45h-1.2v0.45zm9.9 0h-0.45 0.45zm3.45 0h0.6v-0.45h-0.6v0.45zm-14.4-1.8h0.45v-0.45l-0.45 0.45zm-30.3-1.05h0.6v-0.6h-0.6v0.6zm15.9 0h0.45v-0.6h-0.45v0.6zm16.65 0v-1.65h-0.6l-1.2 1.05 1.8 0.6zm2.25 0h-0.6 0.6zm-26.55-1.05h-0.6 0.6zm37.65 0h-0.6 0.6zm2.85-0.6v0.6-0.6zm-48.75-0.6h0.6l0.6-0.6h-1.2v0.6zm36-1.8v1.2-1.2zm8.25 0.6h-0.6 0.6zm2.25-1.05h1.2v-0.6h-1.2v0.6zm-2.85-7.65h0.6l-0.6-0.6v0.6zm-29.7-3.45h0.75l0.6-1.2h-1.35v1.2zm2.4-1.8h0.6v-0.6l-0.6 0.6zm-8.7-2.85h0.6l1.05-1.2h-1.65v1.2zm0-2.4h-0.6 0.6zm3.45-2.4h1.2v-2.25h-0.6l-0.6 1.2-0.6 0.45 0.6 0.6zm18.6 0h0.6l-0.6-0.6h-0.6l0.6 0.6zm-12.75-0.6h0.6v-0.45l-0.6 0.45zm16.8-0.45v0.45-0.45zm-12.15-1.2h-0.6 0.6zm-10.5-1.2v0.6-0.6zm15 0.6v-0.6h-0.6l0.6 0.6zm6 0.45 1.5-1.5-2.7-0.75 1.2 2.25zm-18.15-1.05 1.35-1.05 0.6-1.2 1.05-1.2h-1.05l-2.55 2.4 0.6 1.05zm11.55-1.65h1.2l-0.6-0.6h-0.6v0.6zm3.6 0h1.65v-0.6h-1.05l-0.6 0.6zm-6.3-1.8h0.6v-0.6l-0.6 0.6zm13.2-1.05h0.6l-0.6-0.6v0.6zm-7.8-1.5 0.9-1.05 1.65-1.05v-1.2l1.8-1.2-1.2-1.65h-0.6l-0.75 2.55-2.7 2.55 0.9 1.05zm-7.8-1.65h0.6l-0.6-0.45h-0.6l0.6 0.45zm11.55-0.45h2.25v-0.6h-1.65l-0.6 0.6zm-0.6-5.25v-0.45h-0.6l0.6 0.45zm-8.55-1.05h-0.6 0.6zm8.55-0.45h0.6v-0.6l-0.6 0.6zm-2.85-0.6h1.2l0.6-0.6-0.6-0.6-1.2 1.2zm-3-1.8-0.45-1.2h-0.6v1.2h1.05z"/>
  </g>
 </g>
</svg>
